<svg width="273" height="134" viewBox="0 0 273 134" fill="none" xmlns="http://www.w3.org/2000/svg">
<rect x="23.5" y="0.5" width="224" height="110" rx="26.85" fill="url(#paint0_radial_1094_111)" fill-opacity="0.8"/>
<rect x="23.5" y="0.5" width="224" height="110" rx="26.85" stroke="url(#paint1_linear_1094_111)"/>
<path d="M75.764 62V49.4H80.696C81.596 49.4 82.406 49.55 83.126 49.85C83.858 50.15 84.482 50.582 84.998 51.146C85.514 51.71 85.91 52.376 86.186 53.144C86.462 53.912 86.6 54.764 86.6 55.7C86.6 56.636 86.462 57.494 86.186 58.274C85.91 59.042 85.514 59.708 84.998 60.272C84.494 60.824 83.876 61.25 83.144 61.55C82.412 61.85 81.596 62 80.696 62H75.764ZM77.708 60.326L77.654 60.128H80.606C81.242 60.128 81.806 60.026 82.298 59.822C82.802 59.618 83.222 59.33 83.558 58.958C83.906 58.574 84.17 58.106 84.35 57.554C84.53 57.002 84.62 56.384 84.62 55.7C84.62 55.016 84.53 54.404 84.35 53.864C84.17 53.312 83.906 52.844 83.558 52.46C83.21 52.076 82.79 51.782 82.298 51.578C81.806 51.374 81.242 51.272 80.606 51.272H77.6L77.708 51.11V60.326ZM92.3968 62.18C91.6168 62.18 90.9028 61.964 90.2548 61.532C89.6188 61.1 89.1088 60.512 88.7248 59.768C88.3408 59.024 88.1488 58.184 88.1488 57.248C88.1488 56.3 88.3408 55.46 88.7248 54.728C89.1208 53.984 89.6488 53.402 90.3088 52.982C90.9808 52.562 91.7308 52.352 92.5588 52.352C93.0508 52.352 93.5008 52.424 93.9088 52.568C94.3168 52.712 94.6708 52.916 94.9708 53.18C95.2828 53.432 95.5348 53.726 95.7268 54.062C95.9308 54.398 96.0568 54.758 96.1048 55.142L95.6908 54.998V52.55H97.5628V62H95.6908V59.75L96.1228 59.624C96.0508 59.948 95.9008 60.266 95.6728 60.578C95.4568 60.878 95.1748 61.148 94.8268 61.388C94.4908 61.628 94.1128 61.82 93.6928 61.964C93.2848 62.108 92.8528 62.18 92.3968 62.18ZM92.8828 60.47C93.4468 60.47 93.9448 60.332 94.3768 60.056C94.8088 59.78 95.1448 59.402 95.3848 58.922C95.6368 58.43 95.7628 57.872 95.7628 57.248C95.7628 56.636 95.6368 56.09 95.3848 55.61C95.1448 55.13 94.8088 54.752 94.3768 54.476C93.9448 54.2 93.4468 54.062 92.8828 54.062C92.3308 54.062 91.8388 54.2 91.4068 54.476C90.9868 54.752 90.6508 55.13 90.3988 55.61C90.1588 56.09 90.0388 56.636 90.0388 57.248C90.0388 57.872 90.1588 58.43 90.3988 58.922C90.6508 59.402 90.9868 59.78 91.4068 60.056C91.8388 60.332 92.3308 60.47 92.8828 60.47ZM101.321 62V50.138H103.175V62H101.321ZM99.3595 54.35V52.55H105.371V54.35H99.3595ZM110.608 62.18C109.828 62.18 109.114 61.964 108.466 61.532C107.83 61.1 107.32 60.512 106.936 59.768C106.552 59.024 106.36 58.184 106.36 57.248C106.36 56.3 106.552 55.46 106.936 54.728C107.332 53.984 107.86 53.402 108.52 52.982C109.192 52.562 109.942 52.352 110.77 52.352C111.262 52.352 111.712 52.424 112.12 52.568C112.528 52.712 112.882 52.916 113.182 53.18C113.494 53.432 113.746 53.726 113.938 54.062C114.142 54.398 114.268 54.758 114.316 55.142L113.902 54.998V52.55H115.774V62H113.902V59.75L114.334 59.624C114.262 59.948 114.112 60.266 113.884 60.578C113.668 60.878 113.386 61.148 113.038 61.388C112.702 61.628 112.324 61.82 111.904 61.964C111.496 62.108 111.064 62.18 110.608 62.18ZM111.094 60.47C111.658 60.47 112.156 60.332 112.588 60.056C113.02 59.78 113.356 59.402 113.596 58.922C113.848 58.43 113.974 57.872 113.974 57.248C113.974 56.636 113.848 56.09 113.596 55.61C113.356 55.13 113.02 54.752 112.588 54.476C112.156 54.2 111.658 54.062 111.094 54.062C110.542 54.062 110.05 54.2 109.618 54.476C109.198 54.752 108.862 55.13 108.61 55.61C108.37 56.09 108.25 56.636 108.25 57.248C108.25 57.872 108.37 58.43 108.61 58.922C108.862 59.402 109.198 59.78 109.618 60.056C110.05 60.332 110.542 60.47 111.094 60.47ZM127.763 62.18C127.079 62.18 126.443 62.09 125.855 61.91C125.279 61.73 124.751 61.46 124.271 61.1C123.803 60.728 123.383 60.272 123.011 59.732L124.343 58.202C124.931 59.042 125.495 59.624 126.035 59.948C126.575 60.272 127.217 60.434 127.961 60.434C128.417 60.434 128.831 60.362 129.203 60.218C129.575 60.074 129.869 59.876 130.085 59.624C130.301 59.372 130.409 59.084 130.409 58.76C130.409 58.544 130.373 58.34 130.301 58.148C130.229 57.956 130.115 57.782 129.959 57.626C129.815 57.47 129.623 57.326 129.383 57.194C129.155 57.062 128.885 56.948 128.573 56.852C128.261 56.744 127.901 56.654 127.493 56.582C126.845 56.45 126.281 56.276 125.801 56.06C125.321 55.844 124.919 55.574 124.595 55.25C124.271 54.926 124.031 54.56 123.875 54.152C123.719 53.732 123.641 53.264 123.641 52.748C123.641 52.244 123.749 51.776 123.965 51.344C124.193 50.912 124.499 50.54 124.883 50.228C125.279 49.904 125.741 49.658 126.269 49.49C126.797 49.31 127.367 49.22 127.979 49.22C128.627 49.22 129.221 49.304 129.761 49.472C130.301 49.64 130.781 49.892 131.201 50.228C131.621 50.552 131.969 50.954 132.245 51.434L130.877 52.784C130.637 52.388 130.367 52.058 130.067 51.794C129.767 51.518 129.437 51.314 129.077 51.182C128.717 51.038 128.333 50.966 127.925 50.966C127.457 50.966 127.049 51.038 126.701 51.182C126.353 51.326 126.077 51.53 125.873 51.794C125.681 52.046 125.585 52.346 125.585 52.694C125.585 52.946 125.633 53.18 125.729 53.396C125.825 53.6 125.969 53.786 126.161 53.954C126.365 54.11 126.635 54.254 126.971 54.386C127.307 54.506 127.709 54.614 128.177 54.71C128.837 54.854 129.425 55.04 129.941 55.268C130.457 55.484 130.895 55.742 131.255 56.042C131.615 56.342 131.885 56.678 132.065 57.05C132.257 57.422 132.353 57.824 132.353 58.256C132.353 59.06 132.167 59.756 131.795 60.344C131.423 60.932 130.895 61.388 130.211 61.712C129.527 62.024 128.711 62.18 127.763 62.18ZM138.654 62.18C137.778 62.18 136.992 61.964 136.296 61.532C135.612 61.1 135.066 60.512 134.658 59.768C134.262 59.024 134.064 58.19 134.064 57.266C134.064 56.342 134.262 55.508 134.658 54.764C135.066 54.02 135.612 53.432 136.296 53C136.992 52.568 137.778 52.352 138.654 52.352C139.494 52.352 140.256 52.526 140.94 52.874C141.636 53.21 142.164 53.672 142.524 54.26L141.498 55.52C141.306 55.244 141.06 54.992 140.76 54.764C140.46 54.536 140.142 54.356 139.806 54.224C139.47 54.092 139.146 54.026 138.834 54.026C138.258 54.026 137.742 54.17 137.286 54.458C136.842 54.734 136.488 55.118 136.224 55.61C135.96 56.102 135.828 56.654 135.828 57.266C135.828 57.878 135.966 58.43 136.242 58.922C136.518 59.402 136.884 59.786 137.34 60.074C137.796 60.362 138.3 60.506 138.852 60.506C139.176 60.506 139.488 60.452 139.788 60.344C140.1 60.236 140.4 60.074 140.688 59.858C140.976 59.642 141.246 59.378 141.498 59.066L142.524 60.326C142.14 60.866 141.588 61.31 140.868 61.658C140.16 62.006 139.422 62.18 138.654 62.18ZM144.579 62V52.55H146.433V62H144.579ZM145.479 50.462C145.083 50.462 144.777 50.36 144.561 50.156C144.345 49.952 144.237 49.664 144.237 49.292C144.237 48.944 144.345 48.662 144.561 48.446C144.789 48.23 145.095 48.122 145.479 48.122C145.875 48.122 146.181 48.224 146.397 48.428C146.613 48.632 146.721 48.92 146.721 49.292C146.721 49.64 146.607 49.922 146.379 50.138C146.163 50.354 145.863 50.462 145.479 50.462ZM153.692 62.18C152.72 62.18 151.856 61.976 151.1 61.568C150.356 61.148 149.768 60.578 149.336 59.858C148.916 59.138 148.706 58.31 148.706 57.374C148.706 56.63 148.826 55.952 149.066 55.34C149.306 54.728 149.636 54.2 150.056 53.756C150.488 53.3 150.998 52.952 151.586 52.712C152.186 52.46 152.834 52.334 153.53 52.334C154.142 52.334 154.712 52.454 155.24 52.694C155.768 52.922 156.224 53.24 156.608 53.648C157.004 54.056 157.304 54.542 157.508 55.106C157.724 55.658 157.826 56.264 157.814 56.924L157.796 57.716H150.074L149.66 56.24H156.194L155.924 56.546V56.114C155.888 55.718 155.756 55.364 155.528 55.052C155.3 54.74 155.012 54.494 154.664 54.314C154.316 54.134 153.938 54.044 153.53 54.044C152.882 54.044 152.336 54.17 151.892 54.422C151.448 54.662 151.112 55.022 150.884 55.502C150.656 55.97 150.542 56.552 150.542 57.248C150.542 57.908 150.68 58.484 150.956 58.976C151.232 59.456 151.622 59.828 152.126 60.092C152.63 60.356 153.212 60.488 153.872 60.488C154.34 60.488 154.772 60.41 155.168 60.254C155.576 60.098 156.014 59.816 156.482 59.408L157.418 60.722C157.13 61.01 156.776 61.262 156.356 61.478C155.948 61.694 155.51 61.868 155.042 62C154.586 62.12 154.136 62.18 153.692 62.18ZM159.829 62V52.55H161.683V54.494L161.359 54.71C161.479 54.29 161.713 53.906 162.061 53.558C162.409 53.198 162.823 52.91 163.303 52.694C163.783 52.466 164.275 52.352 164.779 52.352C165.499 52.352 166.099 52.496 166.579 52.784C167.059 53.06 167.419 53.486 167.659 54.062C167.899 54.638 168.019 55.364 168.019 56.24V62H166.165V56.366C166.165 55.826 166.093 55.382 165.949 55.034C165.805 54.674 165.583 54.416 165.283 54.26C164.983 54.092 164.611 54.02 164.167 54.044C163.807 54.044 163.477 54.104 163.177 54.224C162.877 54.332 162.613 54.488 162.385 54.692C162.169 54.896 161.995 55.136 161.863 55.412C161.743 55.676 161.683 55.964 161.683 56.276V62H160.765C160.609 62 160.453 62 160.297 62C160.141 62 159.985 62 159.829 62ZM171.704 62V50.138H173.558V62H171.704ZM169.742 54.35V52.55H175.754V54.35H169.742ZM177.748 62V52.55H179.602V62H177.748ZM178.648 50.462C178.252 50.462 177.946 50.36 177.73 50.156C177.514 49.952 177.406 49.664 177.406 49.292C177.406 48.944 177.514 48.662 177.73 48.446C177.958 48.23 178.264 48.122 178.648 48.122C179.044 48.122 179.35 48.224 179.566 48.428C179.782 48.632 179.89 48.92 179.89 49.292C179.89 49.64 179.776 49.922 179.548 50.138C179.332 50.354 179.032 50.462 178.648 50.462ZM185.602 62.18C184.81 62.18 184.096 62.042 183.46 61.766C182.824 61.49 182.296 61.082 181.876 60.542L183.136 59.462C183.496 59.882 183.886 60.188 184.306 60.38C184.738 60.56 185.224 60.65 185.764 60.65C185.98 60.65 186.178 60.626 186.358 60.578C186.55 60.518 186.712 60.434 186.844 60.326C186.988 60.218 187.096 60.092 187.168 59.948C187.24 59.792 187.276 59.624 187.276 59.444C187.276 59.132 187.162 58.88 186.934 58.688C186.814 58.604 186.622 58.514 186.358 58.418C186.106 58.31 185.776 58.202 185.368 58.094C184.672 57.914 184.102 57.71 183.658 57.482C183.214 57.254 182.872 56.996 182.632 56.708C182.452 56.48 182.32 56.234 182.236 55.97C182.152 55.694 182.11 55.394 182.11 55.07C182.11 54.674 182.194 54.314 182.362 53.99C182.542 53.654 182.782 53.366 183.082 53.126C183.394 52.874 183.754 52.682 184.162 52.55C184.582 52.418 185.026 52.352 185.494 52.352C185.938 52.352 186.376 52.412 186.808 52.532C187.252 52.652 187.66 52.826 188.032 53.054C188.404 53.282 188.716 53.552 188.968 53.864L187.906 55.034C187.678 54.806 187.426 54.608 187.15 54.44C186.886 54.26 186.616 54.122 186.34 54.026C186.064 53.93 185.812 53.882 185.584 53.882C185.332 53.882 185.104 53.906 184.9 53.954C184.696 54.002 184.522 54.074 184.378 54.17C184.246 54.266 184.144 54.386 184.072 54.53C184 54.674 183.964 54.836 183.964 55.016C183.976 55.172 184.012 55.322 184.072 55.466C184.144 55.598 184.24 55.712 184.36 55.808C184.492 55.904 184.69 56.006 184.954 56.114C185.218 56.222 185.554 56.324 185.962 56.42C186.562 56.576 187.054 56.75 187.438 56.942C187.834 57.122 188.146 57.332 188.374 57.572C188.614 57.8 188.782 58.064 188.878 58.364C188.974 58.664 189.022 59 189.022 59.372C189.022 59.912 188.866 60.398 188.554 60.83C188.254 61.25 187.846 61.58 187.33 61.82C186.814 62.06 186.238 62.18 185.602 62.18ZM192.236 62V50.138H194.09V62H192.236ZM190.274 54.35V52.55H196.286V54.35H190.274Z" fill="#3C3842"/>
<rect y="97" width="272.767" height="36.4814" rx="18.2407" fill="url(#paint2_linear_1094_111)"/>
<path d="M20.4145 121.741V109.141H25.6525C26.3725 109.141 27.0205 109.315 27.5965 109.663C28.1845 110.011 28.6525 110.485 29.0005 111.085C29.3485 111.685 29.5225 112.357 29.5225 113.101C29.5225 113.857 29.3485 114.541 29.0005 115.153C28.6525 115.753 28.1845 116.233 27.5965 116.593C27.0205 116.953 26.3725 117.133 25.6525 117.133H22.7545V121.741H20.4145ZM22.7545 114.973H25.4905C25.7905 114.973 26.0605 114.889 26.3005 114.721C26.5525 114.553 26.7505 114.331 26.8945 114.055C27.0505 113.779 27.1285 113.467 27.1285 113.119C27.1285 112.771 27.0505 112.465 26.8945 112.201C26.7505 111.925 26.5525 111.709 26.3005 111.553C26.0605 111.385 25.7905 111.301 25.4905 111.301H22.7545V114.973ZM32.1383 125.881L34.1543 121.219L34.1723 122.695L29.4923 112.255H32.0483L34.6583 118.447C34.7423 118.603 34.8263 118.813 34.9103 119.077C34.9943 119.329 35.0663 119.581 35.1263 119.833L34.6763 119.977C34.7603 119.749 34.8503 119.509 34.9463 119.257C35.0423 118.993 35.1323 118.723 35.2163 118.447L37.4483 112.255H40.0223L36.0623 121.741L34.4423 125.881H32.1383ZM41.3493 121.741V109.843H43.5633V121.741H41.3493ZM39.4773 114.307V112.255H45.6333V114.307H39.4773ZM46.2394 121.741V108.421H48.4354V114.199L48.0214 114.415C48.1414 113.983 48.3754 113.593 48.7234 113.245C49.0714 112.885 49.4854 112.597 49.9654 112.381C50.4454 112.165 50.9374 112.057 51.4414 112.057C52.1614 112.057 52.7614 112.201 53.2414 112.489C53.7334 112.777 54.0994 113.209 54.3394 113.785C54.5914 114.361 54.7174 115.081 54.7174 115.945V121.741H52.5034V116.107C52.5034 115.627 52.4374 115.231 52.3054 114.919C52.1734 114.595 51.9694 114.361 51.6934 114.217C51.4174 114.061 51.0814 113.989 50.6854 114.001C50.3614 114.001 50.0614 114.055 49.7854 114.163C49.5214 114.259 49.2874 114.403 49.0834 114.595C48.8914 114.775 48.7354 114.985 48.6154 115.225C48.5074 115.465 48.4534 115.729 48.4534 116.017V121.741H47.3554C47.1394 121.741 46.9354 121.741 46.7434 121.741C46.5634 121.741 46.3954 121.741 46.2394 121.741ZM60.4662 121.921C59.5182 121.921 58.6722 121.711 57.9282 121.291C57.1842 120.859 56.5962 120.271 56.1642 119.527C55.7322 118.783 55.5162 117.937 55.5162 116.989C55.5162 116.041 55.7322 115.195 56.1642 114.451C56.5962 113.707 57.1842 113.125 57.9282 112.705C58.6722 112.273 59.5182 112.057 60.4662 112.057C61.4022 112.057 62.2422 112.273 62.9862 112.705C63.7302 113.125 64.3122 113.707 64.7322 114.451C65.1642 115.195 65.3802 116.041 65.3802 116.989C65.3802 117.937 65.1642 118.783 64.7322 119.527C64.3122 120.271 63.7302 120.859 62.9862 121.291C62.2422 121.711 61.4022 121.921 60.4662 121.921ZM60.4662 119.959C60.9822 119.959 61.4382 119.827 61.8342 119.563C62.2422 119.299 62.5602 118.945 62.7882 118.501C63.0282 118.057 63.1422 117.553 63.1302 116.989C63.1422 116.413 63.0282 115.903 62.7882 115.459C62.5602 115.015 62.2422 114.667 61.8342 114.415C61.4382 114.151 60.9822 114.019 60.4662 114.019C59.9502 114.019 59.4822 114.151 59.0622 114.415C58.6542 114.667 58.3362 115.021 58.1082 115.477C57.8802 115.921 57.7662 116.425 57.7662 116.989C57.7662 117.553 57.8802 118.057 58.1082 118.501C58.3362 118.945 58.6542 119.299 59.0622 119.563C59.4822 119.827 59.9502 119.959 60.4662 119.959ZM66.2806 121.741V112.255H68.4406L68.4766 114.199L68.0626 114.415C68.1826 113.983 68.4166 113.593 68.7646 113.245C69.1126 112.885 69.5266 112.597 70.0066 112.381C70.4866 112.165 70.9786 112.057 71.4826 112.057C72.2026 112.057 72.8026 112.201 73.2826 112.489C73.7746 112.777 74.1406 113.209 74.3806 113.785C74.6326 114.361 74.7586 115.081 74.7586 115.945V121.741H72.5446V116.107C72.5446 115.627 72.4786 115.231 72.3466 114.919C72.2146 114.595 72.0106 114.361 71.7346 114.217C71.4586 114.061 71.1226 113.989 70.7266 114.001C70.4026 114.001 70.1026 114.055 69.8266 114.163C69.5626 114.259 69.3286 114.403 69.1246 114.595C68.9326 114.775 68.7766 114.985 68.6566 115.225C68.5486 115.465 68.4946 115.729 68.4946 116.017V121.741H67.3966C67.1806 121.741 66.9766 121.741 66.7846 121.741C66.6046 121.741 66.4366 121.741 66.2806 121.741ZM80.3984 125.215V108.421H82.4864V125.215H80.3984ZM92.6143 121.921C91.8823 121.921 91.2103 121.831 90.5983 121.651C89.9863 121.459 89.4343 121.177 88.9423 120.805C88.4503 120.433 88.0123 119.983 87.6283 119.455L89.1583 117.727C89.7463 118.543 90.3223 119.107 90.8863 119.419C91.4503 119.731 92.0863 119.887 92.7943 119.887C93.2023 119.887 93.5743 119.827 93.9103 119.707C94.2463 119.575 94.5103 119.401 94.7023 119.185C94.8943 118.957 94.9903 118.699 94.9903 118.411C94.9903 118.207 94.9483 118.021 94.8643 117.853C94.7923 117.673 94.6783 117.517 94.5223 117.385C94.3663 117.241 94.1743 117.109 93.9463 116.989C93.7183 116.869 93.4603 116.767 93.1723 116.683C92.8843 116.599 92.5663 116.521 92.2183 116.449C91.5583 116.317 90.9823 116.143 90.4903 115.927C89.9983 115.699 89.5843 115.423 89.2483 115.099C88.9123 114.763 88.6663 114.391 88.5103 113.983C88.3543 113.563 88.2763 113.089 88.2763 112.561C88.2763 112.033 88.3903 111.547 88.6183 111.103C88.8583 110.659 89.1823 110.275 89.5903 109.951C89.9983 109.627 90.4723 109.375 91.0123 109.195C91.5523 109.015 92.1343 108.925 92.7583 108.925C93.4663 108.925 94.0963 109.009 94.6483 109.177C95.2123 109.345 95.7043 109.597 96.1243 109.933C96.5563 110.257 96.9103 110.653 97.1863 111.121L95.6383 112.651C95.3983 112.279 95.1283 111.973 94.8283 111.733C94.5283 111.481 94.2043 111.295 93.8563 111.175C93.5083 111.043 93.1423 110.977 92.7583 110.977C92.3263 110.977 91.9483 111.037 91.6243 111.157C91.3123 111.277 91.0663 111.451 90.8863 111.679C90.7063 111.895 90.6163 112.159 90.6163 112.471C90.6163 112.711 90.6703 112.927 90.7783 113.119C90.8863 113.299 91.0363 113.461 91.2283 113.605C91.4323 113.749 91.6903 113.875 92.0023 113.983C92.3143 114.091 92.6683 114.187 93.0643 114.271C93.7243 114.403 94.3183 114.583 94.8463 114.811C95.3743 115.027 95.8243 115.291 96.1963 115.603C96.5683 115.903 96.8503 116.251 97.0423 116.647C97.2343 117.031 97.3303 117.463 97.3303 117.943C97.3303 118.771 97.1323 119.485 96.7363 120.085C96.3523 120.673 95.8063 121.129 95.0983 121.453C94.3903 121.765 93.5623 121.921 92.6143 121.921ZM102.495 121.921C101.607 121.921 100.809 121.705 100.101 121.273C99.3935 120.841 98.8355 120.253 98.4275 119.509C98.0195 118.765 97.8155 117.925 97.8155 116.989C97.8155 116.053 98.0195 115.213 98.4275 114.469C98.8355 113.725 99.3935 113.137 100.101 112.705C100.809 112.273 101.607 112.057 102.495 112.057C103.347 112.057 104.121 112.219 104.817 112.543C105.513 112.867 106.053 113.317 106.437 113.893L105.213 115.369C105.033 115.117 104.805 114.889 104.529 114.685C104.253 114.481 103.959 114.319 103.647 114.199C103.335 114.079 103.023 114.019 102.711 114.019C102.183 114.019 101.709 114.151 101.289 114.415C100.881 114.667 100.557 115.021 100.317 115.477C100.077 115.921 99.9575 116.425 99.9575 116.989C99.9575 117.553 100.077 118.057 100.317 118.501C100.569 118.945 100.905 119.299 101.325 119.563C101.745 119.827 102.213 119.959 102.729 119.959C103.041 119.959 103.341 119.911 103.629 119.815C103.929 119.707 104.211 119.557 104.475 119.365C104.739 119.173 104.985 118.933 105.213 118.645L106.437 120.139C106.029 120.667 105.465 121.099 104.745 121.435C104.037 121.759 103.287 121.921 102.495 121.921ZM107.303 121.741V112.255H109.517V121.741H107.303ZM108.383 110.239C107.939 110.239 107.591 110.131 107.339 109.915C107.099 109.687 106.979 109.369 106.979 108.961C106.979 108.577 107.105 108.265 107.357 108.025C107.609 107.785 107.951 107.665 108.383 107.665C108.839 107.665 109.187 107.779 109.427 108.007C109.679 108.223 109.805 108.541 109.805 108.961C109.805 109.333 109.679 109.639 109.427 109.879C109.175 110.119 108.827 110.239 108.383 110.239ZM113.314 118.843L112.882 116.773L117.382 112.255H120.334L113.314 118.843ZM111.244 121.741V108.421H113.458V121.741H111.244ZM117.652 121.741L114.16 117.511L115.726 116.179L120.388 121.741H117.652ZM121.016 121.741V112.255H123.23V121.741H121.016ZM122.096 110.239C121.652 110.239 121.304 110.131 121.052 109.915C120.812 109.687 120.692 109.369 120.692 108.961C120.692 108.577 120.818 108.265 121.07 108.025C121.322 107.785 121.664 107.665 122.096 107.665C122.552 107.665 122.9 107.779 123.14 108.007C123.392 108.223 123.518 108.541 123.518 108.961C123.518 109.333 123.392 109.639 123.14 109.879C122.888 110.119 122.54 110.239 122.096 110.239ZM125.983 121.741V109.843H128.197V121.741H125.983ZM124.111 114.307V112.255H130.267V114.307H124.111ZM130.513 117.655V115.531H136.075V117.655H130.513ZM137.625 121.741V109.141H139.965V119.581H145.779V121.741H137.625ZM151.071 121.921C150.075 121.921 149.193 121.711 148.425 121.291C147.669 120.871 147.075 120.301 146.643 119.581C146.223 118.849 146.013 118.015 146.013 117.079C146.013 116.335 146.133 115.657 146.373 115.045C146.613 114.433 146.943 113.905 147.363 113.461C147.795 113.005 148.305 112.657 148.893 112.417C149.493 112.165 150.147 112.039 150.855 112.039C151.479 112.039 152.061 112.159 152.601 112.399C153.141 112.639 153.609 112.969 154.005 113.389C154.401 113.797 154.701 114.289 154.905 114.865C155.121 115.429 155.223 116.047 155.211 116.719L155.193 117.493H147.507L147.093 115.981H153.339L153.051 116.287V115.891C153.015 115.519 152.895 115.195 152.691 114.919C152.487 114.631 152.223 114.409 151.899 114.253C151.587 114.085 151.239 114.001 150.855 114.001C150.267 114.001 149.769 114.115 149.361 114.343C148.965 114.571 148.665 114.901 148.461 115.333C148.257 115.753 148.155 116.281 148.155 116.917C148.155 117.529 148.281 118.063 148.533 118.519C148.797 118.975 149.163 119.329 149.631 119.581C150.111 119.821 150.669 119.941 151.305 119.941C151.749 119.941 152.157 119.869 152.529 119.725C152.901 119.581 153.303 119.323 153.735 118.951L154.833 120.481C154.509 120.781 154.137 121.039 153.717 121.255C153.309 121.459 152.877 121.621 152.421 121.741C151.965 121.861 151.515 121.921 151.071 121.921ZM159.674 121.921C158.894 121.921 158.186 121.705 157.55 121.273C156.914 120.841 156.404 120.253 156.02 119.509C155.636 118.765 155.444 117.919 155.444 116.971C155.444 116.023 155.636 115.177 156.02 114.433C156.404 113.689 156.926 113.107 157.586 112.687C158.246 112.267 158.99 112.057 159.818 112.057C160.298 112.057 160.736 112.129 161.132 112.273C161.528 112.405 161.876 112.597 162.176 112.849C162.476 113.101 162.722 113.389 162.914 113.713C163.118 114.037 163.256 114.385 163.328 114.757L162.842 114.631V112.255H165.074V121.741H162.824V119.473L163.346 119.383C163.262 119.707 163.106 120.025 162.878 120.337C162.662 120.637 162.386 120.907 162.05 121.147C161.726 121.375 161.36 121.561 160.952 121.705C160.556 121.849 160.13 121.921 159.674 121.921ZM160.286 119.959C160.802 119.959 161.258 119.833 161.654 119.581C162.05 119.329 162.356 118.981 162.572 118.537C162.8 118.081 162.914 117.559 162.914 116.971C162.914 116.395 162.8 115.885 162.572 115.441C162.356 114.997 162.05 114.649 161.654 114.397C161.258 114.145 160.802 114.019 160.286 114.019C159.77 114.019 159.314 114.145 158.918 114.397C158.534 114.649 158.234 114.997 158.018 115.441C157.802 115.885 157.694 116.395 157.694 116.971C157.694 117.559 157.802 118.081 158.018 118.537C158.234 118.981 158.534 119.329 158.918 119.581C159.314 119.833 159.77 119.959 160.286 119.959ZM166.561 121.741V112.255H168.739L168.775 115.279L168.469 114.595C168.601 114.115 168.829 113.683 169.153 113.299C169.477 112.915 169.849 112.615 170.269 112.399C170.701 112.171 171.151 112.057 171.619 112.057C171.823 112.057 172.015 112.075 172.195 112.111C172.387 112.147 172.543 112.189 172.663 112.237L172.069 114.667C171.937 114.595 171.775 114.535 171.583 114.487C171.391 114.439 171.199 114.415 171.007 114.415C170.707 114.415 170.419 114.475 170.143 114.595C169.879 114.703 169.645 114.859 169.441 115.063C169.237 115.267 169.075 115.507 168.955 115.783C168.847 116.047 168.793 116.347 168.793 116.683V121.741H166.561ZM173.057 121.741V112.255H175.217L175.253 114.199L174.839 114.415C174.959 113.983 175.193 113.593 175.541 113.245C175.889 112.885 176.303 112.597 176.783 112.381C177.263 112.165 177.755 112.057 178.259 112.057C178.979 112.057 179.579 112.201 180.059 112.489C180.551 112.777 180.917 113.209 181.157 113.785C181.409 114.361 181.535 115.081 181.535 115.945V121.741H179.321V116.107C179.321 115.627 179.255 115.231 179.123 114.919C178.991 114.595 178.787 114.361 178.511 114.217C178.235 114.061 177.899 113.989 177.503 114.001C177.179 114.001 176.879 114.055 176.603 114.163C176.339 114.259 176.105 114.403 175.901 114.595C175.709 114.775 175.553 114.985 175.433 115.225C175.325 115.465 175.271 115.729 175.271 116.017V121.741H174.173C173.957 121.741 173.753 121.741 173.561 121.741C173.381 121.741 173.213 121.741 173.057 121.741ZM187.175 125.215V108.421H189.263V125.215H187.175ZM195.395 121.741V109.141H200.633C201.353 109.141 202.001 109.315 202.577 109.663C203.165 110.011 203.633 110.485 203.981 111.085C204.329 111.685 204.503 112.357 204.503 113.101C204.503 113.857 204.329 114.541 203.981 115.153C203.633 115.753 203.165 116.233 202.577 116.593C202.001 116.953 201.353 117.133 200.633 117.133H197.735V121.741H195.395ZM197.735 114.973H200.471C200.771 114.973 201.041 114.889 201.281 114.721C201.533 114.553 201.731 114.331 201.875 114.055C202.031 113.779 202.109 113.467 202.109 113.119C202.109 112.771 202.031 112.465 201.875 112.201C201.731 111.925 201.533 111.709 201.281 111.553C201.041 111.385 200.771 111.301 200.471 111.301H197.735V114.973ZM208.909 121.921C208.129 121.921 207.421 121.705 206.785 121.273C206.149 120.841 205.639 120.253 205.255 119.509C204.871 118.765 204.679 117.919 204.679 116.971C204.679 116.023 204.871 115.177 205.255 114.433C205.639 113.689 206.161 113.107 206.821 112.687C207.481 112.267 208.225 112.057 209.053 112.057C209.533 112.057 209.971 112.129 210.367 112.273C210.763 112.405 211.111 112.597 211.411 112.849C211.711 113.101 211.957 113.389 212.149 113.713C212.353 114.037 212.491 114.385 212.563 114.757L212.077 114.631V112.255H214.309V121.741H212.059V119.473L212.581 119.383C212.497 119.707 212.341 120.025 212.113 120.337C211.897 120.637 211.621 120.907 211.285 121.147C210.961 121.375 210.595 121.561 210.187 121.705C209.791 121.849 209.365 121.921 208.909 121.921ZM209.521 119.959C210.037 119.959 210.493 119.833 210.889 119.581C211.285 119.329 211.591 118.981 211.807 118.537C212.035 118.081 212.149 117.559 212.149 116.971C212.149 116.395 212.035 115.885 211.807 115.441C211.591 114.997 211.285 114.649 210.889 114.397C210.493 114.145 210.037 114.019 209.521 114.019C209.005 114.019 208.549 114.145 208.153 114.397C207.769 114.649 207.469 114.997 207.253 115.441C207.037 115.885 206.929 116.395 206.929 116.971C206.929 117.559 207.037 118.081 207.253 118.537C207.469 118.981 207.769 119.329 208.153 119.581C208.549 119.833 209.005 119.959 209.521 119.959ZM215.796 121.741V112.255H217.956L217.992 114.199L217.578 114.415C217.698 113.983 217.932 113.593 218.28 113.245C218.628 112.885 219.042 112.597 219.522 112.381C220.002 112.165 220.494 112.057 220.998 112.057C221.718 112.057 222.318 112.201 222.798 112.489C223.29 112.777 223.656 113.209 223.896 113.785C224.148 114.361 224.274 115.081 224.274 115.945V121.741H222.06V116.107C222.06 115.627 221.994 115.231 221.862 114.919C221.73 114.595 221.526 114.361 221.25 114.217C220.974 114.061 220.638 113.989 220.242 114.001C219.918 114.001 219.618 114.055 219.342 114.163C219.078 114.259 218.844 114.403 218.64 114.595C218.448 114.775 218.292 114.985 218.172 115.225C218.064 115.465 218.01 115.729 218.01 116.017V121.741H216.912C216.696 121.741 216.492 121.741 216.3 121.741C216.12 121.741 215.952 121.741 215.796 121.741ZM229.501 121.921C228.661 121.921 227.905 121.711 227.233 121.291C226.573 120.859 226.045 120.277 225.649 119.545C225.265 118.801 225.073 117.949 225.073 116.989C225.073 116.041 225.265 115.195 225.649 114.451C226.033 113.707 226.555 113.125 227.215 112.705C227.887 112.273 228.643 112.057 229.483 112.057C229.939 112.057 230.377 112.129 230.797 112.273C231.229 112.417 231.613 112.615 231.949 112.867C232.285 113.107 232.549 113.377 232.741 113.677C232.945 113.977 233.059 114.289 233.083 114.613L232.489 114.685V108.421H234.703V121.741H232.561L232.507 119.509L232.939 119.545C232.927 119.845 232.819 120.133 232.615 120.409C232.423 120.685 232.171 120.937 231.859 121.165C231.547 121.393 231.181 121.579 230.761 121.723C230.353 121.855 229.933 121.921 229.501 121.921ZM229.933 120.049C230.449 120.049 230.905 119.917 231.301 119.653C231.697 119.389 232.003 119.029 232.219 118.573C232.447 118.117 232.561 117.589 232.561 116.989C232.561 116.401 232.447 115.879 232.219 115.423C232.003 114.955 231.697 114.595 231.301 114.343C230.905 114.079 230.449 113.947 229.933 113.947C229.417 113.947 228.961 114.079 228.565 114.343C228.169 114.595 227.857 114.955 227.629 115.423C227.413 115.879 227.305 116.401 227.305 116.989C227.305 117.589 227.413 118.117 227.629 118.573C227.857 119.029 228.169 119.389 228.565 119.653C228.961 119.917 229.417 120.049 229.933 120.049ZM239.718 121.921C238.938 121.921 238.23 121.705 237.594 121.273C236.958 120.841 236.448 120.253 236.064 119.509C235.68 118.765 235.488 117.919 235.488 116.971C235.488 116.023 235.68 115.177 236.064 114.433C236.448 113.689 236.97 113.107 237.63 112.687C238.29 112.267 239.034 112.057 239.862 112.057C240.342 112.057 240.78 112.129 241.176 112.273C241.572 112.405 241.92 112.597 242.22 112.849C242.52 113.101 242.766 113.389 242.958 113.713C243.162 114.037 243.3 114.385 243.372 114.757L242.886 114.631V112.255H245.118V121.741H242.868V119.473L243.39 119.383C243.306 119.707 243.15 120.025 242.922 120.337C242.706 120.637 242.43 120.907 242.094 121.147C241.77 121.375 241.404 121.561 240.996 121.705C240.6 121.849 240.174 121.921 239.718 121.921ZM240.33 119.959C240.846 119.959 241.302 119.833 241.698 119.581C242.094 119.329 242.4 118.981 242.616 118.537C242.844 118.081 242.958 117.559 242.958 116.971C242.958 116.395 242.844 115.885 242.616 115.441C242.4 114.997 242.094 114.649 241.698 114.397C241.302 114.145 240.846 114.019 240.33 114.019C239.814 114.019 239.358 114.145 238.962 114.397C238.578 114.649 238.278 114.997 238.062 115.441C237.846 115.885 237.738 116.395 237.738 116.971C237.738 117.559 237.846 118.081 238.062 118.537C238.278 118.981 238.578 119.329 238.962 119.581C239.358 119.833 239.814 119.959 240.33 119.959ZM249.773 121.921C248.933 121.921 248.177 121.783 247.505 121.507C246.845 121.219 246.305 120.811 245.885 120.283L247.325 119.041C247.685 119.449 248.087 119.743 248.531 119.923C248.975 120.103 249.443 120.193 249.935 120.193C250.139 120.193 250.319 120.169 250.475 120.121C250.643 120.073 250.787 120.001 250.907 119.905C251.027 119.809 251.117 119.701 251.177 119.581C251.249 119.449 251.285 119.305 251.285 119.149C251.285 118.861 251.177 118.633 250.961 118.465C250.841 118.381 250.649 118.291 250.385 118.195C250.133 118.099 249.803 118.003 249.395 117.907C248.747 117.739 248.207 117.547 247.775 117.331C247.343 117.103 247.007 116.851 246.767 116.575C246.563 116.347 246.407 116.089 246.299 115.801C246.203 115.513 246.155 115.201 246.155 114.865C246.155 114.445 246.245 114.067 246.425 113.731C246.617 113.383 246.875 113.083 247.199 112.831C247.523 112.579 247.901 112.387 248.333 112.255C248.765 112.123 249.215 112.057 249.683 112.057C250.163 112.057 250.625 112.117 251.069 112.237C251.525 112.357 251.945 112.531 252.329 112.759C252.725 112.975 253.061 113.239 253.337 113.551L252.113 114.901C251.885 114.685 251.633 114.493 251.357 114.325C251.093 114.157 250.823 114.025 250.547 113.929C250.271 113.821 250.013 113.767 249.773 113.767C249.545 113.767 249.341 113.791 249.161 113.839C248.981 113.875 248.831 113.935 248.711 114.019C248.591 114.103 248.495 114.211 248.423 114.343C248.363 114.463 248.333 114.607 248.333 114.775C248.345 114.919 248.381 115.057 248.441 115.189C248.513 115.309 248.609 115.411 248.729 115.495C248.861 115.579 249.059 115.675 249.323 115.783C249.587 115.891 249.929 115.993 250.349 116.089C250.937 116.245 251.429 116.419 251.825 116.611C252.221 116.803 252.533 117.025 252.761 117.277C252.989 117.493 253.151 117.745 253.247 118.033C253.343 118.321 253.391 118.639 253.391 118.987C253.391 119.551 253.229 120.055 252.905 120.499C252.593 120.943 252.161 121.291 251.609 121.543C251.069 121.795 250.457 121.921 249.773 121.921Z" fill="white" fill-opacity="0.76"/>
<defs>
<radialGradient id="paint0_radial_1094_111" cx="0" cy="0" r="1" gradientUnits="userSpaceOnUse" gradientTransform="translate(187.879 55.5) rotate(39.8693) scale(335.822 118.681)">
<stop stop-color="white" stop-opacity="0.74"/>
<stop offset="0.585" stop-color="white" stop-opacity="0.91"/>
</radialGradient>
<linearGradient id="paint1_linear_1094_111" x1="109.4" y1="-18.5915" x2="187.318" y2="93.7423" gradientUnits="userSpaceOnUse">
<stop stop-color="#C3A0F9" stop-opacity="0.4"/>
<stop offset="1" stop-color="white" stop-opacity="0"/>
</linearGradient>
<linearGradient id="paint2_linear_1094_111" x1="0" y1="115.241" x2="272.767" y2="115.241" gradientUnits="userSpaceOnUse">
<stop stop-color="#9D78F1"/>
<stop offset="0.283654" stop-color="#8886F2"/>
<stop offset="0.875" stop-color="#6C9AF5"/>
<stop offset="1" stop-color="#21ADFE"/>
</linearGradient>
</defs>
</svg>
