<svg width="444" height="107" viewBox="0 0 444 107" fill="none" xmlns="http://www.w3.org/2000/svg">
<circle cx="53.0629" cy="53.6157" r="53.0629" fill="#162132"/>
<circle cx="53.0629" cy="53.6157" r="53.0629" fill="url(#paint0_linear_1126_293)"/>
<path fill-rule="evenodd" clip-rule="evenodd" d="M35.5664 37.0752V51.9902H30.5947V35.3542C30.5947 33.5589 32.0501 32.1035 33.8454 32.1035H72.2802C74.0755 32.1035 75.5309 33.5589 75.5309 35.3542V51.9902H70.5592V37.0752H35.5664Z" fill="#36FF8F"/>
<path fill-rule="evenodd" clip-rule="evenodd" d="M35.5664 69.9649V55.0499H30.5947V71.6858C30.5947 73.4811 32.0501 74.9365 33.8454 74.9365H72.2802C74.0755 74.9365 75.5309 73.4811 75.5309 71.6858V55.0499H70.5592V69.9649H35.5664Z" fill="#21ADFE"/>
<path d="M51.0552 3.6123C38.5232 4.11546 26.6084 9.31454 17.7052 18.2177C8.32778 27.5952 3.05957 40.3137 3.05957 53.5755C3.05957 66.8372 8.32778 79.5558 17.7052 88.9333C26.6084 97.8364 38.5232 103.035 51.0552 103.539V95.8865C40.5518 95.3885 30.5803 90.9968 23.111 83.5275C15.1672 75.5837 10.7045 64.8097 10.7045 53.5755C10.7045 42.3413 15.1672 31.5672 23.111 23.6235C30.5803 16.1542 40.5518 11.7625 51.0552 11.2645V3.6123Z" fill="url(#paint1_linear_1126_293)"/>
<path d="M55.0707 3.6123C67.6027 4.11546 79.5176 9.31454 88.4207 18.2177C97.7982 27.5952 103.066 40.3137 103.066 53.5755C103.066 66.8372 97.7982 79.5558 88.4207 88.9333C79.5176 97.8364 67.6027 103.035 55.0707 103.539V95.8865C65.5742 95.3885 75.5457 90.9968 83.015 83.5275C90.9587 75.5837 95.4215 64.8097 95.4215 53.5755C95.4215 42.3413 90.9587 31.5672 83.015 23.6235C75.5457 16.1542 65.5742 11.7625 55.0707 11.2645V3.6123Z" fill="url(#paint2_linear_1126_293)"/>
<path d="M41.5589 59.3015H45.1015C45.1666 59.3015 45.2193 59.3542 45.2193 59.4192V64.7621C45.2193 64.8272 45.2721 64.8799 45.3371 64.8799H52.4341C52.4992 64.8799 52.5519 64.8272 52.5519 64.7621V59.4192C52.5519 59.3542 52.6046 59.3015 52.6697 59.3015H56.2568C56.3574 59.3015 56.4117 59.1835 56.3463 59.1071L49.0045 50.5273C48.9575 50.4724 48.8726 50.4724 48.8256 50.5273L41.4695 59.107C41.404 59.1834 41.4582 59.3015 41.5589 59.3015Z" fill="#36FF8F"/>
<path d="M50.0687 47.8167H53.6113C53.6764 47.8167 53.7291 47.764 53.7291 47.6989V42.356C53.7291 42.291 53.7818 42.2382 53.8469 42.2382H60.9439C61.0089 42.2382 61.0617 42.291 61.0617 42.356V47.6989C61.0617 47.764 61.1144 47.8167 61.1795 47.8167H64.7666C64.8672 47.8167 64.9215 47.9347 64.8561 48.0111L57.5142 56.5908C57.4673 56.6457 57.3824 56.6458 57.3353 56.5909L49.9792 48.0112C49.9137 47.9348 49.968 47.8167 50.0687 47.8167Z" fill="#21ADFE"/>
<path d="M133.47 74.7521C130.024 74.7521 126.948 73.9886 124.243 72.4617C121.582 70.8911 119.488 68.7752 117.961 66.114C116.434 63.4091 115.671 60.3553 115.671 56.9524C115.671 53.5059 116.434 50.4521 117.961 47.7908C119.532 45.086 121.669 42.9701 124.374 41.4432C127.079 39.9162 130.155 39.1528 133.601 39.1528C135.608 39.1528 137.484 39.4145 139.229 39.938C141.018 40.4616 142.61 41.2032 144.006 42.163C145.446 43.0792 146.624 44.148 147.54 45.3696C148.456 46.5911 149.067 47.8781 149.372 49.2305L147.802 48.707V25.6722H152.71V74.0977H147.867L147.736 65.1324L149.045 64.8052C148.783 66.114 148.172 67.3574 147.213 68.5353C146.296 69.7132 145.14 70.782 143.744 71.7418C142.348 72.658 140.756 73.3996 138.967 73.9668C137.222 74.4903 135.39 74.7521 133.47 74.7521ZM134.321 70.1713C136.982 70.1713 139.338 69.6041 141.388 68.4698C143.483 67.2919 145.119 65.7214 146.296 63.7582C147.474 61.7513 148.063 59.4609 148.063 56.887C148.063 54.4003 147.474 52.1753 146.296 50.2121C145.162 48.2053 143.548 46.6347 141.454 45.5004C139.403 44.3661 137.026 43.799 134.321 43.799C131.703 43.799 129.369 44.3661 127.319 45.5004C125.312 46.6347 123.72 48.1835 122.542 50.1467C121.364 52.1099 120.775 54.3566 120.775 56.887C120.775 59.4173 121.364 61.6859 122.542 63.6927C123.72 65.6995 125.312 67.2919 127.319 68.4698C129.369 69.6041 131.703 70.1713 134.321 70.1713ZM179.006 74.7521C175.516 74.7521 172.418 73.9886 169.713 72.4617C167.052 70.9347 164.958 68.8407 163.431 66.1794C161.948 63.4746 161.206 60.3989 161.206 56.9524C161.206 53.5059 161.991 50.4521 163.562 47.7908C165.132 45.086 167.27 42.9701 169.975 41.4432C172.68 39.9162 175.755 39.1528 179.202 39.1528C181.34 39.1528 183.303 39.4363 185.092 40.0035C186.924 40.5706 188.516 41.3559 189.869 42.3593C191.265 43.3627 192.399 44.497 193.272 45.7622C194.144 46.9837 194.689 48.2489 194.908 49.5577L193.337 49.0996L193.533 39.938H198.376V74.0977H193.468V65.1978L194.777 64.478C194.515 65.7868 193.926 67.052 193.01 68.2735C192.094 69.4951 190.916 70.6075 189.476 71.6109C188.036 72.5707 186.422 73.3342 184.633 73.9013C182.845 74.4685 180.969 74.7521 179.006 74.7521ZM180.053 70.0404C182.67 70.0404 185.004 69.4951 187.055 68.4044C189.149 67.2701 190.785 65.7214 191.963 63.7582C193.141 61.7513 193.73 59.4828 193.73 56.9524C193.73 54.4657 193.141 52.2407 191.963 50.2775C190.785 48.3144 189.149 46.7438 187.055 45.5659C185.004 44.388 182.67 43.799 180.053 43.799C177.348 43.799 174.97 44.388 172.92 45.5659C170.869 46.7438 169.255 48.3144 168.077 50.2775C166.899 52.2407 166.31 54.4657 166.31 56.9524C166.31 59.4828 166.877 61.7295 168.012 63.6927C169.146 65.6559 170.738 67.2047 172.789 68.3389C174.883 69.4732 177.304 70.0404 180.053 70.0404ZM216.226 74.0977V30.1875H221.199V74.0977H216.226ZM206.868 44.6497V39.938H231.8V44.6497H206.868ZM254.359 74.7521C250.869 74.7521 247.771 73.9886 245.066 72.4617C242.405 70.9347 240.311 68.8407 238.784 66.1794C237.301 63.4746 236.559 60.3989 236.559 56.9524C236.559 53.5059 237.344 50.4521 238.915 47.7908C240.485 45.086 242.623 42.9701 245.328 41.4432C248.033 39.9162 251.108 39.1528 254.555 39.1528C256.693 39.1528 258.656 39.4363 260.445 40.0035C262.277 40.5706 263.869 41.3559 265.222 42.3593C266.618 43.3627 267.752 44.497 268.625 45.7622C269.497 46.9837 270.042 48.2489 270.261 49.5577L268.69 49.0996L268.886 39.938H273.729V74.0977H268.821V65.1978L270.13 64.478C269.868 65.7868 269.279 67.052 268.363 68.2735C267.447 69.4951 266.269 70.6075 264.829 71.6109C263.389 72.5707 261.775 73.3342 259.986 73.9013C258.198 74.4685 256.322 74.7521 254.359 74.7521ZM255.406 70.0404C258.023 70.0404 260.357 69.4951 262.408 68.4044C264.502 67.2701 266.138 65.7214 267.316 63.7582C268.494 61.7513 269.083 59.4828 269.083 56.9524C269.083 54.4657 268.494 52.2407 267.316 50.2775C266.138 48.3144 264.502 46.7438 262.408 45.5659C260.357 44.388 258.023 43.799 255.406 43.799C252.701 43.799 250.323 44.388 248.273 45.5659C246.222 46.7438 244.608 48.3144 243.43 50.2775C242.252 52.2407 241.663 54.4657 241.663 56.9524C241.663 59.4828 242.23 61.7295 243.365 63.6927C244.499 65.6559 246.091 67.2047 248.142 68.3389C250.236 69.4732 252.657 70.0404 255.406 70.0404ZM286.082 74.0977V28.2898H308.724C311.516 28.2898 314.046 28.9442 316.315 30.253C318.627 31.5181 320.459 33.2632 321.812 35.4881C323.164 37.7131 323.84 40.2216 323.84 43.0137C323.84 45.8931 323.142 48.4889 321.746 50.8011C320.35 53.1133 318.453 54.9456 316.053 56.298C313.697 57.6504 311.08 58.3266 308.2 58.3266H295.898V74.0977H286.082ZM295.767 49.4923H306.892C308.113 49.4923 309.226 49.2087 310.229 48.6415C311.276 48.0744 312.105 47.3109 312.716 46.3512C313.326 45.3914 313.632 44.3007 313.632 43.0792C313.632 41.9012 313.326 40.876 312.716 40.0035C312.105 39.0873 311.276 38.3893 310.229 37.9094C309.226 37.3859 308.113 37.1241 306.892 37.1241H295.767V49.4923ZM333.346 74.0977V25.6722H342.638V74.0977H333.346ZM368.207 74.7521C364.804 74.7521 361.794 73.9886 359.176 72.4617C356.602 70.8911 354.573 68.7534 353.09 66.0486C351.65 63.3437 350.931 60.2244 350.931 56.6907C350.931 53.2005 351.672 50.1249 353.155 47.4636C354.682 44.7588 356.755 42.6429 359.372 41.116C362.033 39.5454 365.087 38.7601 368.534 38.7601C370.541 38.7601 372.395 39.0219 374.096 39.5454C375.798 40.0689 377.281 40.7888 378.546 41.7049C379.811 42.5775 380.837 43.5591 381.622 44.6497C382.451 45.6968 382.974 46.8092 383.192 47.9872L381.098 47.9217V39.48H390.26V74.0977H380.967V65.2633L382.931 65.4596C382.669 66.5939 382.123 67.7064 381.295 68.797C380.466 69.8877 379.375 70.8911 378.023 71.8073C376.714 72.6798 375.209 73.3996 373.507 73.9668C371.849 74.4903 370.083 74.7521 368.207 74.7521ZM370.693 66.703C372.787 66.703 374.62 66.2885 376.19 65.4596C377.804 64.6307 379.048 63.4746 379.92 61.9913C380.793 60.4644 381.229 58.6975 381.229 56.6907C381.229 54.7711 380.793 53.0696 379.92 51.5863C379.048 50.103 377.804 48.9251 376.19 48.0526C374.62 47.1801 372.787 46.7438 370.693 46.7438C368.599 46.7438 366.767 47.1801 365.196 48.0526C363.626 48.9251 362.382 50.103 361.466 51.5863C360.594 53.0696 360.158 54.7711 360.158 56.6907C360.158 58.6975 360.594 60.4644 361.466 61.9913C362.382 63.4746 363.626 64.6307 365.196 65.4596C366.767 66.2885 368.599 66.703 370.693 66.703ZM406.639 89.1488L415.277 71.3492L415.212 76.6498L396.496 39.48H407.228L416.324 58.981C416.979 60.2898 417.568 61.5986 418.091 62.9074C418.658 64.2162 419.095 65.4814 419.4 66.703L417.633 67.161C418.026 66.114 418.506 64.9143 419.073 63.5618C419.64 62.1658 420.229 60.7479 420.84 59.3082L429.151 39.48H439.817L423.065 74.2285L416.128 89.1488H406.639Z" fill="url(#paint3_linear_1126_293)"/>
<defs>
<linearGradient id="paint0_linear_1126_293" x1="63.4843" y1="-15.0315" x2="53.0629" y2="106.679" gradientUnits="userSpaceOnUse">
<stop stop-color="#223450"/>
<stop offset="1" stop-color="#162132"/>
</linearGradient>
<linearGradient id="paint1_linear_1126_293" x1="41.4944" y1="1.60452" x2="17.3053" y2="101.42" gradientUnits="userSpaceOnUse">
<stop offset="0.215" stop-color="#36FF8F"/>
<stop offset="1" stop-color="#22D08A"/>
</linearGradient>
<linearGradient id="paint2_linear_1126_293" x1="81.9368" y1="3.6123" x2="55.0707" y2="110.981" gradientUnits="userSpaceOnUse">
<stop offset="0.205" stop-color="#21ADFE"/>
<stop offset="1" stop-color="#1667D1"/>
</linearGradient>
<linearGradient id="paint3_linear_1126_293" x1="111.155" y1="49.0977" x2="443.155" y2="49.0977" gradientUnits="userSpaceOnUse">
<stop stop-color="#36FF8F"/>
<stop offset="0.53" stop-color="#2BD5C8"/>
<stop offset="1" stop-color="#21ADFE"/>
</linearGradient>
</defs>
</svg>
