<svg width="154" height="41" viewBox="0 0 154 41" fill="none" xmlns="http://www.w3.org/2000/svg">
<path d="M7.64054 35.4739C5.1892 35.4739 3.29498 34.5851 1.95789 32.8074C0.65263 31.0298 0 28.7442 0 25.9507C0 23.2525 0.493452 20.7923 1.48035 18.5702C2.46726 16.3164 3.80435 14.5546 5.49164 13.2849C7.17893 11.9834 9.02539 11.3326 11.031 11.3326C13.3232 11.3326 15.1856 12.0151 16.6182 13.3801H16.7614L18.3851 0H25.5958L21.2503 35.0454H14.0872L14.517 31.617L14.3738 31.5694C12.5273 34.1724 10.2829 35.4739 7.64054 35.4739ZM9.88495 29.141C10.7445 29.141 11.6041 28.7918 12.4636 28.0934C13.3232 27.3633 14.0713 26.3158 14.708 24.9508C15.3766 23.554 15.8541 21.9192 16.1406 20.0463L16.2361 19.3797C15.2174 18.2687 13.8962 17.7131 12.2726 17.7131C11.2857 17.7131 10.3943 18.1099 9.59843 18.9035C8.83438 19.6654 8.24542 20.6495 7.83155 21.8557C7.41769 23.0303 7.21076 24.2207 7.21076 25.4269C7.21076 26.538 7.44953 27.4427 7.92706 28.141C8.43643 28.8077 9.08906 29.141 9.88495 29.141Z" fill="#905D3A"/>
<path d="M45.3109 17.6655C45.3109 20.3955 44.0056 22.4747 41.3951 23.9032C38.8164 25.3 35.5214 26.2047 31.5101 26.6173C31.7012 27.6014 32.115 28.3474 32.7517 28.8553C33.3884 29.3315 34.0888 29.5695 34.8529 29.5695C36.5083 29.5695 37.925 28.7918 39.1029 27.2363L44.4513 30.379C43.1779 32.0932 41.7294 33.3788 40.1057 34.2359C38.4821 35.0612 36.5402 35.4739 34.2798 35.4739C31.351 35.4739 28.9951 34.6168 27.2123 32.9027C25.4295 31.1567 24.5381 28.7918 24.5381 25.8079C24.5381 23.1414 25.0634 20.713 26.114 18.5226C27.1646 16.3323 28.6449 14.5864 30.5551 13.2849C32.497 11.9834 34.7574 11.3326 37.3361 11.3326C38.6413 11.3326 39.8988 11.5707 41.1086 12.0468C42.3502 12.523 43.353 13.2372 44.117 14.1896C44.9129 15.1419 45.3109 16.3005 45.3109 17.6655ZM38.4344 18.6655C38.4344 18.2211 38.2752 17.8877 37.9569 17.6655C37.6703 17.4116 37.2565 17.2846 36.7153 17.2846C35.6647 17.2846 34.6619 17.7449 33.7068 18.6655C32.7836 19.5543 32.1309 20.7764 31.7489 22.3319C36.2059 21.8557 38.4344 20.6336 38.4344 18.6655Z" fill="#905D3A"/>
<path d="M55.4626 11.7612L55.0805 14.999L55.176 15.0467C57.309 12.5706 59.8877 11.3326 62.9121 11.3326C64.7904 11.3326 66.1912 11.8723 67.1144 12.9516C68.0376 14.0308 68.4992 15.6974 68.4992 17.9512C68.4992 18.9353 68.4356 19.8876 68.3082 20.8082L66.4458 35.0454H59.3306L61.002 22.4271C61.1293 21.2209 61.193 20.459 61.193 20.1416C61.193 19.3162 61.0656 18.7131 60.8109 18.3322C60.5563 17.9195 60.1583 17.7131 59.6171 17.7131C58.8531 17.7131 58.0572 18.0465 57.2294 18.7131C56.4017 19.3797 55.6536 20.3796 54.985 21.7129C54.3483 23.0144 53.9026 24.5857 53.6479 26.4269L52.5974 35.0454H45.4344L48.3473 11.7612H55.4626Z" fill="#905D3A"/>
<path d="M76.8024 35.4739C75.0514 35.4739 73.6665 34.9978 72.6478 34.0454C71.6291 33.0931 71.1197 31.617 71.1197 29.6171C71.1197 29.3315 71.1515 28.8077 71.2152 28.0458L72.4568 17.5227H70.1646L70.8809 11.7612H73.1731L74.0804 4.95206L81.3867 3.52358L80.3839 11.7612H85.2069L84.4907 17.5227H79.6676L78.5215 27.0935C78.4896 27.2205 78.4737 27.4109 78.4737 27.6649C78.4737 28.5855 78.8398 29.0458 79.572 29.0458C80.1769 29.0458 80.9569 28.7918 81.912 28.2839L83.058 33.855C81.0842 34.9343 78.999 35.4739 76.8024 35.4739Z" fill="#905D3A"/>
<path d="M139.991 35.8218C136.988 35.8218 134.576 34.9478 132.755 33.1997C130.966 31.4199 130.071 28.9567 130.071 25.8102C130.071 23.2676 130.582 20.9156 131.605 18.7544C132.627 16.5931 134.113 14.8769 136.061 13.6055C138.042 12.3024 140.358 11.6509 143.01 11.6509C146.077 11.6509 148.505 12.5408 150.294 14.3206C152.115 16.0687 153.025 18.5001 153.025 21.6148C153.025 24.221 152.546 26.6048 151.587 28.766C150.629 30.9273 149.175 32.6435 147.227 33.9149C145.278 35.1862 142.866 35.8218 139.991 35.8218ZM140.518 29.4335C142.051 29.4335 143.297 28.7024 144.256 27.2404C145.246 25.7784 145.741 24.0621 145.741 22.0916C145.741 20.5978 145.406 19.5489 144.735 18.9451C144.064 18.3412 143.297 18.0393 142.435 18.0393C141.412 18.0393 140.518 18.4048 139.751 19.1358C138.984 19.835 138.393 20.7567 137.978 21.9009C137.563 23.0451 137.355 24.221 137.355 25.4288C137.355 26.7319 137.659 27.7331 138.266 28.4323C138.905 29.0997 139.655 29.4335 140.518 29.4335Z" fill="#905D3A"/>
<path fill-rule="evenodd" clip-rule="evenodd" d="M87.174 34.652C87.1629 34.6414 87.1518 34.6307 87.141 34.6198C85.7691 33.2437 85.249 31.2252 85.249 28.9247C85.249 28.0052 85.3122 27.0987 85.4392 26.2056C85.4393 26.2045 85.4395 26.2033 85.4397 26.2021L87.2809 12.834C87.3847 12.0802 88.029 11.5186 88.7899 11.5186H95.3254C95.7668 11.5186 96.1866 11.7101 96.4759 12.0435C96.7652 12.377 96.8957 12.8196 96.8334 13.2566L95.2114 24.646C95.0667 25.7207 95.0064 26.4244 95.0064 26.8128C95.0064 27.1309 95.0335 27.3514 95.0663 27.4942C95.0696 27.5083 95.0728 27.5212 95.0759 27.5329C95.0852 27.5332 95.0953 27.5334 95.1061 27.5334C95.2243 27.5334 95.5455 27.4739 96.1029 27.008C96.64 26.559 97.1419 25.9489 97.5934 25.1438C97.5959 25.1394 97.5984 25.135 97.6009 25.1306C98.0615 24.3282 98.3258 23.5288 98.4174 22.7247L98.4185 22.7154L99.6027 12.8601C99.6947 12.0946 100.344 11.5186 101.115 11.5186H107.694C108.131 11.5186 108.546 11.7056 108.835 12.0322C108.993 12.2103 109.105 12.4206 109.165 12.6452C109.204 12.5013 109.264 12.3621 109.345 12.2325C109.624 11.7883 110.112 11.5186 110.636 11.5186H117.917C118.549 11.5186 119.116 11.9094 119.341 12.5005L120.229 14.8374L125.121 6.85528C125.398 6.4034 125.89 6.12793 126.42 6.12793H133.876C134.442 6.12793 134.961 6.44128 135.224 6.94177C135.488 7.44226 135.452 8.04749 135.132 8.51368L124.583 23.87L129.379 33.8991C129.605 34.3711 129.573 34.9258 129.294 35.3684C129.015 35.811 128.528 36.0795 128.005 36.0795H120.987C120.375 36.0795 119.822 35.7124 119.584 35.1479L118.377 32.2845L113.441 39.7888C113.159 40.2171 112.681 40.475 112.168 40.475H105.063C104.499 40.475 103.981 40.1632 103.717 39.6648C103.453 39.1663 103.486 38.5627 103.803 38.096L105.175 36.0755C105.138 36.0781 105.1 36.0795 105.063 36.0795H98.615C98.1891 36.0795 97.7826 35.9012 97.4942 35.5878C97.3515 35.4328 97.2441 35.2517 97.1763 35.0568C95.7708 35.9826 94.1864 36.4755 92.4305 36.4755C90.3587 36.4755 88.5332 35.9351 87.174 34.652ZM97.2052 33.127C97.7632 32.6435 98.2916 32.064 98.7904 31.3885H98.8782L98.615 34.5562H105.063L107.694 13.0418H101.115L99.9309 22.8971C99.8139 23.9237 99.4776 24.921 98.922 25.8889C98.3957 26.8275 97.7816 27.5901 97.0798 28.1767C96.378 28.7633 95.7201 29.0566 95.1061 29.0566C94.5505 29.0566 94.1411 28.8807 93.8779 28.5287C93.6147 28.1767 93.4832 27.6048 93.4832 26.8128C93.4832 26.3142 93.5563 25.5222 93.7025 24.437L95.3254 13.0418H88.7899L86.9477 26.4168C86.8308 27.2381 86.7723 28.0741 86.7723 28.9247C86.7723 31.0365 87.2548 32.5764 88.2197 33.5443C89.2139 34.4829 90.6175 34.9522 92.4305 34.9522C94.2093 34.9522 95.8008 34.3438 97.2052 33.127ZM106.683 33.8537L113.882 23.2527L109.265 13.7051C109.229 13.6307 109.199 13.5542 109.176 13.4764L106.683 33.8537ZM115.636 23.3811L105.063 38.9517H112.168L118.619 29.1446H118.706L120.987 34.5562H128.005L122.829 23.733L133.876 7.65121H126.42L119.935 18.2335H119.891L117.917 13.0418H110.636L115.636 23.3811Z" fill="#905D3A"/>
<path d="M7.64054 35.4739C5.1892 35.4739 3.29498 34.5851 1.95789 32.8074C0.65263 31.0298 0 28.7442 0 25.9507C0 23.2525 0.493452 20.7923 1.48035 18.5702C2.46726 16.3164 3.80435 14.5546 5.49164 13.2849C7.17893 11.9834 9.02539 11.3326 11.031 11.3326C13.3232 11.3326 15.1856 12.0151 16.6182 13.3801H16.7614L18.3851 0H25.5958L21.2503 35.0454H14.0872L14.517 31.617L14.3738 31.5694C12.5273 34.1724 10.2829 35.4739 7.64054 35.4739ZM9.88495 29.141C10.7445 29.141 11.6041 28.7918 12.4636 28.0934C13.3232 27.3633 14.0713 26.3158 14.708 24.9508C15.3766 23.554 15.8541 21.9192 16.1406 20.0463L16.2361 19.3797C15.2174 18.2687 13.8962 17.7131 12.2726 17.7131C11.2857 17.7131 10.3943 18.1099 9.59843 18.9035C8.83438 19.6654 8.24542 20.6495 7.83155 21.8557C7.41769 23.0303 7.21076 24.2207 7.21076 25.4269C7.21076 26.538 7.44953 27.4427 7.92706 28.141C8.43643 28.8077 9.08906 29.141 9.88495 29.141Z" fill="#905D3A"/>
<path d="M45.3109 17.6655C45.3109 20.3955 44.0056 22.4747 41.3951 23.9032C38.8164 25.3 35.5214 26.2047 31.5101 26.6173C31.7012 27.6014 32.115 28.3474 32.7517 28.8553C33.3884 29.3315 34.0888 29.5695 34.8529 29.5695C36.5083 29.5695 37.925 28.7918 39.1029 27.2363L44.4513 30.379C43.1779 32.0932 41.7294 33.3788 40.1057 34.2359C38.4821 35.0612 36.5402 35.4739 34.2798 35.4739C31.351 35.4739 28.9951 34.6168 27.2123 32.9027C25.4295 31.1567 24.5381 28.7918 24.5381 25.8079C24.5381 23.1414 25.0634 20.713 26.114 18.5226C27.1646 16.3323 28.6449 14.5864 30.5551 13.2849C32.497 11.9834 34.7574 11.3326 37.3361 11.3326C38.6413 11.3326 39.8988 11.5707 41.1086 12.0468C42.3502 12.523 43.353 13.2372 44.117 14.1896C44.9129 15.1419 45.3109 16.3005 45.3109 17.6655ZM38.4344 18.6655C38.4344 18.2211 38.2752 17.8877 37.9569 17.6655C37.6703 17.4116 37.2565 17.2846 36.7153 17.2846C35.6647 17.2846 34.6619 17.7449 33.7068 18.6655C32.7836 19.5543 32.1309 20.7764 31.7489 22.3319C36.2059 21.8557 38.4344 20.6336 38.4344 18.6655Z" fill="#905D3A"/>
<path d="M55.4626 11.7612L55.0805 14.999L55.176 15.0467C57.309 12.5706 59.8877 11.3326 62.9121 11.3326C64.7904 11.3326 66.1912 11.8723 67.1144 12.9516C68.0376 14.0308 68.4992 15.6974 68.4992 17.9512C68.4992 18.9353 68.4356 19.8876 68.3082 20.8082L66.4458 35.0454H59.3306L61.002 22.4271C61.1293 21.2209 61.193 20.459 61.193 20.1416C61.193 19.3162 61.0656 18.7131 60.8109 18.3322C60.5563 17.9195 60.1583 17.7131 59.6171 17.7131C58.8531 17.7131 58.0572 18.0465 57.2294 18.7131C56.4017 19.3797 55.6536 20.3796 54.985 21.7129C54.3483 23.0144 53.9026 24.5857 53.6479 26.4269L52.5974 35.0454H45.4344L48.3473 11.7612H55.4626Z" fill="#905D3A"/>
<path d="M76.8024 35.4739C75.0514 35.4739 73.6665 34.9978 72.6478 34.0454C71.6291 33.0931 71.1197 31.617 71.1197 29.6171C71.1197 29.3315 71.1515 28.8077 71.2152 28.0458L72.4568 17.5227H70.1646L70.8809 11.7612H73.1731L74.0804 4.95206L81.3867 3.52358L80.3839 11.7612H85.2069L84.4907 17.5227H79.6676L78.5215 27.0935C78.4896 27.2205 78.4737 27.4109 78.4737 27.6649C78.4737 28.5855 78.8398 29.0458 79.572 29.0458C80.1769 29.0458 80.9569 28.7918 81.912 28.2839L83.058 33.855C81.0842 34.9343 78.999 35.4739 76.8024 35.4739Z" fill="#905D3A"/>
<path fill-rule="evenodd" clip-rule="evenodd" d="M87.174 34.652C87.1629 34.6414 87.1518 34.6307 87.141 34.6198C85.7691 33.2437 85.249 31.2252 85.249 28.9247C85.249 28.0052 85.3122 27.0987 85.4392 26.2056C85.4393 26.2045 85.4395 26.2033 85.4397 26.2021L87.2809 12.834C87.3847 12.0802 88.029 11.5186 88.7899 11.5186H95.3254C95.7668 11.5186 96.1866 11.7101 96.4759 12.0435C96.7652 12.377 96.8957 12.8196 96.8334 13.2566L95.2114 24.646C95.0667 25.7207 95.0064 26.4244 95.0064 26.8128C95.0064 27.1309 95.0335 27.3514 95.0663 27.4942C95.0696 27.5083 95.0728 27.5212 95.0759 27.5329C95.0852 27.5332 95.0953 27.5334 95.1061 27.5334C95.2243 27.5334 95.5455 27.4739 96.1029 27.008C96.64 26.559 97.1419 25.9489 97.5934 25.1438C97.5959 25.1394 97.5984 25.135 97.6009 25.1306C98.0615 24.3282 98.3258 23.5288 98.4174 22.7247L98.4185 22.7154L99.6027 12.8601C99.6947 12.0946 100.344 11.5186 101.115 11.5186H107.694C108.131 11.5186 108.546 11.7056 108.835 12.0322C108.993 12.2103 109.105 12.4206 109.165 12.6452C109.204 12.5013 109.264 12.3621 109.345 12.2325C109.624 11.7883 110.112 11.5186 110.636 11.5186H117.917C118.549 11.5186 119.116 11.9094 119.341 12.5005L120.229 14.8374L125.121 6.85528C125.398 6.4034 125.89 6.12793 126.42 6.12793H133.876C134.442 6.12793 134.961 6.44128 135.224 6.94177C135.488 7.44226 135.452 8.04749 135.132 8.51368L124.583 23.87L129.379 33.8991C129.605 34.3711 129.573 34.9258 129.294 35.3684C129.015 35.811 128.528 36.0795 128.005 36.0795H120.987C120.375 36.0795 119.822 35.7124 119.584 35.1479L118.377 32.2845L113.441 39.7888C113.159 40.2171 112.681 40.475 112.168 40.475H105.063C104.499 40.475 103.981 40.1632 103.717 39.6648C103.453 39.1663 103.486 38.5627 103.803 38.096L105.175 36.0755C105.138 36.0781 105.1 36.0795 105.063 36.0795H98.615C98.1891 36.0795 97.7826 35.9012 97.4942 35.5878C97.3515 35.4328 97.2441 35.2517 97.1763 35.0568C95.7708 35.9826 94.1864 36.4755 92.4305 36.4755C90.3587 36.4755 88.5332 35.9351 87.174 34.652ZM97.2052 33.127C97.7632 32.6435 98.2916 32.064 98.7904 31.3885H98.8782L98.615 34.5562H105.063L107.694 13.0418H101.115L99.9309 22.8971C99.8139 23.9237 99.4776 24.921 98.922 25.8889C98.3957 26.8275 97.7816 27.5901 97.0798 28.1767C96.378 28.7633 95.7201 29.0566 95.1061 29.0566C94.5505 29.0566 94.1411 28.8807 93.8779 28.5287C93.6147 28.1767 93.4832 27.6048 93.4832 26.8128C93.4832 26.3142 93.5563 25.5222 93.7025 24.437L95.3254 13.0418H88.7899L86.9477 26.4168C86.8308 27.2381 86.7723 28.0741 86.7723 28.9247C86.7723 31.0365 87.2548 32.5764 88.2197 33.5443C89.2139 34.4829 90.6175 34.9522 92.4305 34.9522C94.2093 34.9522 95.8008 34.3438 97.2052 33.127ZM106.683 33.8537L113.882 23.2527L109.265 13.7051C109.229 13.6307 109.199 13.5542 109.176 13.4764L106.683 33.8537ZM115.636 23.3811L105.063 38.9517H112.168L118.619 29.1446H118.706L120.987 34.5562H128.005L122.829 23.733L133.876 7.65121H126.42L119.935 18.2335H119.891L117.917 13.0418H110.636L115.636 23.3811Z" fill="#905D3A"/>
</svg>
