<svg width="275" height="134" viewBox="0 0 275 134" fill="none" xmlns="http://www.w3.org/2000/svg">
<rect x="0.5" y="0.5" width="274" height="110" rx="26.85" fill="url(#paint0_radial_1094_105)" fill-opacity="0.8"/>
<rect x="0.5" y="0.5" width="274" height="110" rx="26.85" stroke="url(#paint1_linear_1094_105)"/>
<path d="M52.764 62V49.4H54.708V62H52.764ZM53.628 56.636V54.764H60.126V56.636H53.628ZM53.628 51.272V49.4H60.936V51.272H53.628ZM62.9659 62V52.55H64.8379V55.52L64.6579 54.8C64.7899 54.344 65.0119 53.93 65.3239 53.558C65.6479 53.186 66.0139 52.892 66.4219 52.676C66.8419 52.46 67.2739 52.352 67.7179 52.352C67.9219 52.352 68.1139 52.37 68.2939 52.406C68.4859 52.442 68.6359 52.484 68.7439 52.532L68.2579 54.548C68.1139 54.488 67.9519 54.44 67.7719 54.404C67.6039 54.356 67.4359 54.332 67.2679 54.332C66.9439 54.332 66.6319 54.398 66.3319 54.53C66.0439 54.65 65.7859 54.824 65.5579 55.052C65.3419 55.268 65.1679 55.526 65.0359 55.826C64.9039 56.114 64.8379 56.432 64.8379 56.78V62H62.9659ZM74.0694 62.18C73.1454 62.18 72.3174 61.97 71.5854 61.55C70.8654 61.118 70.2954 60.536 69.8754 59.804C69.4554 59.06 69.2454 58.214 69.2454 57.266C69.2454 56.318 69.4554 55.478 69.8754 54.746C70.2954 54.002 70.8654 53.42 71.5854 53C72.3174 52.568 73.1454 52.352 74.0694 52.352C74.9814 52.352 75.7974 52.568 76.5174 53C77.2494 53.42 77.8254 54.002 78.2454 54.746C78.6654 55.478 78.8754 56.318 78.8754 57.266C78.8754 58.214 78.6654 59.06 78.2454 59.804C77.8254 60.536 77.2494 61.118 76.5174 61.55C75.7974 61.97 74.9814 62.18 74.0694 62.18ZM74.0694 60.488C74.6334 60.488 75.1374 60.35 75.5814 60.074C76.0254 59.786 76.3734 59.402 76.6254 58.922C76.8774 58.43 76.9974 57.878 76.9854 57.266C76.9974 56.642 76.8774 56.09 76.6254 55.61C76.3734 55.118 76.0254 54.734 75.5814 54.458C75.1374 54.182 74.6334 54.044 74.0694 54.044C73.5054 54.044 72.9954 54.188 72.5394 54.476C72.0954 54.752 71.7474 55.136 71.4954 55.628C71.2434 56.108 71.1234 56.654 71.1354 57.266C71.1234 57.878 71.2434 58.43 71.4954 58.922C71.7474 59.402 72.0954 59.786 72.5394 60.074C72.9954 60.35 73.5054 60.488 74.0694 60.488ZM80.8956 62V52.55H82.7496V54.494L82.4256 54.71C82.5456 54.29 82.7796 53.906 83.1276 53.558C83.4756 53.198 83.8896 52.91 84.3696 52.694C84.8496 52.466 85.3416 52.352 85.8456 52.352C86.5656 52.352 87.1656 52.496 87.6456 52.784C88.1256 53.06 88.4856 53.486 88.7256 54.062C88.9656 54.638 89.0856 55.364 89.0856 56.24V62H87.2316V56.366C87.2316 55.826 87.1596 55.382 87.0156 55.034C86.8716 54.674 86.6496 54.416 86.3496 54.26C86.0496 54.092 85.6776 54.02 85.2336 54.044C84.8736 54.044 84.5436 54.104 84.2436 54.224C83.9436 54.332 83.6796 54.488 83.4516 54.692C83.2356 54.896 83.0616 55.136 82.9296 55.412C82.8096 55.676 82.7496 55.964 82.7496 56.276V62H81.8316C81.6756 62 81.5196 62 81.3636 62C81.2076 62 81.0516 62 80.8956 62ZM92.7707 62V50.138H94.6247V62H92.7707ZM90.8087 54.35V52.55H96.8207V54.35H90.8087ZM102.831 62.18C101.859 62.18 100.995 61.976 100.239 61.568C99.495 61.148 98.907 60.578 98.475 59.858C98.055 59.138 97.845 58.31 97.845 57.374C97.845 56.63 97.965 55.952 98.205 55.34C98.445 54.728 98.775 54.2 99.195 53.756C99.627 53.3 100.137 52.952 100.725 52.712C101.325 52.46 101.973 52.334 102.669 52.334C103.281 52.334 103.851 52.454 104.379 52.694C104.907 52.922 105.363 53.24 105.747 53.648C106.143 54.056 106.443 54.542 106.647 55.106C106.863 55.658 106.965 56.264 106.953 56.924L106.935 57.716H99.213L98.799 56.24H105.333L105.063 56.546V56.114C105.027 55.718 104.895 55.364 104.667 55.052C104.439 54.74 104.151 54.494 103.803 54.314C103.455 54.134 103.077 54.044 102.669 54.044C102.021 54.044 101.475 54.17 101.031 54.422C100.587 54.662 100.251 55.022 100.023 55.502C99.795 55.97 99.681 56.552 99.681 57.248C99.681 57.908 99.819 58.484 100.095 58.976C100.371 59.456 100.761 59.828 101.265 60.092C101.769 60.356 102.351 60.488 103.011 60.488C103.479 60.488 103.911 60.41 104.307 60.254C104.715 60.098 105.153 59.816 105.621 59.408L106.557 60.722C106.269 61.01 105.915 61.262 105.495 61.478C105.087 61.694 104.649 61.868 104.181 62C103.725 62.12 103.275 62.18 102.831 62.18ZM108.968 62V52.55H110.822V54.494L110.498 54.71C110.618 54.29 110.852 53.906 111.2 53.558C111.548 53.198 111.962 52.91 112.442 52.694C112.922 52.466 113.414 52.352 113.918 52.352C114.638 52.352 115.238 52.496 115.718 52.784C116.198 53.06 116.558 53.486 116.798 54.062C117.038 54.638 117.158 55.364 117.158 56.24V62H115.304V56.366C115.304 55.826 115.232 55.382 115.088 55.034C114.944 54.674 114.722 54.416 114.422 54.26C114.122 54.092 113.75 54.02 113.306 54.044C112.946 54.044 112.616 54.104 112.316 54.224C112.016 54.332 111.752 54.488 111.524 54.692C111.308 54.896 111.134 55.136 111.002 55.412C110.882 55.676 110.822 55.964 110.822 56.276V62H109.904C109.748 62 109.592 62 109.436 62C109.28 62 109.124 62 108.968 62ZM123.615 62.18C122.751 62.18 121.977 61.97 121.293 61.55C120.621 61.118 120.087 60.536 119.691 59.804C119.295 59.06 119.097 58.214 119.097 57.266C119.097 56.318 119.289 55.478 119.673 54.746C120.069 54.002 120.603 53.42 121.275 53C121.947 52.568 122.709 52.352 123.561 52.352C124.029 52.352 124.479 52.43 124.911 52.586C125.355 52.73 125.751 52.934 126.099 53.198C126.447 53.45 126.717 53.732 126.909 54.044C127.113 54.344 127.215 54.65 127.215 54.962L126.675 54.998V48.68H128.529V62H126.675V59.75H127.035C127.035 60.038 126.939 60.326 126.747 60.614C126.555 60.89 126.297 61.148 125.973 61.388C125.661 61.628 125.295 61.82 124.875 61.964C124.467 62.108 124.047 62.18 123.615 62.18ZM123.867 60.578C124.431 60.578 124.929 60.434 125.361 60.146C125.793 59.858 126.129 59.468 126.369 58.976C126.621 58.472 126.747 57.902 126.747 57.266C126.747 56.63 126.621 56.066 126.369 55.574C126.129 55.07 125.793 54.674 125.361 54.386C124.929 54.098 124.431 53.954 123.867 53.954C123.303 53.954 122.805 54.098 122.373 54.386C121.941 54.674 121.599 55.07 121.347 55.574C121.107 56.066 120.987 56.63 120.987 57.266C120.987 57.902 121.107 58.472 121.347 58.976C121.599 59.468 121.941 59.858 122.373 60.146C122.805 60.434 123.303 60.578 123.867 60.578ZM136.594 62V49.4H141.526C142.426 49.4 143.236 49.55 143.956 49.85C144.688 50.15 145.312 50.582 145.828 51.146C146.344 51.71 146.74 52.376 147.016 53.144C147.292 53.912 147.43 54.764 147.43 55.7C147.43 56.636 147.292 57.494 147.016 58.274C146.74 59.042 146.344 59.708 145.828 60.272C145.324 60.824 144.706 61.25 143.974 61.55C143.242 61.85 142.426 62 141.526 62H136.594ZM138.538 60.326L138.484 60.128H141.436C142.072 60.128 142.636 60.026 143.128 59.822C143.632 59.618 144.052 59.33 144.388 58.958C144.736 58.574 145 58.106 145.18 57.554C145.36 57.002 145.45 56.384 145.45 55.7C145.45 55.016 145.36 54.404 145.18 53.864C145 53.312 144.736 52.844 144.388 52.46C144.04 52.076 143.62 51.782 143.128 51.578C142.636 51.374 142.072 51.272 141.436 51.272H138.43L138.538 51.11V60.326ZM154.001 62.18C153.029 62.18 152.165 61.976 151.409 61.568C150.665 61.148 150.077 60.578 149.645 59.858C149.225 59.138 149.015 58.31 149.015 57.374C149.015 56.63 149.135 55.952 149.375 55.34C149.615 54.728 149.945 54.2 150.365 53.756C150.797 53.3 151.307 52.952 151.895 52.712C152.495 52.46 153.143 52.334 153.839 52.334C154.451 52.334 155.021 52.454 155.549 52.694C156.077 52.922 156.533 53.24 156.917 53.648C157.313 54.056 157.613 54.542 157.817 55.106C158.033 55.658 158.135 56.264 158.123 56.924L158.105 57.716H150.383L149.969 56.24H156.503L156.233 56.546V56.114C156.197 55.718 156.065 55.364 155.837 55.052C155.609 54.74 155.321 54.494 154.973 54.314C154.625 54.134 154.247 54.044 153.839 54.044C153.191 54.044 152.645 54.17 152.201 54.422C151.757 54.662 151.421 55.022 151.193 55.502C150.965 55.97 150.851 56.552 150.851 57.248C150.851 57.908 150.989 58.484 151.265 58.976C151.541 59.456 151.931 59.828 152.435 60.092C152.939 60.356 153.521 60.488 154.181 60.488C154.649 60.488 155.081 60.41 155.477 60.254C155.885 60.098 156.323 59.816 156.791 59.408L157.727 60.722C157.439 61.01 157.085 61.262 156.665 61.478C156.257 61.694 155.819 61.868 155.351 62C154.895 62.12 154.445 62.18 154.001 62.18ZM163.058 62L159.062 52.55H161.06L163.94 59.624L163.598 59.786L166.676 52.55H168.584L164.39 62H163.058ZM174.427 62.18C173.455 62.18 172.591 61.976 171.835 61.568C171.091 61.148 170.503 60.578 170.071 59.858C169.651 59.138 169.441 58.31 169.441 57.374C169.441 56.63 169.561 55.952 169.801 55.34C170.041 54.728 170.371 54.2 170.791 53.756C171.223 53.3 171.733 52.952 172.321 52.712C172.921 52.46 173.569 52.334 174.265 52.334C174.877 52.334 175.447 52.454 175.975 52.694C176.503 52.922 176.959 53.24 177.343 53.648C177.739 54.056 178.039 54.542 178.243 55.106C178.459 55.658 178.561 56.264 178.549 56.924L178.531 57.716H170.809L170.395 56.24H176.929L176.659 56.546V56.114C176.623 55.718 176.491 55.364 176.263 55.052C176.035 54.74 175.747 54.494 175.399 54.314C175.051 54.134 174.673 54.044 174.265 54.044C173.617 54.044 173.071 54.17 172.627 54.422C172.183 54.662 171.847 55.022 171.619 55.502C171.391 55.97 171.277 56.552 171.277 57.248C171.277 57.908 171.415 58.484 171.691 58.976C171.967 59.456 172.357 59.828 172.861 60.092C173.365 60.356 173.947 60.488 174.607 60.488C175.075 60.488 175.507 60.41 175.903 60.254C176.311 60.098 176.749 59.816 177.217 59.408L178.153 60.722C177.865 61.01 177.511 61.262 177.091 61.478C176.683 61.694 176.245 61.868 175.777 62C175.321 62.12 174.871 62.18 174.427 62.18ZM180.6 62V48.68H182.454V62H180.6ZM189.153 62.18C188.229 62.18 187.401 61.97 186.669 61.55C185.949 61.118 185.379 60.536 184.959 59.804C184.539 59.06 184.329 58.214 184.329 57.266C184.329 56.318 184.539 55.478 184.959 54.746C185.379 54.002 185.949 53.42 186.669 53C187.401 52.568 188.229 52.352 189.153 52.352C190.065 52.352 190.881 52.568 191.601 53C192.333 53.42 192.909 54.002 193.329 54.746C193.749 55.478 193.959 56.318 193.959 57.266C193.959 58.214 193.749 59.06 193.329 59.804C192.909 60.536 192.333 61.118 191.601 61.55C190.881 61.97 190.065 62.18 189.153 62.18ZM189.153 60.488C189.717 60.488 190.221 60.35 190.665 60.074C191.109 59.786 191.457 59.402 191.709 58.922C191.961 58.43 192.081 57.878 192.069 57.266C192.081 56.642 191.961 56.09 191.709 55.61C191.457 55.118 191.109 54.734 190.665 54.458C190.221 54.182 189.717 54.044 189.153 54.044C188.589 54.044 188.079 54.188 187.623 54.476C187.179 54.752 186.831 55.136 186.579 55.628C186.327 56.108 186.207 56.654 186.219 57.266C186.207 57.878 186.327 58.43 186.579 58.922C186.831 59.402 187.179 59.786 187.623 60.074C188.079 60.35 188.589 60.488 189.153 60.488ZM195.98 65.96V52.55H197.852V54.71L197.564 54.548C197.636 54.188 197.84 53.846 198.176 53.522C198.512 53.186 198.92 52.916 199.4 52.712C199.892 52.496 200.396 52.388 200.912 52.388C201.764 52.388 202.52 52.598 203.18 53.018C203.84 53.438 204.362 54.014 204.746 54.746C205.13 55.478 205.322 56.318 205.322 57.266C205.322 58.202 205.13 59.042 204.746 59.786C204.374 60.518 203.858 61.1 203.198 61.532C202.538 61.952 201.794 62.162 200.966 62.162C200.414 62.162 199.88 62.054 199.364 61.838C198.848 61.61 198.41 61.322 198.05 60.974C197.69 60.626 197.468 60.266 197.384 59.894L197.852 59.642V65.96H195.98ZM200.66 60.452C201.212 60.452 201.704 60.314 202.136 60.038C202.568 59.762 202.91 59.384 203.162 58.904C203.414 58.424 203.54 57.878 203.54 57.266C203.54 56.654 203.414 56.114 203.162 55.646C202.922 55.166 202.586 54.788 202.154 54.512C201.722 54.236 201.224 54.098 200.66 54.098C200.096 54.098 199.598 54.236 199.166 54.512C198.734 54.776 198.392 55.148 198.14 55.628C197.888 56.108 197.762 56.654 197.762 57.266C197.762 57.878 197.888 58.424 198.14 58.904C198.392 59.384 198.734 59.762 199.166 60.038C199.598 60.314 200.096 60.452 200.66 60.452ZM211.745 62.18C210.773 62.18 209.909 61.976 209.153 61.568C208.409 61.148 207.821 60.578 207.389 59.858C206.969 59.138 206.759 58.31 206.759 57.374C206.759 56.63 206.879 55.952 207.119 55.34C207.359 54.728 207.689 54.2 208.109 53.756C208.541 53.3 209.051 52.952 209.639 52.712C210.239 52.46 210.887 52.334 211.583 52.334C212.195 52.334 212.765 52.454 213.293 52.694C213.821 52.922 214.277 53.24 214.661 53.648C215.057 54.056 215.357 54.542 215.561 55.106C215.777 55.658 215.879 56.264 215.867 56.924L215.849 57.716H208.127L207.713 56.24H214.247L213.977 56.546V56.114C213.941 55.718 213.809 55.364 213.581 55.052C213.353 54.74 213.065 54.494 212.717 54.314C212.369 54.134 211.991 54.044 211.583 54.044C210.935 54.044 210.389 54.17 209.945 54.422C209.501 54.662 209.165 55.022 208.937 55.502C208.709 55.97 208.595 56.552 208.595 57.248C208.595 57.908 208.733 58.484 209.009 58.976C209.285 59.456 209.675 59.828 210.179 60.092C210.683 60.356 211.265 60.488 211.925 60.488C212.393 60.488 212.825 60.41 213.221 60.254C213.629 60.098 214.067 59.816 214.535 59.408L215.471 60.722C215.183 61.01 214.829 61.262 214.409 61.478C214.001 61.694 213.563 61.868 213.095 62C212.639 62.12 212.189 62.18 211.745 62.18ZM217.882 62V52.55H219.754V55.52L219.574 54.8C219.706 54.344 219.928 53.93 220.24 53.558C220.564 53.186 220.93 52.892 221.338 52.676C221.758 52.46 222.19 52.352 222.634 52.352C222.838 52.352 223.03 52.37 223.21 52.406C223.402 52.442 223.552 52.484 223.66 52.532L223.174 54.548C223.03 54.488 222.868 54.44 222.688 54.404C222.52 54.356 222.352 54.332 222.184 54.332C221.86 54.332 221.548 54.398 221.248 54.53C220.96 54.65 220.702 54.824 220.474 55.052C220.258 55.268 220.084 55.526 219.952 55.826C219.82 56.114 219.754 56.432 219.754 56.78V62H217.882Z" fill="#3C3842"/>
<rect x="15" y="97" width="246.767" height="36.4814" rx="18.2407" fill="url(#paint2_linear_1094_105)"/>
<path d="M38.098 121.921C37.666 121.921 37.258 121.867 36.874 121.759C36.49 121.651 36.136 121.501 35.812 121.309C35.488 121.105 35.2 120.865 34.948 120.589C34.696 120.301 34.474 119.983 34.282 119.635L35.704 118.177C35.92 118.489 36.124 118.747 36.316 118.951C36.508 119.155 36.688 119.311 36.856 119.419C37.036 119.527 37.216 119.605 37.396 119.653C37.588 119.701 37.78 119.725 37.972 119.725C38.356 119.725 38.692 119.641 38.98 119.473C39.268 119.293 39.49 119.047 39.646 118.735C39.814 118.423 39.898 118.069 39.898 117.673V111.247H37.576V109.141H44.146V111.247H42.202V117.907C42.202 118.495 42.1 119.035 41.896 119.527C41.692 120.007 41.404 120.427 41.032 120.787C40.672 121.147 40.24 121.429 39.736 121.633C39.244 121.825 38.698 121.921 38.098 121.921ZM48.0625 121.921C47.2825 121.921 46.5745 121.705 45.9385 121.273C45.3025 120.841 44.7925 120.253 44.4085 119.509C44.0245 118.765 43.8325 117.919 43.8325 116.971C43.8325 116.023 44.0245 115.177 44.4085 114.433C44.7925 113.689 45.3145 113.107 45.9745 112.687C46.6345 112.267 47.3785 112.057 48.2065 112.057C48.6865 112.057 49.1245 112.129 49.5205 112.273C49.9165 112.405 50.2645 112.597 50.5645 112.849C50.8645 113.101 51.1105 113.389 51.3025 113.713C51.5065 114.037 51.6445 114.385 51.7165 114.757L51.2305 114.631V112.255H53.4625V121.741H51.2125V119.473L51.7345 119.383C51.6505 119.707 51.4945 120.025 51.2665 120.337C51.0505 120.637 50.7745 120.907 50.4385 121.147C50.1145 121.375 49.7485 121.561 49.3405 121.705C48.9445 121.849 48.5185 121.921 48.0625 121.921ZM48.6745 119.959C49.1905 119.959 49.6465 119.833 50.0425 119.581C50.4385 119.329 50.7445 118.981 50.9605 118.537C51.1885 118.081 51.3025 117.559 51.3025 116.971C51.3025 116.395 51.1885 115.885 50.9605 115.441C50.7445 114.997 50.4385 114.649 50.0425 114.397C49.6465 114.145 49.1905 114.019 48.6745 114.019C48.1585 114.019 47.7025 114.145 47.3065 114.397C46.9225 114.649 46.6225 114.997 46.4065 115.441C46.1905 115.885 46.0825 116.395 46.0825 116.971C46.0825 117.559 46.1905 118.081 46.4065 118.537C46.6225 118.981 46.9225 119.329 47.3065 119.581C47.7025 119.833 48.1585 119.959 48.6745 119.959ZM57.7804 121.741L53.7844 112.255H56.1964L58.8964 119.347L58.4284 119.473L61.2724 112.255H63.6304L59.4364 121.741H57.7804ZM67.4885 121.921C66.7085 121.921 66.0005 121.705 65.3645 121.273C64.7285 120.841 64.2185 120.253 63.8345 119.509C63.4505 118.765 63.2585 117.919 63.2585 116.971C63.2585 116.023 63.4505 115.177 63.8345 114.433C64.2185 113.689 64.7405 113.107 65.4005 112.687C66.0605 112.267 66.8045 112.057 67.6325 112.057C68.1125 112.057 68.5505 112.129 68.9465 112.273C69.3425 112.405 69.6905 112.597 69.9905 112.849C70.2905 113.101 70.5365 113.389 70.7285 113.713C70.9325 114.037 71.0705 114.385 71.1425 114.757L70.6565 114.631V112.255H72.8885V121.741H70.6385V119.473L71.1605 119.383C71.0765 119.707 70.9205 120.025 70.6925 120.337C70.4765 120.637 70.2005 120.907 69.8645 121.147C69.5405 121.375 69.1745 121.561 68.7665 121.705C68.3705 121.849 67.9445 121.921 67.4885 121.921ZM68.1005 119.959C68.6165 119.959 69.0725 119.833 69.4685 119.581C69.8645 119.329 70.1705 118.981 70.3865 118.537C70.6145 118.081 70.7285 117.559 70.7285 116.971C70.7285 116.395 70.6145 115.885 70.3865 115.441C70.1705 114.997 69.8645 114.649 69.4685 114.397C69.0725 114.145 68.6165 114.019 68.1005 114.019C67.5845 114.019 67.1285 114.145 66.7325 114.397C66.3485 114.649 66.0485 114.997 65.8325 115.441C65.6165 115.885 65.5085 116.395 65.5085 116.971C65.5085 117.559 65.6165 118.081 65.8325 118.537C66.0485 118.981 66.3485 119.329 66.7325 119.581C67.1285 119.833 67.5845 119.959 68.1005 119.959ZM78.7673 121.921C78.0353 121.921 77.3633 121.831 76.7513 121.651C76.1393 121.459 75.5873 121.177 75.0953 120.805C74.6033 120.433 74.1653 119.983 73.7813 119.455L75.3113 117.727C75.8993 118.543 76.4753 119.107 77.0393 119.419C77.6033 119.731 78.2393 119.887 78.9473 119.887C79.3553 119.887 79.7273 119.827 80.0633 119.707C80.3993 119.575 80.6633 119.401 80.8553 119.185C81.0473 118.957 81.1433 118.699 81.1433 118.411C81.1433 118.207 81.1013 118.021 81.0173 117.853C80.9453 117.673 80.8313 117.517 80.6753 117.385C80.5193 117.241 80.3273 117.109 80.0993 116.989C79.8713 116.869 79.6133 116.767 79.3253 116.683C79.0373 116.599 78.7193 116.521 78.3713 116.449C77.7113 116.317 77.1353 116.143 76.6433 115.927C76.1513 115.699 75.7373 115.423 75.4013 115.099C75.0653 114.763 74.8193 114.391 74.6633 113.983C74.5073 113.563 74.4293 113.089 74.4293 112.561C74.4293 112.033 74.5433 111.547 74.7713 111.103C75.0113 110.659 75.3353 110.275 75.7433 109.951C76.1513 109.627 76.6253 109.375 77.1653 109.195C77.7053 109.015 78.2873 108.925 78.9113 108.925C79.6193 108.925 80.2493 109.009 80.8013 109.177C81.3653 109.345 81.8573 109.597 82.2773 109.933C82.7093 110.257 83.0633 110.653 83.3393 111.121L81.7913 112.651C81.5513 112.279 81.2813 111.973 80.9813 111.733C80.6813 111.481 80.3573 111.295 80.0093 111.175C79.6613 111.043 79.2953 110.977 78.9113 110.977C78.4793 110.977 78.1013 111.037 77.7773 111.157C77.4653 111.277 77.2193 111.451 77.0393 111.679C76.8593 111.895 76.7693 112.159 76.7693 112.471C76.7693 112.711 76.8233 112.927 76.9313 113.119C77.0393 113.299 77.1893 113.461 77.3813 113.605C77.5853 113.749 77.8433 113.875 78.1553 113.983C78.4673 114.091 78.8213 114.187 79.2173 114.271C79.8773 114.403 80.4713 114.583 80.9993 114.811C81.5273 115.027 81.9773 115.291 82.3493 115.603C82.7213 115.903 83.0033 116.251 83.1953 116.647C83.3873 117.031 83.4833 117.463 83.4833 117.943C83.4833 118.771 83.2853 119.485 82.8893 120.085C82.5053 120.673 81.9593 121.129 81.2513 121.453C80.5433 121.765 79.7153 121.921 78.7673 121.921ZM88.6485 121.921C87.7605 121.921 86.9625 121.705 86.2545 121.273C85.5465 120.841 84.9885 120.253 84.5805 119.509C84.1725 118.765 83.9685 117.925 83.9685 116.989C83.9685 116.053 84.1725 115.213 84.5805 114.469C84.9885 113.725 85.5465 113.137 86.2545 112.705C86.9625 112.273 87.7605 112.057 88.6485 112.057C89.5005 112.057 90.2745 112.219 90.9705 112.543C91.6665 112.867 92.2065 113.317 92.5905 113.893L91.3665 115.369C91.1865 115.117 90.9585 114.889 90.6825 114.685C90.4065 114.481 90.1125 114.319 89.8005 114.199C89.4885 114.079 89.1765 114.019 88.8645 114.019C88.3365 114.019 87.8625 114.151 87.4425 114.415C87.0345 114.667 86.7105 115.021 86.4705 115.477C86.2305 115.921 86.1105 116.425 86.1105 116.989C86.1105 117.553 86.2305 118.057 86.4705 118.501C86.7225 118.945 87.0585 119.299 87.4785 119.563C87.8985 119.827 88.3665 119.959 88.8825 119.959C89.1945 119.959 89.4945 119.911 89.7825 119.815C90.0825 119.707 90.3645 119.557 90.6285 119.365C90.8925 119.173 91.1385 118.933 91.3665 118.645L92.5905 120.139C92.1825 120.667 91.6185 121.099 90.8985 121.435C90.1905 121.759 89.4405 121.921 88.6485 121.921ZM93.2036 121.741V112.255H95.3816L95.4176 115.279L95.1116 114.595C95.2436 114.115 95.4716 113.683 95.7956 113.299C96.1196 112.915 96.4916 112.615 96.9116 112.399C97.3436 112.171 97.7936 112.057 98.2616 112.057C98.4656 112.057 98.6576 112.075 98.8376 112.111C99.0296 112.147 99.1856 112.189 99.3056 112.237L98.7116 114.667C98.5796 114.595 98.4176 114.535 98.2256 114.487C98.0336 114.439 97.8416 114.415 97.6496 114.415C97.3496 114.415 97.0616 114.475 96.7856 114.595C96.5216 114.703 96.2876 114.859 96.0836 115.063C95.8796 115.267 95.7176 115.507 95.5976 115.783C95.4896 116.047 95.4356 116.347 95.4356 116.683V121.741H93.2036ZM99.9518 121.741V112.255H102.166V121.741H99.9518ZM101.032 110.239C100.588 110.239 100.24 110.131 99.9878 109.915C99.7478 109.687 99.6278 109.369 99.6278 108.961C99.6278 108.577 99.7538 108.265 100.006 108.025C100.258 107.785 100.6 107.665 101.032 107.665C101.488 107.665 101.836 107.779 102.076 108.007C102.328 108.223 102.454 108.541 102.454 108.961C102.454 109.333 102.328 109.639 102.076 109.879C101.824 110.119 101.476 110.239 101.032 110.239ZM103.893 125.701V112.255H106.071L106.107 114.415L105.729 114.253C105.801 113.881 106.005 113.533 106.341 113.209C106.677 112.873 107.085 112.603 107.565 112.399C108.057 112.195 108.567 112.093 109.095 112.093C109.935 112.093 110.679 112.303 111.327 112.723C111.987 113.143 112.503 113.719 112.875 114.451C113.259 115.183 113.451 116.029 113.451 116.989C113.451 117.937 113.259 118.783 112.875 119.527C112.503 120.259 111.987 120.841 111.327 121.273C110.679 121.693 109.947 121.903 109.131 121.903C108.579 121.903 108.045 121.795 107.529 121.579C107.025 121.363 106.593 121.081 106.233 120.733C105.885 120.385 105.669 120.019 105.585 119.635L106.125 119.383V125.701H103.893ZM108.681 119.941C109.185 119.941 109.635 119.815 110.031 119.563C110.427 119.311 110.733 118.963 110.949 118.519C111.177 118.075 111.291 117.565 111.291 116.989C111.291 116.413 111.183 115.909 110.967 115.477C110.751 115.033 110.445 114.685 110.049 114.433C109.653 114.181 109.197 114.055 108.681 114.055C108.153 114.055 107.691 114.181 107.295 114.433C106.911 114.673 106.605 115.015 106.377 115.459C106.149 115.903 106.035 116.413 106.035 116.989C106.035 117.565 106.149 118.075 106.377 118.519C106.605 118.963 106.911 119.311 107.295 119.563C107.691 119.815 108.153 119.941 108.681 119.941ZM115.37 121.741V109.843H117.584V121.741H115.37ZM113.498 114.307V112.255H119.654V114.307H113.498ZM124.49 125.215V108.421H126.578V125.215H124.49ZM136.364 121.741L131.324 109.141H133.88L136.688 116.359C136.832 116.731 136.958 117.067 137.066 117.367C137.174 117.655 137.27 117.919 137.354 118.159C137.438 118.399 137.51 118.633 137.57 118.861C137.642 119.089 137.72 119.329 137.804 119.581H137.3C137.384 119.257 137.474 118.939 137.57 118.627C137.666 118.303 137.774 117.961 137.894 117.601C138.026 117.241 138.182 116.827 138.362 116.359L140.99 109.141H143.564L138.488 121.741H136.364ZM146.92 121.921C146.236 121.921 145.642 121.771 145.138 121.471C144.634 121.159 144.25 120.721 143.986 120.157C143.722 119.581 143.59 118.897 143.59 118.105V112.255H145.804V117.637C145.804 118.141 145.882 118.573 146.038 118.933C146.194 119.281 146.422 119.551 146.722 119.743C147.022 119.935 147.382 120.031 147.802 120.031C148.114 120.031 148.396 119.983 148.648 119.887C148.912 119.779 149.14 119.635 149.332 119.455C149.524 119.263 149.674 119.041 149.782 118.789C149.89 118.525 149.944 118.243 149.944 117.943V112.255H152.158V121.741H149.998L149.962 119.761L150.358 119.545C150.214 120.001 149.968 120.409 149.62 120.769C149.284 121.117 148.882 121.399 148.414 121.615C147.946 121.819 147.448 121.921 146.92 121.921ZM158.119 121.921C157.123 121.921 156.241 121.711 155.473 121.291C154.717 120.871 154.123 120.301 153.691 119.581C153.271 118.849 153.061 118.015 153.061 117.079C153.061 116.335 153.181 115.657 153.421 115.045C153.661 114.433 153.991 113.905 154.411 113.461C154.843 113.005 155.353 112.657 155.941 112.417C156.541 112.165 157.195 112.039 157.903 112.039C158.527 112.039 159.109 112.159 159.649 112.399C160.189 112.639 160.657 112.969 161.053 113.389C161.449 113.797 161.749 114.289 161.953 114.865C162.169 115.429 162.271 116.047 162.259 116.719L162.241 117.493H154.555L154.141 115.981H160.387L160.099 116.287V115.891C160.063 115.519 159.943 115.195 159.739 114.919C159.535 114.631 159.271 114.409 158.947 114.253C158.635 114.085 158.287 114.001 157.903 114.001C157.315 114.001 156.817 114.115 156.409 114.343C156.013 114.571 155.713 114.901 155.509 115.333C155.305 115.753 155.203 116.281 155.203 116.917C155.203 117.529 155.329 118.063 155.581 118.519C155.845 118.975 156.211 119.329 156.679 119.581C157.159 119.821 157.717 119.941 158.353 119.941C158.797 119.941 159.205 119.869 159.577 119.725C159.949 119.581 160.351 119.323 160.783 118.951L161.881 120.481C161.557 120.781 161.185 121.039 160.765 121.255C160.357 121.459 159.925 121.621 159.469 121.741C159.013 121.861 158.563 121.921 158.119 121.921ZM163.986 121.939C163.554 121.939 163.218 121.813 162.978 121.561C162.75 121.309 162.636 120.955 162.636 120.499C162.636 120.079 162.756 119.737 162.996 119.473C163.248 119.197 163.578 119.059 163.986 119.059C164.418 119.059 164.748 119.185 164.976 119.437C165.216 119.677 165.336 120.031 165.336 120.499C165.336 120.919 165.21 121.267 164.958 121.543C164.718 121.807 164.394 121.939 163.986 121.939ZM165.305 125.359L164.459 123.667C164.963 123.667 165.365 123.589 165.665 123.433C165.977 123.277 166.205 123.037 166.349 122.713C166.505 122.389 166.583 121.975 166.583 121.471V112.255H168.797V121.993C168.797 122.701 168.653 123.307 168.365 123.811C168.089 124.315 167.687 124.699 167.159 124.963C166.643 125.227 166.025 125.359 165.305 125.359ZM167.735 110.239C167.279 110.239 166.925 110.131 166.673 109.915C166.433 109.687 166.313 109.369 166.313 108.961C166.313 108.577 166.439 108.265 166.691 108.025C166.943 107.785 167.291 107.665 167.735 107.665C168.179 107.665 168.521 107.779 168.761 108.007C169.013 108.223 169.139 108.541 169.139 108.961C169.139 109.333 169.013 109.639 168.761 109.879C168.509 110.119 168.167 110.239 167.735 110.239ZM173.535 121.921C172.695 121.921 171.939 121.783 171.267 121.507C170.607 121.219 170.067 120.811 169.647 120.283L171.087 119.041C171.447 119.449 171.849 119.743 172.293 119.923C172.737 120.103 173.205 120.193 173.697 120.193C173.901 120.193 174.081 120.169 174.237 120.121C174.405 120.073 174.549 120.001 174.669 119.905C174.789 119.809 174.879 119.701 174.939 119.581C175.011 119.449 175.047 119.305 175.047 119.149C175.047 118.861 174.939 118.633 174.723 118.465C174.603 118.381 174.411 118.291 174.147 118.195C173.895 118.099 173.565 118.003 173.157 117.907C172.509 117.739 171.969 117.547 171.537 117.331C171.105 117.103 170.769 116.851 170.529 116.575C170.325 116.347 170.169 116.089 170.061 115.801C169.965 115.513 169.917 115.201 169.917 114.865C169.917 114.445 170.007 114.067 170.187 113.731C170.379 113.383 170.637 113.083 170.961 112.831C171.285 112.579 171.663 112.387 172.095 112.255C172.527 112.123 172.977 112.057 173.445 112.057C173.925 112.057 174.387 112.117 174.831 112.237C175.287 112.357 175.707 112.531 176.091 112.759C176.487 112.975 176.823 113.239 177.099 113.551L175.875 114.901C175.647 114.685 175.395 114.493 175.119 114.325C174.855 114.157 174.585 114.025 174.309 113.929C174.033 113.821 173.775 113.767 173.535 113.767C173.307 113.767 173.103 113.791 172.923 113.839C172.743 113.875 172.593 113.935 172.473 114.019C172.353 114.103 172.257 114.211 172.185 114.343C172.125 114.463 172.095 114.607 172.095 114.775C172.107 114.919 172.143 115.057 172.203 115.189C172.275 115.309 172.371 115.411 172.491 115.495C172.623 115.579 172.821 115.675 173.085 115.783C173.349 115.891 173.691 115.993 174.111 116.089C174.699 116.245 175.191 116.419 175.587 116.611C175.983 116.803 176.295 117.025 176.523 117.277C176.751 117.493 176.913 117.745 177.009 118.033C177.105 118.321 177.153 118.639 177.153 118.987C177.153 119.551 176.991 120.055 176.667 120.499C176.355 120.943 175.923 121.291 175.371 121.543C174.831 121.795 174.219 121.921 173.535 121.921ZM182.252 125.215V108.421H184.34V125.215H182.252ZM190.472 121.741V109.141H192.578L199.886 118.987L199.49 119.059C199.442 118.723 199.4 118.381 199.364 118.033C199.328 117.673 199.292 117.301 199.256 116.917C199.232 116.533 199.208 116.131 199.184 115.711C199.172 115.291 199.16 114.853 199.148 114.397C199.136 113.929 199.13 113.437 199.13 112.921V109.141H201.452V121.741H199.31L191.966 112.039L192.434 111.913C192.494 112.585 192.542 113.161 192.578 113.641C192.626 114.109 192.662 114.517 192.686 114.865C192.71 115.201 192.728 115.483 192.74 115.711C192.764 115.939 192.776 116.149 192.776 116.341C192.788 116.521 192.794 116.695 192.794 116.863V121.741H190.472ZM206.651 121.921C205.967 121.921 205.373 121.771 204.869 121.471C204.365 121.159 203.981 120.721 203.717 120.157C203.453 119.581 203.321 118.897 203.321 118.105V112.255H205.535V117.637C205.535 118.141 205.613 118.573 205.769 118.933C205.925 119.281 206.153 119.551 206.453 119.743C206.753 119.935 207.113 120.031 207.533 120.031C207.845 120.031 208.127 119.983 208.379 119.887C208.643 119.779 208.871 119.635 209.063 119.455C209.255 119.263 209.405 119.041 209.513 118.789C209.621 118.525 209.675 118.243 209.675 117.943V112.255H211.889V121.741H209.729L209.693 119.761L210.089 119.545C209.945 120.001 209.699 120.409 209.351 120.769C209.015 121.117 208.613 121.399 208.145 121.615C207.677 121.819 207.179 121.921 206.651 121.921ZM219.542 121.741L216.842 118.087L216.338 117.403L212.432 112.255H215.168L217.796 115.819L218.354 116.575L222.224 121.741H219.542ZM212.414 121.741L216.176 116.701L217.436 118.213L215.024 121.741H212.414ZM218.354 117.313L217.148 115.819L219.326 112.255H221.936L218.354 117.313ZM223.756 121.741V109.843H225.97V121.741H223.756ZM221.884 114.307V112.255H228.04V114.307H221.884ZM229.493 121.939C229.061 121.939 228.725 121.813 228.485 121.561C228.257 121.309 228.143 120.955 228.143 120.499C228.143 120.079 228.263 119.737 228.503 119.473C228.755 119.197 229.085 119.059 229.493 119.059C229.925 119.059 230.255 119.185 230.483 119.437C230.723 119.677 230.843 120.031 230.843 120.499C230.843 120.919 230.717 121.267 230.465 121.543C230.225 121.807 229.901 121.939 229.493 121.939ZM230.812 125.359L229.966 123.667C230.47 123.667 230.872 123.589 231.172 123.433C231.484 123.277 231.712 123.037 231.856 122.713C232.012 122.389 232.09 121.975 232.09 121.471V112.255H234.304V121.993C234.304 122.701 234.16 123.307 233.872 123.811C233.596 124.315 233.194 124.699 232.666 124.963C232.15 125.227 231.532 125.359 230.812 125.359ZM233.242 110.239C232.786 110.239 232.432 110.131 232.18 109.915C231.94 109.687 231.82 109.369 231.82 108.961C231.82 108.577 231.946 108.265 232.198 108.025C232.45 107.785 232.798 107.665 233.242 107.665C233.686 107.665 234.028 107.779 234.268 108.007C234.52 108.223 234.646 108.541 234.646 108.961C234.646 109.333 234.52 109.639 234.268 109.879C234.016 110.119 233.674 110.239 233.242 110.239ZM239.041 121.921C238.201 121.921 237.445 121.783 236.773 121.507C236.113 121.219 235.573 120.811 235.153 120.283L236.593 119.041C236.953 119.449 237.355 119.743 237.799 119.923C238.243 120.103 238.711 120.193 239.203 120.193C239.407 120.193 239.587 120.169 239.743 120.121C239.911 120.073 240.055 120.001 240.175 119.905C240.295 119.809 240.385 119.701 240.445 119.581C240.517 119.449 240.553 119.305 240.553 119.149C240.553 118.861 240.445 118.633 240.229 118.465C240.109 118.381 239.917 118.291 239.653 118.195C239.401 118.099 239.071 118.003 238.663 117.907C238.015 117.739 237.475 117.547 237.043 117.331C236.611 117.103 236.275 116.851 236.035 116.575C235.831 116.347 235.675 116.089 235.567 115.801C235.471 115.513 235.423 115.201 235.423 114.865C235.423 114.445 235.513 114.067 235.693 113.731C235.885 113.383 236.143 113.083 236.467 112.831C236.791 112.579 237.169 112.387 237.601 112.255C238.033 112.123 238.483 112.057 238.951 112.057C239.431 112.057 239.893 112.117 240.337 112.237C240.793 112.357 241.213 112.531 241.597 112.759C241.993 112.975 242.329 113.239 242.605 113.551L241.381 114.901C241.153 114.685 240.901 114.493 240.625 114.325C240.361 114.157 240.091 114.025 239.815 113.929C239.539 113.821 239.281 113.767 239.041 113.767C238.813 113.767 238.609 113.791 238.429 113.839C238.249 113.875 238.099 113.935 237.979 114.019C237.859 114.103 237.763 114.211 237.691 114.343C237.631 114.463 237.601 114.607 237.601 114.775C237.613 114.919 237.649 115.057 237.709 115.189C237.781 115.309 237.877 115.411 237.997 115.495C238.129 115.579 238.327 115.675 238.591 115.783C238.855 115.891 239.197 115.993 239.617 116.089C240.205 116.245 240.697 116.419 241.093 116.611C241.489 116.803 241.801 117.025 242.029 117.277C242.257 117.493 242.419 117.745 242.515 118.033C242.611 118.321 242.659 118.639 242.659 118.987C242.659 119.551 242.497 120.055 242.173 120.499C241.861 120.943 241.429 121.291 240.877 121.543C240.337 121.795 239.725 121.921 239.041 121.921Z" fill="white" fill-opacity="0.76"/>
<defs>
<radialGradient id="paint0_radial_1094_105" cx="0" cy="0" r="1" gradientUnits="userSpaceOnUse" gradientTransform="translate(201.623 55.5) rotate(34.3037) scale(381.978 127.736)">
<stop stop-color="white" stop-opacity="0.74"/>
<stop offset="0.585" stop-color="white" stop-opacity="0.91"/>
</radialGradient>
<linearGradient id="paint1_linear_1094_105" x1="105.549" y1="-18.5915" x2="176.909" y2="107.356" gradientUnits="userSpaceOnUse">
<stop stop-color="#C3A0F9" stop-opacity="0.4"/>
<stop offset="1" stop-color="white" stop-opacity="0"/>
</linearGradient>
<linearGradient id="paint2_linear_1094_105" x1="15" y1="115.241" x2="261.767" y2="115.241" gradientUnits="userSpaceOnUse">
<stop stop-color="#9D78F1"/>
<stop offset="0.283654" stop-color="#8886F2"/>
<stop offset="0.875" stop-color="#6C9AF5"/>
<stop offset="1" stop-color="#21ADFE"/>
</linearGradient>
</defs>
</svg>
