<svg width="83" height="35" viewBox="0 0 83 35" fill="none" xmlns="http://www.w3.org/2000/svg">
<path d="M3.13829 34.1479C2.73514 34.1479 2.35571 34.1123 2 34.0411C1.64429 33.9937 1.28857 33.9226 0.932857 33.8277V29.737C1.12257 29.8081 1.32414 29.8556 1.53757 29.8793C1.751 29.9267 1.97629 29.9504 2.21343 29.9504C2.83 29.9504 3.30429 29.7963 3.63629 29.488C3.96829 29.2034 4.13429 28.7647 4.13429 28.1719V8.35857H9.47V28.243C9.47 30.069 8.94829 31.5037 7.90486 32.5471C6.88514 33.6143 5.29629 34.1479 3.13829 34.1479ZM3.95643 5.93971V0.177141H9.64786V5.93971H3.95643ZM22.226 26.8557C20.234 26.8557 18.4791 26.4644 16.9614 25.6819C15.4674 24.8756 14.2935 23.761 13.4398 22.3381C12.6098 20.8916 12.1948 19.2316 12.1948 17.3581C12.1948 15.4847 12.6098 13.8484 13.4398 12.4493C14.2935 11.0501 15.4674 9.95928 16.9614 9.17671C18.4791 8.39414 20.234 8.00285 22.226 8.00285C24.2417 8.00285 25.9965 8.39414 27.4905 9.17671C29.0083 9.95928 30.1821 11.0501 31.0121 12.4493C31.8421 13.8484 32.2571 15.4847 32.2571 17.3581C32.2571 19.2316 31.8303 20.8916 30.9765 22.3381C30.1465 23.761 28.9727 24.8756 27.455 25.6819C25.961 26.4644 24.218 26.8557 22.226 26.8557ZM22.226 22.6583C23.056 22.6583 23.803 22.4449 24.467 22.018C25.1547 21.5911 25.7001 20.9864 26.1033 20.2039C26.5064 19.3976 26.708 18.4371 26.708 17.3226C26.708 15.6863 26.2693 14.4294 25.3918 13.552C24.5381 12.6509 23.4828 12.2003 22.226 12.2003C20.9691 12.2003 19.902 12.6509 19.0245 13.552C18.1708 14.4531 17.744 15.71 17.744 17.3226C17.744 18.4371 17.9455 19.3976 18.3487 20.2039C18.7518 20.9864 19.2854 21.5911 19.9494 22.018C20.6371 22.4449 21.396 22.6583 22.226 22.6583ZM35.0856 26.5V8.35857H40.3146V12.6271H40.4213V26.5H35.0856ZM47.7135 26.5V15.2594C47.7135 14.2634 47.4526 13.5164 46.9309 13.0184C46.4329 12.5204 45.6977 12.2714 44.7255 12.2714C43.8955 12.2714 43.1485 12.4611 42.4845 12.8406C41.8442 13.22 41.3343 13.7417 40.9549 14.4057C40.5992 15.0697 40.4213 15.8523 40.4213 16.7534L39.9589 12.3781C40.5517 11.0501 41.4173 9.99486 42.5556 9.21228C43.7176 8.406 45.1405 8.00285 46.8242 8.00285C48.8399 8.00285 50.3813 8.572 51.4485 9.71028C52.5156 10.8249 53.0492 12.3307 53.0492 14.2279V26.5H47.7135ZM65.6465 26.8557C63.6307 26.8557 61.8759 26.4644 60.3819 25.6819C58.8879 24.8756 57.7259 23.761 56.8959 22.3381C56.0896 20.9153 55.6865 19.279 55.6865 17.4293C55.6865 15.5559 56.0896 13.9196 56.8959 12.5204C57.7259 11.0976 58.876 9.99486 60.3463 9.21228C61.8166 8.406 63.524 8.00285 65.4686 8.00285C67.342 8.00285 68.9665 8.38228 70.3419 9.14114C71.7173 9.9 72.7845 10.9553 73.5433 12.307C74.3022 13.6587 74.6816 15.2476 74.6816 17.0736C74.6816 17.453 74.6697 17.8087 74.646 18.1407C74.6223 18.449 74.5867 18.7454 74.5393 19.03H58.8167V15.5084H70.2352L69.3103 16.1487C69.3103 14.6784 68.9546 13.5994 68.2432 12.9117C67.5555 12.2003 66.6069 11.8446 65.3975 11.8446C63.9983 11.8446 62.9075 12.3189 62.1249 13.2674C61.366 14.216 60.9866 15.6389 60.9866 17.536C60.9866 19.3857 61.366 20.7611 62.1249 21.6623C62.9075 22.5634 64.0695 23.014 65.6109 23.014C66.4646 23.014 67.1997 22.8717 67.8163 22.5871C68.4329 22.3026 68.8953 21.8401 69.2036 21.1999H74.2192C73.6263 22.9547 72.6066 24.342 71.16 25.3617C69.7372 26.3577 67.8993 26.8557 65.6465 26.8557Z" fill="#312C38"/>
<path d="M76.3193 26.5V20.6307H82.1886V26.5H76.3193Z" fill="#8B5CF6"/>
</svg>
