<svg width="320" height="134" viewBox="0 0 320 134" fill="none" xmlns="http://www.w3.org/2000/svg">
<rect x="38.5" y="0.5" width="248" height="110" rx="26.85" fill="url(#paint0_radial_1094_91)" fill-opacity="0.8"/>
<rect x="38.5" y="0.5" width="248" height="110" rx="26.85" stroke="url(#paint1_linear_1094_91)"/>
<path d="M95.66 62.108C94.688 62.108 93.818 61.898 93.05 61.478C92.282 61.046 91.676 60.458 91.232 59.714C90.8 58.958 90.584 58.106 90.584 57.158V49.382H92.528V56.996C92.528 57.608 92.672 58.16 92.96 58.652C93.248 59.132 93.626 59.516 94.094 59.804C94.574 60.092 95.096 60.236 95.66 60.236C96.26 60.236 96.8 60.092 97.28 59.804C97.772 59.516 98.162 59.132 98.45 58.652C98.738 58.16 98.882 57.608 98.882 56.996V49.382H100.736V57.158C100.736 58.106 100.514 58.958 100.07 59.714C99.638 60.458 99.038 61.046 98.27 61.478C97.502 61.898 96.632 62.108 95.66 62.108ZM111.58 62L107.674 56.348L102.67 49.4H105.136L108.952 54.98L114.046 62H111.58ZM102.58 62L107.386 55.142L108.592 56.564L104.866 62H102.58ZM109.24 56.15L108.052 54.782L111.58 49.4H113.866L109.24 56.15ZM114.795 64.376L122.211 49.4H123.993L116.595 64.376H114.795ZM131.15 62.108C130.178 62.108 129.308 61.898 128.54 61.478C127.772 61.046 127.166 60.458 126.722 59.714C126.29 58.958 126.074 58.106 126.074 57.158V49.382H128.018V56.996C128.018 57.608 128.162 58.16 128.45 58.652C128.738 59.132 129.116 59.516 129.584 59.804C130.064 60.092 130.586 60.236 131.15 60.236C131.75 60.236 132.29 60.092 132.77 59.804C133.262 59.516 133.652 59.132 133.94 58.652C134.228 58.16 134.372 57.608 134.372 56.996V49.382H136.226V57.158C136.226 58.106 136.004 58.958 135.56 59.714C135.128 60.458 134.528 61.046 133.76 61.478C132.992 61.898 132.122 62.108 131.15 62.108ZM139.11 62V60.2H141.144V51.2H139.11V49.4H145.122V51.2H143.088V60.2H145.122V62H139.11ZM157.107 62.18C156.423 62.18 155.787 62.09 155.199 61.91C154.623 61.73 154.095 61.46 153.615 61.1C153.147 60.728 152.727 60.272 152.355 59.732L153.687 58.202C154.275 59.042 154.839 59.624 155.379 59.948C155.919 60.272 156.561 60.434 157.305 60.434C157.761 60.434 158.175 60.362 158.547 60.218C158.919 60.074 159.213 59.876 159.429 59.624C159.645 59.372 159.753 59.084 159.753 58.76C159.753 58.544 159.717 58.34 159.645 58.148C159.573 57.956 159.459 57.782 159.303 57.626C159.159 57.47 158.967 57.326 158.727 57.194C158.499 57.062 158.229 56.948 157.917 56.852C157.605 56.744 157.245 56.654 156.837 56.582C156.189 56.45 155.625 56.276 155.145 56.06C154.665 55.844 154.263 55.574 153.939 55.25C153.615 54.926 153.375 54.56 153.219 54.152C153.063 53.732 152.985 53.264 152.985 52.748C152.985 52.244 153.093 51.776 153.309 51.344C153.537 50.912 153.843 50.54 154.227 50.228C154.623 49.904 155.085 49.658 155.613 49.49C156.141 49.31 156.711 49.22 157.323 49.22C157.971 49.22 158.565 49.304 159.105 49.472C159.645 49.64 160.125 49.892 160.545 50.228C160.965 50.552 161.313 50.954 161.589 51.434L160.221 52.784C159.981 52.388 159.711 52.058 159.411 51.794C159.111 51.518 158.781 51.314 158.421 51.182C158.061 51.038 157.677 50.966 157.269 50.966C156.801 50.966 156.393 51.038 156.045 51.182C155.697 51.326 155.421 51.53 155.217 51.794C155.025 52.046 154.929 52.346 154.929 52.694C154.929 52.946 154.977 53.18 155.073 53.396C155.169 53.6 155.313 53.786 155.505 53.954C155.709 54.11 155.979 54.254 156.315 54.386C156.651 54.506 157.053 54.614 157.521 54.71C158.181 54.854 158.769 55.04 159.285 55.268C159.801 55.484 160.239 55.742 160.599 56.042C160.959 56.342 161.229 56.678 161.409 57.05C161.601 57.422 161.697 57.824 161.697 58.256C161.697 59.06 161.511 59.756 161.139 60.344C160.767 60.932 160.239 61.388 159.555 61.712C158.871 62.024 158.055 62.18 157.107 62.18ZM163.984 65.96V52.55H165.856V54.71L165.568 54.548C165.64 54.188 165.844 53.846 166.18 53.522C166.516 53.186 166.924 52.916 167.404 52.712C167.896 52.496 168.4 52.388 168.916 52.388C169.768 52.388 170.524 52.598 171.184 53.018C171.844 53.438 172.366 54.014 172.75 54.746C173.134 55.478 173.326 56.318 173.326 57.266C173.326 58.202 173.134 59.042 172.75 59.786C172.378 60.518 171.862 61.1 171.202 61.532C170.542 61.952 169.798 62.162 168.97 62.162C168.418 62.162 167.884 62.054 167.368 61.838C166.852 61.61 166.414 61.322 166.054 60.974C165.694 60.626 165.472 60.266 165.388 59.894L165.856 59.642V65.96H163.984ZM168.664 60.452C169.216 60.452 169.708 60.314 170.14 60.038C170.572 59.762 170.914 59.384 171.166 58.904C171.418 58.424 171.544 57.878 171.544 57.266C171.544 56.654 171.418 56.114 171.166 55.646C170.926 55.166 170.59 54.788 170.158 54.512C169.726 54.236 169.228 54.098 168.664 54.098C168.1 54.098 167.602 54.236 167.17 54.512C166.738 54.776 166.396 55.148 166.144 55.628C165.892 56.108 165.766 56.654 165.766 57.266C165.766 57.878 165.892 58.424 166.144 58.904C166.396 59.384 166.738 59.762 167.17 60.038C167.602 60.314 168.1 60.452 168.664 60.452ZM179.749 62.18C178.777 62.18 177.913 61.976 177.157 61.568C176.413 61.148 175.825 60.578 175.393 59.858C174.973 59.138 174.763 58.31 174.763 57.374C174.763 56.63 174.883 55.952 175.123 55.34C175.363 54.728 175.693 54.2 176.113 53.756C176.545 53.3 177.055 52.952 177.643 52.712C178.243 52.46 178.891 52.334 179.587 52.334C180.199 52.334 180.769 52.454 181.297 52.694C181.825 52.922 182.281 53.24 182.665 53.648C183.061 54.056 183.361 54.542 183.565 55.106C183.781 55.658 183.883 56.264 183.871 56.924L183.853 57.716H176.131L175.717 56.24H182.251L181.981 56.546V56.114C181.945 55.718 181.813 55.364 181.585 55.052C181.357 54.74 181.069 54.494 180.721 54.314C180.373 54.134 179.995 54.044 179.587 54.044C178.939 54.044 178.393 54.17 177.949 54.422C177.505 54.662 177.169 55.022 176.941 55.502C176.713 55.97 176.599 56.552 176.599 57.248C176.599 57.908 176.737 58.484 177.013 58.976C177.289 59.456 177.679 59.828 178.183 60.092C178.687 60.356 179.269 60.488 179.929 60.488C180.397 60.488 180.829 60.41 181.225 60.254C181.633 60.098 182.071 59.816 182.539 59.408L183.475 60.722C183.187 61.01 182.833 61.262 182.413 61.478C182.005 61.694 181.567 61.868 181.099 62C180.643 62.12 180.193 62.18 179.749 62.18ZM189.9 62.18C189.024 62.18 188.238 61.964 187.542 61.532C186.858 61.1 186.312 60.512 185.904 59.768C185.508 59.024 185.31 58.19 185.31 57.266C185.31 56.342 185.508 55.508 185.904 54.764C186.312 54.02 186.858 53.432 187.542 53C188.238 52.568 189.024 52.352 189.9 52.352C190.74 52.352 191.502 52.526 192.186 52.874C192.882 53.21 193.41 53.672 193.77 54.26L192.744 55.52C192.552 55.244 192.306 54.992 192.006 54.764C191.706 54.536 191.388 54.356 191.052 54.224C190.716 54.092 190.392 54.026 190.08 54.026C189.504 54.026 188.988 54.17 188.532 54.458C188.088 54.734 187.734 55.118 187.47 55.61C187.206 56.102 187.074 56.654 187.074 57.266C187.074 57.878 187.212 58.43 187.488 58.922C187.764 59.402 188.13 59.786 188.586 60.074C189.042 60.362 189.546 60.506 190.098 60.506C190.422 60.506 190.734 60.452 191.034 60.344C191.346 60.236 191.646 60.074 191.934 59.858C192.222 59.642 192.492 59.378 192.744 59.066L193.77 60.326C193.386 60.866 192.834 61.31 192.114 61.658C191.406 62.006 190.668 62.18 189.9 62.18ZM195.825 62V52.55H197.679V62H195.825ZM196.725 50.462C196.329 50.462 196.023 50.36 195.807 50.156C195.591 49.952 195.483 49.664 195.483 49.292C195.483 48.944 195.591 48.662 195.807 48.446C196.035 48.23 196.341 48.122 196.725 48.122C197.121 48.122 197.427 48.224 197.643 48.428C197.859 48.632 197.967 48.92 197.967 49.292C197.967 49.64 197.853 49.922 197.625 50.138C197.409 50.354 197.109 50.462 196.725 50.462ZM204.164 62.18C203.384 62.18 202.67 61.964 202.022 61.532C201.386 61.1 200.876 60.512 200.492 59.768C200.108 59.024 199.916 58.184 199.916 57.248C199.916 56.3 200.108 55.46 200.492 54.728C200.888 53.984 201.416 53.402 202.076 52.982C202.748 52.562 203.498 52.352 204.326 52.352C204.818 52.352 205.268 52.424 205.676 52.568C206.084 52.712 206.438 52.916 206.738 53.18C207.05 53.432 207.302 53.726 207.494 54.062C207.698 54.398 207.824 54.758 207.872 55.142L207.458 54.998V52.55H209.33V62H207.458V59.75L207.89 59.624C207.818 59.948 207.668 60.266 207.44 60.578C207.224 60.878 206.942 61.148 206.594 61.388C206.258 61.628 205.88 61.82 205.46 61.964C205.052 62.108 204.62 62.18 204.164 62.18ZM204.65 60.47C205.214 60.47 205.712 60.332 206.144 60.056C206.576 59.78 206.912 59.402 207.152 58.922C207.404 58.43 207.53 57.872 207.53 57.248C207.53 56.636 207.404 56.09 207.152 55.61C206.912 55.13 206.576 54.752 206.144 54.476C205.712 54.2 205.214 54.062 204.65 54.062C204.098 54.062 203.606 54.2 203.174 54.476C202.754 54.752 202.418 55.13 202.166 55.61C201.926 56.09 201.806 56.636 201.806 57.248C201.806 57.872 201.926 58.43 202.166 58.922C202.418 59.402 202.754 59.78 203.174 60.056C203.606 60.332 204.098 60.47 204.65 60.47ZM211.955 62V48.68H213.809V62H211.955ZM216.743 62V52.55H218.597V62H216.743ZM217.643 50.462C217.247 50.462 216.941 50.36 216.725 50.156C216.509 49.952 216.401 49.664 216.401 49.292C216.401 48.944 216.509 48.662 216.725 48.446C216.953 48.23 217.259 48.122 217.643 48.122C218.039 48.122 218.345 48.224 218.561 48.428C218.777 48.632 218.885 48.92 218.885 49.292C218.885 49.64 218.771 49.922 218.543 50.138C218.327 50.354 218.027 50.462 217.643 50.462ZM224.596 62.18C223.804 62.18 223.09 62.042 222.454 61.766C221.818 61.49 221.29 61.082 220.87 60.542L222.13 59.462C222.49 59.882 222.88 60.188 223.3 60.38C223.732 60.56 224.218 60.65 224.758 60.65C224.974 60.65 225.172 60.626 225.352 60.578C225.544 60.518 225.706 60.434 225.838 60.326C225.982 60.218 226.09 60.092 226.162 59.948C226.234 59.792 226.27 59.624 226.27 59.444C226.27 59.132 226.156 58.88 225.928 58.688C225.808 58.604 225.616 58.514 225.352 58.418C225.1 58.31 224.77 58.202 224.362 58.094C223.666 57.914 223.096 57.71 222.652 57.482C222.208 57.254 221.866 56.996 221.626 56.708C221.446 56.48 221.314 56.234 221.23 55.97C221.146 55.694 221.104 55.394 221.104 55.07C221.104 54.674 221.188 54.314 221.356 53.99C221.536 53.654 221.776 53.366 222.076 53.126C222.388 52.874 222.748 52.682 223.156 52.55C223.576 52.418 224.02 52.352 224.488 52.352C224.932 52.352 225.37 52.412 225.802 52.532C226.246 52.652 226.654 52.826 227.026 53.054C227.398 53.282 227.71 53.552 227.962 53.864L226.9 55.034C226.672 54.806 226.42 54.608 226.144 54.44C225.88 54.26 225.61 54.122 225.334 54.026C225.058 53.93 224.806 53.882 224.578 53.882C224.326 53.882 224.098 53.906 223.894 53.954C223.69 54.002 223.516 54.074 223.372 54.17C223.24 54.266 223.138 54.386 223.066 54.53C222.994 54.674 222.958 54.836 222.958 55.016C222.97 55.172 223.006 55.322 223.066 55.466C223.138 55.598 223.234 55.712 223.354 55.808C223.486 55.904 223.684 56.006 223.948 56.114C224.212 56.222 224.548 56.324 224.956 56.42C225.556 56.576 226.048 56.75 226.432 56.942C226.828 57.122 227.14 57.332 227.368 57.572C227.608 57.8 227.776 58.064 227.872 58.364C227.968 58.664 228.016 59 228.016 59.372C228.016 59.912 227.86 60.398 227.548 60.83C227.248 61.25 226.84 61.58 226.324 61.82C225.808 62.06 225.232 62.18 224.596 62.18ZM231.23 62V50.138H233.084V62H231.23ZM229.268 54.35V52.55H235.28V54.35H229.268Z" fill="#3C3842"/>
<rect y="97" width="319.767" height="36.4814" rx="18.2407" fill="url(#paint2_linear_1094_91)"/>
<path d="M20.1907 121.741V109.141H25.2487C26.1607 109.141 26.9827 109.291 27.7147 109.591C28.4587 109.891 29.0947 110.323 29.6227 110.887C30.1627 111.451 30.5707 112.117 30.8467 112.885C31.1347 113.653 31.2787 114.505 31.2787 115.441C31.2787 116.377 31.1347 117.235 30.8467 118.015C30.5707 118.783 30.1687 119.449 29.6407 120.013C29.1127 120.565 28.4767 120.991 27.7327 121.291C26.9887 121.591 26.1607 121.741 25.2487 121.741H20.1907ZM22.5307 119.923L22.3507 119.581H25.1587C25.7467 119.581 26.2687 119.485 26.7247 119.293C27.1927 119.101 27.5887 118.825 27.9127 118.465C28.2367 118.105 28.4827 117.673 28.6507 117.169C28.8187 116.653 28.9027 116.077 28.9027 115.441C28.9027 114.805 28.8187 114.235 28.6507 113.731C28.4827 113.215 28.2307 112.777 27.8947 112.417C27.5707 112.057 27.1807 111.781 26.7247 111.589C26.2687 111.397 25.7467 111.301 25.1587 111.301H22.2967L22.5307 110.995V119.923ZM36.7838 121.921C35.7878 121.921 34.9058 121.711 34.1378 121.291C33.3818 120.871 32.7878 120.301 32.3558 119.581C31.9358 118.849 31.7258 118.015 31.7258 117.079C31.7258 116.335 31.8458 115.657 32.0858 115.045C32.3258 114.433 32.6558 113.905 33.0758 113.461C33.5078 113.005 34.0178 112.657 34.6058 112.417C35.2058 112.165 35.8598 112.039 36.5678 112.039C37.1918 112.039 37.7738 112.159 38.3138 112.399C38.8538 112.639 39.3218 112.969 39.7178 113.389C40.1138 113.797 40.4138 114.289 40.6178 114.865C40.8338 115.429 40.9358 116.047 40.9238 116.719L40.9058 117.493H33.2198L32.8058 115.981H39.0518L38.7638 116.287V115.891C38.7278 115.519 38.6078 115.195 38.4038 114.919C38.1998 114.631 37.9358 114.409 37.6118 114.253C37.2998 114.085 36.9518 114.001 36.5678 114.001C35.9798 114.001 35.4818 114.115 35.0738 114.343C34.6778 114.571 34.3778 114.901 34.1738 115.333C33.9698 115.753 33.8678 116.281 33.8678 116.917C33.8678 117.529 33.9938 118.063 34.2458 118.519C34.5098 118.975 34.8758 119.329 35.3438 119.581C35.8238 119.821 36.3818 119.941 37.0178 119.941C37.4618 119.941 37.8698 119.869 38.2418 119.725C38.6138 119.581 39.0158 119.323 39.4478 118.951L40.5458 120.481C40.2218 120.781 39.8498 121.039 39.4298 121.255C39.0218 121.459 38.5898 121.621 38.1338 121.741C37.6778 121.861 37.2278 121.921 36.7838 121.921ZM44.9726 121.921C44.1326 121.921 43.3766 121.783 42.7046 121.507C42.0446 121.219 41.5046 120.811 41.0846 120.283L42.5246 119.041C42.8846 119.449 43.2866 119.743 43.7306 119.923C44.1746 120.103 44.6426 120.193 45.1346 120.193C45.3386 120.193 45.5186 120.169 45.6746 120.121C45.8426 120.073 45.9866 120.001 46.1066 119.905C46.2266 119.809 46.3166 119.701 46.3766 119.581C46.4486 119.449 46.4846 119.305 46.4846 119.149C46.4846 118.861 46.3766 118.633 46.1606 118.465C46.0406 118.381 45.8486 118.291 45.5846 118.195C45.3326 118.099 45.0026 118.003 44.5946 117.907C43.9466 117.739 43.4066 117.547 42.9746 117.331C42.5426 117.103 42.2066 116.851 41.9666 116.575C41.7626 116.347 41.6066 116.089 41.4986 115.801C41.4026 115.513 41.3546 115.201 41.3546 114.865C41.3546 114.445 41.4446 114.067 41.6246 113.731C41.8166 113.383 42.0746 113.083 42.3986 112.831C42.7226 112.579 43.1006 112.387 43.5326 112.255C43.9646 112.123 44.4146 112.057 44.8826 112.057C45.3626 112.057 45.8246 112.117 46.2686 112.237C46.7246 112.357 47.1446 112.531 47.5286 112.759C47.9246 112.975 48.2606 113.239 48.5366 113.551L47.3126 114.901C47.0846 114.685 46.8326 114.493 46.5566 114.325C46.2926 114.157 46.0226 114.025 45.7466 113.929C45.4706 113.821 45.2126 113.767 44.9726 113.767C44.7446 113.767 44.5406 113.791 44.3606 113.839C44.1806 113.875 44.0306 113.935 43.9106 114.019C43.7906 114.103 43.6946 114.211 43.6226 114.343C43.5626 114.463 43.5326 114.607 43.5326 114.775C43.5446 114.919 43.5806 115.057 43.6406 115.189C43.7126 115.309 43.8086 115.411 43.9286 115.495C44.0606 115.579 44.2586 115.675 44.5226 115.783C44.7866 115.891 45.1286 115.993 45.5486 116.089C46.1366 116.245 46.6286 116.419 47.0246 116.611C47.4206 116.803 47.7326 117.025 47.9606 117.277C48.1886 117.493 48.3506 117.745 48.4466 118.033C48.5426 118.321 48.5906 118.639 48.5906 118.987C48.5906 119.551 48.4286 120.055 48.1046 120.499C47.7926 120.943 47.3606 121.291 46.8086 121.543C46.2686 121.795 45.6566 121.921 44.9726 121.921ZM49.713 121.741V112.255H51.927V121.741H49.713ZM50.793 110.239C50.349 110.239 50.001 110.131 49.749 109.915C49.509 109.687 49.389 109.369 49.389 108.961C49.389 108.577 49.515 108.265 49.767 108.025C50.019 107.785 50.361 107.665 50.793 107.665C51.249 107.665 51.597 107.779 51.837 108.007C52.089 108.223 52.215 108.541 52.215 108.961C52.215 109.333 52.089 109.639 51.837 109.879C51.585 110.119 51.237 110.239 50.793 110.239ZM57.9204 125.881C57.2124 125.881 56.5044 125.773 55.7964 125.557C55.1004 125.341 54.5364 125.059 54.1044 124.711L54.8964 123.073C55.1484 123.253 55.4304 123.409 55.7424 123.541C56.0544 123.673 56.3844 123.775 56.7324 123.847C57.0924 123.919 57.4464 123.955 57.7944 123.955C58.4304 123.955 58.9584 123.853 59.3784 123.649C59.8104 123.457 60.1344 123.157 60.3504 122.749C60.5664 122.353 60.6744 121.855 60.6744 121.255V119.509L60.9984 119.635C60.9264 120.007 60.7284 120.361 60.4044 120.697C60.0804 121.033 59.6724 121.309 59.1804 121.525C58.6884 121.729 58.1844 121.831 57.6684 121.831C56.7684 121.831 55.9704 121.621 55.2744 121.201C54.5904 120.781 54.0444 120.211 53.6364 119.491C53.2404 118.759 53.0424 117.919 53.0424 116.971C53.0424 116.023 53.2404 115.183 53.6364 114.451C54.0324 113.707 54.5724 113.125 55.2564 112.705C55.9524 112.273 56.7324 112.057 57.5964 112.057C57.9564 112.057 58.3044 112.099 58.6404 112.183C58.9764 112.267 59.2824 112.387 59.5584 112.543C59.8464 112.699 60.1044 112.873 60.3324 113.065C60.5604 113.257 60.7464 113.461 60.8904 113.677C61.0344 113.893 61.1244 114.103 61.1604 114.307L60.6924 114.451L60.7284 112.255H62.9064V121.093C62.9064 121.861 62.7924 122.539 62.5644 123.127C62.3364 123.715 62.0064 124.213 61.5744 124.621C61.1424 125.041 60.6204 125.353 60.0084 125.557C59.3964 125.773 58.7004 125.881 57.9204 125.881ZM58.0104 119.941C58.5504 119.941 59.0244 119.815 59.4324 119.563C59.8524 119.311 60.1764 118.963 60.4044 118.519C60.6324 118.075 60.7464 117.565 60.7464 116.989C60.7464 116.401 60.6264 115.885 60.3864 115.441C60.1584 114.985 59.8404 114.631 59.4324 114.379C59.0244 114.127 58.5504 114.001 58.0104 114.001C57.4704 114.001 56.9964 114.133 56.5884 114.397C56.1804 114.649 55.8564 115.003 55.6164 115.459C55.3884 115.903 55.2744 116.413 55.2744 116.989C55.2744 117.553 55.3884 118.063 55.6164 118.519C55.8564 118.963 56.1804 119.311 56.5884 119.563C56.9964 119.815 57.4704 119.941 58.0104 119.941ZM64.3869 121.741V112.255H66.5469L66.5829 114.199L66.1689 114.415C66.2889 113.983 66.5229 113.593 66.8709 113.245C67.2189 112.885 67.6329 112.597 68.1129 112.381C68.5929 112.165 69.0849 112.057 69.5889 112.057C70.3089 112.057 70.9089 112.201 71.3889 112.489C71.8809 112.777 72.2469 113.209 72.4869 113.785C72.7389 114.361 72.8649 115.081 72.8649 115.945V121.741H70.6509V116.107C70.6509 115.627 70.5849 115.231 70.4529 114.919C70.3209 114.595 70.1169 114.361 69.8409 114.217C69.5649 114.061 69.2289 113.989 68.8329 114.001C68.5089 114.001 68.2089 114.055 67.9329 114.163C67.6689 114.259 67.4349 114.403 67.2309 114.595C67.0389 114.775 66.8829 114.985 66.7629 115.225C66.6549 115.465 66.6009 115.729 66.6009 116.017V121.741H65.5029C65.2869 121.741 65.0829 121.741 64.8909 121.741C64.7109 121.741 64.5429 121.741 64.3869 121.741ZM81.4027 121.741V111.301H77.8027V109.141H87.4507V111.301H83.7427V121.741H81.4027ZM88.27 121.741V108.421H90.466V114.199L90.052 114.415C90.172 113.983 90.406 113.593 90.754 113.245C91.102 112.885 91.516 112.597 91.996 112.381C92.476 112.165 92.968 112.057 93.472 112.057C94.192 112.057 94.792 112.201 95.272 112.489C95.764 112.777 96.13 113.209 96.37 113.785C96.622 114.361 96.748 115.081 96.748 115.945V121.741H94.534V116.107C94.534 115.627 94.468 115.231 94.336 114.919C94.204 114.595 94 114.361 93.724 114.217C93.448 114.061 93.112 113.989 92.716 114.001C92.392 114.001 92.092 114.055 91.816 114.163C91.552 114.259 91.318 114.403 91.114 114.595C90.922 114.775 90.766 114.985 90.646 115.225C90.538 115.465 90.484 115.729 90.484 116.017V121.741H89.386C89.17 121.741 88.966 121.741 88.774 121.741C88.594 121.741 88.426 121.741 88.27 121.741ZM98.4107 121.741V112.255H100.625V121.741H98.4107ZM99.4907 110.239C99.0467 110.239 98.6987 110.131 98.4467 109.915C98.2067 109.687 98.0867 109.369 98.0867 108.961C98.0867 108.577 98.2127 108.265 98.4647 108.025C98.7167 107.785 99.0587 107.665 99.4907 107.665C99.9467 107.665 100.295 107.779 100.535 108.007C100.787 108.223 100.913 108.541 100.913 108.961C100.913 109.333 100.787 109.639 100.535 109.879C100.283 110.119 99.9347 110.239 99.4907 110.239ZM102.352 121.741V112.255H104.512L104.548 114.199L104.134 114.415C104.254 113.983 104.488 113.593 104.836 113.245C105.184 112.885 105.598 112.597 106.078 112.381C106.558 112.165 107.05 112.057 107.554 112.057C108.274 112.057 108.874 112.201 109.354 112.489C109.846 112.777 110.212 113.209 110.452 113.785C110.704 114.361 110.83 115.081 110.83 115.945V121.741H108.616V116.107C108.616 115.627 108.55 115.231 108.418 114.919C108.286 114.595 108.082 114.361 107.806 114.217C107.53 114.061 107.194 113.989 106.798 114.001C106.474 114.001 106.174 114.055 105.898 114.163C105.634 114.259 105.4 114.403 105.196 114.595C105.004 114.775 104.848 114.985 104.728 115.225C104.62 115.465 104.566 115.729 104.566 116.017V121.741H103.468C103.252 121.741 103.048 121.741 102.856 121.741C102.676 121.741 102.508 121.741 102.352 121.741ZM114.311 118.843L113.879 116.773L118.379 112.255H121.331L114.311 118.843ZM112.241 121.741V108.421H114.455V121.741H112.241ZM118.649 121.741L115.157 117.511L116.723 116.179L121.385 121.741H118.649ZM122.013 121.741V112.255H124.227V121.741H122.013ZM123.093 110.239C122.649 110.239 122.301 110.131 122.049 109.915C121.809 109.687 121.689 109.369 121.689 108.961C121.689 108.577 121.815 108.265 122.067 108.025C122.319 107.785 122.661 107.665 123.093 107.665C123.549 107.665 123.897 107.779 124.137 108.007C124.389 108.223 124.515 108.541 124.515 108.961C124.515 109.333 124.389 109.639 124.137 109.879C123.885 110.119 123.537 110.239 123.093 110.239ZM125.954 121.741V112.255H128.114L128.15 114.199L127.736 114.415C127.856 113.983 128.09 113.593 128.438 113.245C128.786 112.885 129.2 112.597 129.68 112.381C130.16 112.165 130.652 112.057 131.156 112.057C131.876 112.057 132.476 112.201 132.956 112.489C133.448 112.777 133.814 113.209 134.054 113.785C134.306 114.361 134.432 115.081 134.432 115.945V121.741H132.218V116.107C132.218 115.627 132.152 115.231 132.02 114.919C131.888 114.595 131.684 114.361 131.408 114.217C131.132 114.061 130.796 113.989 130.4 114.001C130.076 114.001 129.776 114.055 129.5 114.163C129.236 114.259 129.002 114.403 128.798 114.595C128.606 114.775 128.45 114.985 128.33 115.225C128.222 115.465 128.168 115.729 128.168 116.017V121.741H127.07C126.854 121.741 126.65 121.741 126.458 121.741C126.278 121.741 126.11 121.741 125.954 121.741ZM140.109 125.881C139.401 125.881 138.693 125.773 137.985 125.557C137.289 125.341 136.725 125.059 136.293 124.711L137.085 123.073C137.337 123.253 137.619 123.409 137.931 123.541C138.243 123.673 138.573 123.775 138.921 123.847C139.281 123.919 139.635 123.955 139.983 123.955C140.619 123.955 141.147 123.853 141.567 123.649C141.999 123.457 142.323 123.157 142.539 122.749C142.755 122.353 142.863 121.855 142.863 121.255V119.509L143.187 119.635C143.115 120.007 142.917 120.361 142.593 120.697C142.269 121.033 141.861 121.309 141.369 121.525C140.877 121.729 140.373 121.831 139.857 121.831C138.957 121.831 138.159 121.621 137.463 121.201C136.779 120.781 136.233 120.211 135.825 119.491C135.429 118.759 135.231 117.919 135.231 116.971C135.231 116.023 135.429 115.183 135.825 114.451C136.221 113.707 136.761 113.125 137.445 112.705C138.141 112.273 138.921 112.057 139.785 112.057C140.145 112.057 140.493 112.099 140.829 112.183C141.165 112.267 141.471 112.387 141.747 112.543C142.035 112.699 142.293 112.873 142.521 113.065C142.749 113.257 142.935 113.461 143.079 113.677C143.223 113.893 143.313 114.103 143.349 114.307L142.881 114.451L142.917 112.255H145.095V121.093C145.095 121.861 144.981 122.539 144.753 123.127C144.525 123.715 144.195 124.213 143.763 124.621C143.331 125.041 142.809 125.353 142.197 125.557C141.585 125.773 140.889 125.881 140.109 125.881ZM140.199 119.941C140.739 119.941 141.213 119.815 141.621 119.563C142.041 119.311 142.365 118.963 142.593 118.519C142.821 118.075 142.935 117.565 142.935 116.989C142.935 116.401 142.815 115.885 142.575 115.441C142.347 114.985 142.029 114.631 141.621 114.379C141.213 114.127 140.739 114.001 140.199 114.001C139.659 114.001 139.185 114.133 138.777 114.397C138.369 114.649 138.045 115.003 137.805 115.459C137.577 115.903 137.463 116.413 137.463 116.989C137.463 117.553 137.577 118.063 137.805 118.519C138.045 118.963 138.369 119.311 138.777 119.563C139.185 119.815 139.659 119.941 140.199 119.941ZM150.804 125.215V108.421H152.892V125.215H150.804ZM159.024 121.741V109.141H161.364V121.741H159.024ZM160.104 116.575V114.451H166.602V116.575H160.104ZM160.104 111.301V109.141H167.376V111.301H160.104ZM168.751 121.741V112.255H170.965V121.741H168.751ZM169.831 110.239C169.387 110.239 169.039 110.131 168.787 109.915C168.547 109.687 168.427 109.369 168.427 108.961C168.427 108.577 168.553 108.265 168.805 108.025C169.057 107.785 169.399 107.665 169.831 107.665C170.287 107.665 170.635 107.779 170.875 108.007C171.127 108.223 171.253 108.541 171.253 108.961C171.253 109.333 171.127 109.639 170.875 109.879C170.623 110.119 170.275 110.239 169.831 110.239ZM176.959 125.881C176.251 125.881 175.543 125.773 174.835 125.557C174.139 125.341 173.575 125.059 173.143 124.711L173.935 123.073C174.187 123.253 174.469 123.409 174.781 123.541C175.093 123.673 175.423 123.775 175.771 123.847C176.131 123.919 176.485 123.955 176.833 123.955C177.469 123.955 177.997 123.853 178.417 123.649C178.849 123.457 179.173 123.157 179.389 122.749C179.605 122.353 179.713 121.855 179.713 121.255V119.509L180.037 119.635C179.965 120.007 179.767 120.361 179.443 120.697C179.119 121.033 178.711 121.309 178.219 121.525C177.727 121.729 177.223 121.831 176.707 121.831C175.807 121.831 175.009 121.621 174.313 121.201C173.629 120.781 173.083 120.211 172.675 119.491C172.279 118.759 172.081 117.919 172.081 116.971C172.081 116.023 172.279 115.183 172.675 114.451C173.071 113.707 173.611 113.125 174.295 112.705C174.991 112.273 175.771 112.057 176.635 112.057C176.995 112.057 177.343 112.099 177.679 112.183C178.015 112.267 178.321 112.387 178.597 112.543C178.885 112.699 179.143 112.873 179.371 113.065C179.599 113.257 179.785 113.461 179.929 113.677C180.073 113.893 180.163 114.103 180.199 114.307L179.731 114.451L179.767 112.255H181.945V121.093C181.945 121.861 181.831 122.539 181.603 123.127C181.375 123.715 181.045 124.213 180.613 124.621C180.181 125.041 179.659 125.353 179.047 125.557C178.435 125.773 177.739 125.881 176.959 125.881ZM177.049 119.941C177.589 119.941 178.063 119.815 178.471 119.563C178.891 119.311 179.215 118.963 179.443 118.519C179.671 118.075 179.785 117.565 179.785 116.989C179.785 116.401 179.665 115.885 179.425 115.441C179.197 114.985 178.879 114.631 178.471 114.379C178.063 114.127 177.589 114.001 177.049 114.001C176.509 114.001 176.035 114.133 175.627 114.397C175.219 114.649 174.895 115.003 174.655 115.459C174.427 115.903 174.313 116.413 174.313 116.989C174.313 117.553 174.427 118.063 174.655 118.519C174.895 118.963 175.219 119.311 175.627 119.563C176.035 119.815 176.509 119.941 177.049 119.941ZM183.389 121.741V112.255H185.567L185.603 114.163L185.243 114.307C185.351 113.995 185.513 113.707 185.729 113.443C185.945 113.167 186.203 112.933 186.503 112.741C186.803 112.537 187.121 112.381 187.457 112.273C187.793 112.153 188.135 112.093 188.483 112.093C188.999 112.093 189.455 112.177 189.851 112.345C190.259 112.501 190.595 112.753 190.859 113.101C191.135 113.449 191.339 113.893 191.471 114.433L191.129 114.361L191.273 114.073C191.405 113.785 191.591 113.527 191.831 113.299C192.071 113.059 192.341 112.849 192.641 112.669C192.941 112.477 193.253 112.333 193.577 112.237C193.913 112.141 194.243 112.093 194.567 112.093C195.287 112.093 195.887 112.237 196.367 112.525C196.847 112.813 197.207 113.251 197.447 113.839C197.687 114.427 197.807 115.153 197.807 116.017V121.741H195.575V116.161C195.575 115.681 195.509 115.285 195.377 114.973C195.257 114.661 195.065 114.433 194.801 114.289C194.549 114.133 194.231 114.055 193.847 114.055C193.547 114.055 193.259 114.109 192.983 114.217C192.719 114.313 192.491 114.457 192.299 114.649C192.107 114.829 191.957 115.039 191.849 115.279C191.741 115.519 191.687 115.783 191.687 116.071V121.741H189.455V116.143C189.455 115.687 189.389 115.309 189.257 115.009C189.125 114.697 188.933 114.463 188.681 114.307C188.429 114.139 188.123 114.055 187.763 114.055C187.463 114.055 187.181 114.109 186.917 114.217C186.653 114.313 186.425 114.451 186.233 114.631C186.041 114.811 185.891 115.021 185.783 115.261C185.675 115.501 185.621 115.765 185.621 116.053V121.741H183.389ZM202.767 121.921C201.987 121.921 201.279 121.705 200.643 121.273C200.007 120.841 199.497 120.253 199.113 119.509C198.729 118.765 198.537 117.919 198.537 116.971C198.537 116.023 198.729 115.177 199.113 114.433C199.497 113.689 200.019 113.107 200.679 112.687C201.339 112.267 202.083 112.057 202.911 112.057C203.391 112.057 203.829 112.129 204.225 112.273C204.621 112.405 204.969 112.597 205.269 112.849C205.569 113.101 205.815 113.389 206.007 113.713C206.211 114.037 206.349 114.385 206.421 114.757L205.935 114.631V112.255H208.167V121.741H205.917V119.473L206.439 119.383C206.355 119.707 206.199 120.025 205.971 120.337C205.755 120.637 205.479 120.907 205.143 121.147C204.819 121.375 204.453 121.561 204.045 121.705C203.649 121.849 203.223 121.921 202.767 121.921ZM203.379 119.959C203.895 119.959 204.351 119.833 204.747 119.581C205.143 119.329 205.449 118.981 205.665 118.537C205.893 118.081 206.007 117.559 206.007 116.971C206.007 116.395 205.893 115.885 205.665 115.441C205.449 114.997 205.143 114.649 204.747 114.397C204.351 114.145 203.895 114.019 203.379 114.019C202.863 114.019 202.407 114.145 202.011 114.397C201.627 114.649 201.327 114.997 201.111 115.441C200.895 115.885 200.787 116.395 200.787 116.971C200.787 117.559 200.895 118.081 201.111 118.537C201.327 118.981 201.627 119.329 202.011 119.581C202.407 119.833 202.863 119.959 203.379 119.959ZM213.883 125.215V108.421H215.971V125.215H213.883ZM220.699 121.741L225.613 109.141H227.809L232.687 121.741H230.257L227.557 114.577C227.497 114.433 227.413 114.205 227.305 113.893C227.209 113.581 227.101 113.245 226.981 112.885C226.861 112.513 226.753 112.171 226.657 111.859C226.561 111.535 226.489 111.301 226.441 111.157L226.891 111.139C226.819 111.379 226.735 111.649 226.639 111.949C226.543 112.249 226.441 112.561 226.333 112.885C226.225 113.209 226.117 113.521 226.009 113.821C225.913 114.121 225.823 114.391 225.739 114.631L223.039 121.741H220.699ZM222.931 118.861L223.741 116.827H229.483L230.347 118.861H222.931ZM236.66 121.921C235.82 121.921 235.064 121.711 234.392 121.291C233.732 120.859 233.204 120.277 232.808 119.545C232.424 118.801 232.232 117.949 232.232 116.989C232.232 116.041 232.424 115.195 232.808 114.451C233.192 113.707 233.714 113.125 234.374 112.705C235.046 112.273 235.802 112.057 236.642 112.057C237.098 112.057 237.536 112.129 237.956 112.273C238.388 112.417 238.772 112.615 239.108 112.867C239.444 113.107 239.708 113.377 239.9 113.677C240.104 113.977 240.218 114.289 240.242 114.613L239.648 114.685V108.421H241.862V121.741H239.72L239.666 119.509L240.098 119.545C240.086 119.845 239.978 120.133 239.774 120.409C239.582 120.685 239.33 120.937 239.018 121.165C238.706 121.393 238.34 121.579 237.92 121.723C237.512 121.855 237.092 121.921 236.66 121.921ZM237.092 120.049C237.608 120.049 238.064 119.917 238.46 119.653C238.856 119.389 239.162 119.029 239.378 118.573C239.606 118.117 239.72 117.589 239.72 116.989C239.72 116.401 239.606 115.879 239.378 115.423C239.162 114.955 238.856 114.595 238.46 114.343C238.064 114.079 237.608 113.947 237.092 113.947C236.576 113.947 236.12 114.079 235.724 114.343C235.328 114.595 235.016 114.955 234.788 115.423C234.572 115.879 234.464 116.401 234.464 116.989C234.464 117.589 234.572 118.117 234.788 118.573C235.016 119.029 235.328 119.389 235.724 119.653C236.12 119.917 236.576 120.049 237.092 120.049ZM247.633 121.921C246.685 121.921 245.839 121.711 245.095 121.291C244.351 120.859 243.763 120.271 243.331 119.527C242.899 118.783 242.683 117.937 242.683 116.989C242.683 116.041 242.899 115.195 243.331 114.451C243.763 113.707 244.351 113.125 245.095 112.705C245.839 112.273 246.685 112.057 247.633 112.057C248.569 112.057 249.409 112.273 250.153 112.705C250.897 113.125 251.479 113.707 251.899 114.451C252.331 115.195 252.547 116.041 252.547 116.989C252.547 117.937 252.331 118.783 251.899 119.527C251.479 120.271 250.897 120.859 250.153 121.291C249.409 121.711 248.569 121.921 247.633 121.921ZM247.633 119.959C248.149 119.959 248.605 119.827 249.001 119.563C249.409 119.299 249.727 118.945 249.955 118.501C250.195 118.057 250.309 117.553 250.297 116.989C250.309 116.413 250.195 115.903 249.955 115.459C249.727 115.015 249.409 114.667 249.001 114.415C248.605 114.151 248.149 114.019 247.633 114.019C247.117 114.019 246.649 114.151 246.229 114.415C245.821 114.667 245.503 115.021 245.275 115.477C245.047 115.921 244.933 116.425 244.933 116.989C244.933 117.553 245.047 118.057 245.275 118.501C245.503 118.945 245.821 119.299 246.229 119.563C246.649 119.827 247.117 119.959 247.633 119.959ZM258.685 121.921C258.265 121.921 257.851 121.861 257.443 121.741C257.047 121.609 256.687 121.435 256.363 121.219C256.039 121.003 255.769 120.763 255.553 120.499C255.337 120.223 255.193 119.947 255.121 119.671L255.643 119.437L255.589 121.705H253.447V108.421H255.661V114.451L255.265 114.271C255.325 113.983 255.457 113.713 255.661 113.461C255.877 113.197 256.141 112.963 256.453 112.759C256.765 112.543 257.107 112.375 257.479 112.255C257.851 112.123 258.229 112.057 258.613 112.057C259.465 112.057 260.215 112.267 260.863 112.687C261.523 113.107 262.039 113.689 262.411 114.433C262.795 115.177 262.987 116.023 262.987 116.971C262.987 117.931 262.801 118.783 262.429 119.527C262.057 120.271 261.541 120.859 260.881 121.291C260.233 121.711 259.501 121.921 258.685 121.921ZM258.217 119.977C258.721 119.977 259.171 119.851 259.567 119.599C259.963 119.335 260.275 118.981 260.503 118.537C260.731 118.081 260.845 117.559 260.845 116.971C260.845 116.395 260.731 115.885 260.503 115.441C260.287 114.997 259.981 114.649 259.585 114.397C259.189 114.145 258.733 114.019 258.217 114.019C257.701 114.019 257.245 114.145 256.849 114.397C256.453 114.649 256.141 114.997 255.913 115.441C255.685 115.885 255.571 116.395 255.571 116.971C255.571 117.559 255.685 118.081 255.913 118.537C256.141 118.981 256.453 119.335 256.849 119.599C257.245 119.851 257.701 119.977 258.217 119.977ZM268.327 121.921C267.331 121.921 266.449 121.711 265.681 121.291C264.925 120.871 264.331 120.301 263.899 119.581C263.479 118.849 263.269 118.015 263.269 117.079C263.269 116.335 263.389 115.657 263.629 115.045C263.869 114.433 264.199 113.905 264.619 113.461C265.051 113.005 265.561 112.657 266.149 112.417C266.749 112.165 267.403 112.039 268.111 112.039C268.735 112.039 269.317 112.159 269.857 112.399C270.397 112.639 270.865 112.969 271.261 113.389C271.657 113.797 271.957 114.289 272.161 114.865C272.377 115.429 272.479 116.047 272.467 116.719L272.449 117.493H264.763L264.349 115.981H270.595L270.307 116.287V115.891C270.271 115.519 270.151 115.195 269.947 114.919C269.743 114.631 269.479 114.409 269.155 114.253C268.843 114.085 268.495 114.001 268.111 114.001C267.523 114.001 267.025 114.115 266.617 114.343C266.221 114.571 265.921 114.901 265.717 115.333C265.513 115.753 265.411 116.281 265.411 116.917C265.411 117.529 265.537 118.063 265.789 118.519C266.053 118.975 266.419 119.329 266.887 119.581C267.367 119.821 267.925 119.941 268.561 119.941C269.005 119.941 269.413 119.869 269.785 119.725C270.157 119.581 270.559 119.323 270.991 118.951L272.089 120.481C271.765 120.781 271.393 121.039 270.973 121.255C270.565 121.459 270.133 121.621 269.677 121.741C269.221 121.861 268.771 121.921 268.327 121.921ZM285.533 121.741L281.627 116.089L276.623 109.141H279.539L283.355 114.721L288.449 121.741H285.533ZM276.533 121.741L281.339 114.883L282.995 116.305L279.269 121.741H276.533ZM283.643 115.891L282.005 114.523L285.533 109.141H288.269L283.643 115.891ZM289.338 121.741V109.141H294.396C295.308 109.141 296.13 109.291 296.862 109.591C297.606 109.891 298.242 110.323 298.77 110.887C299.31 111.451 299.718 112.117 299.994 112.885C300.282 113.653 300.426 114.505 300.426 115.441C300.426 116.377 300.282 117.235 299.994 118.015C299.718 118.783 299.316 119.449 298.788 120.013C298.26 120.565 297.624 120.991 296.88 121.291C296.136 121.591 295.308 121.741 294.396 121.741H289.338ZM291.678 119.923L291.498 119.581H294.306C294.894 119.581 295.416 119.485 295.872 119.293C296.34 119.101 296.736 118.825 297.06 118.465C297.384 118.105 297.63 117.673 297.798 117.169C297.966 116.653 298.05 116.077 298.05 115.441C298.05 114.805 297.966 114.235 297.798 113.731C297.63 113.215 297.378 112.777 297.042 112.417C296.718 112.057 296.328 111.781 295.872 111.589C295.416 111.397 294.894 111.301 294.306 111.301H291.444L291.678 110.995V119.923Z" fill="white" fill-opacity="0.76"/>
<defs>
<radialGradient id="paint0_radial_1094_91" cx="0" cy="0" r="1" gradientUnits="userSpaceOnUse" gradientTransform="translate(220.516 55.5) rotate(37.0187) scale(357.555 123.464)">
<stop stop-color="white" stop-opacity="0.74"/>
<stop offset="0.585" stop-color="white" stop-opacity="0.91"/>
</radialGradient>
<linearGradient id="paint1_linear_1094_91" x1="133.592" y1="-18.5915" x2="208.433" y2="100.92" gradientUnits="userSpaceOnUse">
<stop stop-color="#C3A0F9" stop-opacity="0.4"/>
<stop offset="1" stop-color="white" stop-opacity="0"/>
</linearGradient>
<linearGradient id="paint2_linear_1094_91" x1="0" y1="115.241" x2="319.767" y2="115.241" gradientUnits="userSpaceOnUse">
<stop stop-color="#9D78F1"/>
<stop offset="0.283654" stop-color="#8886F2"/>
<stop offset="0.875" stop-color="#6C9AF5"/>
<stop offset="1" stop-color="#21ADFE"/>
</linearGradient>
</defs>
</svg>
