<svg width="298" height="134" viewBox="0 0 298 134" fill="none" xmlns="http://www.w3.org/2000/svg">
<rect x="24.5" y="0.5" width="248" height="110" rx="26.85" fill="url(#paint0_radial_1094_91)" fill-opacity="0.8"/>
<rect x="24.5" y="0.5" width="248" height="110" rx="26.85" stroke="url(#paint1_linear_1094_91)"/>
<path d="M81.66 62.108C80.688 62.108 79.818 61.898 79.05 61.478C78.282 61.046 77.676 60.458 77.232 59.714C76.8 58.958 76.584 58.106 76.584 57.158V49.382H78.528V56.996C78.528 57.608 78.672 58.16 78.96 58.652C79.248 59.132 79.626 59.516 80.094 59.804C80.574 60.092 81.096 60.236 81.66 60.236C82.26 60.236 82.8 60.092 83.28 59.804C83.772 59.516 84.162 59.132 84.45 58.652C84.738 58.16 84.882 57.608 84.882 56.996V49.382H86.736V57.158C86.736 58.106 86.514 58.958 86.07 59.714C85.638 60.458 85.038 61.046 84.27 61.478C83.502 61.898 82.632 62.108 81.66 62.108ZM97.5804 62L93.6744 56.348L88.6704 49.4H91.1364L94.9524 54.98L100.046 62H97.5804ZM88.5804 62L93.3864 55.142L94.5924 56.564L90.8664 62H88.5804ZM95.2404 56.15L94.0524 54.782L97.5804 49.4H99.8664L95.2404 56.15ZM100.795 64.376L108.211 49.4H109.993L102.595 64.376H100.795ZM117.15 62.108C116.178 62.108 115.308 61.898 114.54 61.478C113.772 61.046 113.166 60.458 112.722 59.714C112.29 58.958 112.074 58.106 112.074 57.158V49.382H114.018V56.996C114.018 57.608 114.162 58.16 114.45 58.652C114.738 59.132 115.116 59.516 115.584 59.804C116.064 60.092 116.586 60.236 117.15 60.236C117.75 60.236 118.29 60.092 118.77 59.804C119.262 59.516 119.652 59.132 119.94 58.652C120.228 58.16 120.372 57.608 120.372 56.996V49.382H122.226V57.158C122.226 58.106 122.004 58.958 121.56 59.714C121.128 60.458 120.528 61.046 119.76 61.478C118.992 61.898 118.122 62.108 117.15 62.108ZM125.11 62V60.2H127.144V51.2H125.11V49.4H131.122V51.2H129.088V60.2H131.122V62H125.11ZM143.107 62.18C142.423 62.18 141.787 62.09 141.199 61.91C140.623 61.73 140.095 61.46 139.615 61.1C139.147 60.728 138.727 60.272 138.355 59.732L139.687 58.202C140.275 59.042 140.839 59.624 141.379 59.948C141.919 60.272 142.561 60.434 143.305 60.434C143.761 60.434 144.175 60.362 144.547 60.218C144.919 60.074 145.213 59.876 145.429 59.624C145.645 59.372 145.753 59.084 145.753 58.76C145.753 58.544 145.717 58.34 145.645 58.148C145.573 57.956 145.459 57.782 145.303 57.626C145.159 57.47 144.967 57.326 144.727 57.194C144.499 57.062 144.229 56.948 143.917 56.852C143.605 56.744 143.245 56.654 142.837 56.582C142.189 56.45 141.625 56.276 141.145 56.06C140.665 55.844 140.263 55.574 139.939 55.25C139.615 54.926 139.375 54.56 139.219 54.152C139.063 53.732 138.985 53.264 138.985 52.748C138.985 52.244 139.093 51.776 139.309 51.344C139.537 50.912 139.843 50.54 140.227 50.228C140.623 49.904 141.085 49.658 141.613 49.49C142.141 49.31 142.711 49.22 143.323 49.22C143.971 49.22 144.565 49.304 145.105 49.472C145.645 49.64 146.125 49.892 146.545 50.228C146.965 50.552 147.313 50.954 147.589 51.434L146.221 52.784C145.981 52.388 145.711 52.058 145.411 51.794C145.111 51.518 144.781 51.314 144.421 51.182C144.061 51.038 143.677 50.966 143.269 50.966C142.801 50.966 142.393 51.038 142.045 51.182C141.697 51.326 141.421 51.53 141.217 51.794C141.025 52.046 140.929 52.346 140.929 52.694C140.929 52.946 140.977 53.18 141.073 53.396C141.169 53.6 141.313 53.786 141.505 53.954C141.709 54.11 141.979 54.254 142.315 54.386C142.651 54.506 143.053 54.614 143.521 54.71C144.181 54.854 144.769 55.04 145.285 55.268C145.801 55.484 146.239 55.742 146.599 56.042C146.959 56.342 147.229 56.678 147.409 57.05C147.601 57.422 147.697 57.824 147.697 58.256C147.697 59.06 147.511 59.756 147.139 60.344C146.767 60.932 146.239 61.388 145.555 61.712C144.871 62.024 144.055 62.18 143.107 62.18ZM149.984 65.96V52.55H151.856V54.71L151.568 54.548C151.64 54.188 151.844 53.846 152.18 53.522C152.516 53.186 152.924 52.916 153.404 52.712C153.896 52.496 154.4 52.388 154.916 52.388C155.768 52.388 156.524 52.598 157.184 53.018C157.844 53.438 158.366 54.014 158.75 54.746C159.134 55.478 159.326 56.318 159.326 57.266C159.326 58.202 159.134 59.042 158.75 59.786C158.378 60.518 157.862 61.1 157.202 61.532C156.542 61.952 155.798 62.162 154.97 62.162C154.418 62.162 153.884 62.054 153.368 61.838C152.852 61.61 152.414 61.322 152.054 60.974C151.694 60.626 151.472 60.266 151.388 59.894L151.856 59.642V65.96H149.984ZM154.664 60.452C155.216 60.452 155.708 60.314 156.14 60.038C156.572 59.762 156.914 59.384 157.166 58.904C157.418 58.424 157.544 57.878 157.544 57.266C157.544 56.654 157.418 56.114 157.166 55.646C156.926 55.166 156.59 54.788 156.158 54.512C155.726 54.236 155.228 54.098 154.664 54.098C154.1 54.098 153.602 54.236 153.17 54.512C152.738 54.776 152.396 55.148 152.144 55.628C151.892 56.108 151.766 56.654 151.766 57.266C151.766 57.878 151.892 58.424 152.144 58.904C152.396 59.384 152.738 59.762 153.17 60.038C153.602 60.314 154.1 60.452 154.664 60.452ZM165.749 62.18C164.777 62.18 163.913 61.976 163.157 61.568C162.413 61.148 161.825 60.578 161.393 59.858C160.973 59.138 160.763 58.31 160.763 57.374C160.763 56.63 160.883 55.952 161.123 55.34C161.363 54.728 161.693 54.2 162.113 53.756C162.545 53.3 163.055 52.952 163.643 52.712C164.243 52.46 164.891 52.334 165.587 52.334C166.199 52.334 166.769 52.454 167.297 52.694C167.825 52.922 168.281 53.24 168.665 53.648C169.061 54.056 169.361 54.542 169.565 55.106C169.781 55.658 169.883 56.264 169.871 56.924L169.853 57.716H162.131L161.717 56.24H168.251L167.981 56.546V56.114C167.945 55.718 167.813 55.364 167.585 55.052C167.357 54.74 167.069 54.494 166.721 54.314C166.373 54.134 165.995 54.044 165.587 54.044C164.939 54.044 164.393 54.17 163.949 54.422C163.505 54.662 163.169 55.022 162.941 55.502C162.713 55.97 162.599 56.552 162.599 57.248C162.599 57.908 162.737 58.484 163.013 58.976C163.289 59.456 163.679 59.828 164.183 60.092C164.687 60.356 165.269 60.488 165.929 60.488C166.397 60.488 166.829 60.41 167.225 60.254C167.633 60.098 168.071 59.816 168.539 59.408L169.475 60.722C169.187 61.01 168.833 61.262 168.413 61.478C168.005 61.694 167.567 61.868 167.099 62C166.643 62.12 166.193 62.18 165.749 62.18ZM175.9 62.18C175.024 62.18 174.238 61.964 173.542 61.532C172.858 61.1 172.312 60.512 171.904 59.768C171.508 59.024 171.31 58.19 171.31 57.266C171.31 56.342 171.508 55.508 171.904 54.764C172.312 54.02 172.858 53.432 173.542 53C174.238 52.568 175.024 52.352 175.9 52.352C176.74 52.352 177.502 52.526 178.186 52.874C178.882 53.21 179.41 53.672 179.77 54.26L178.744 55.52C178.552 55.244 178.306 54.992 178.006 54.764C177.706 54.536 177.388 54.356 177.052 54.224C176.716 54.092 176.392 54.026 176.08 54.026C175.504 54.026 174.988 54.17 174.532 54.458C174.088 54.734 173.734 55.118 173.47 55.61C173.206 56.102 173.074 56.654 173.074 57.266C173.074 57.878 173.212 58.43 173.488 58.922C173.764 59.402 174.13 59.786 174.586 60.074C175.042 60.362 175.546 60.506 176.098 60.506C176.422 60.506 176.734 60.452 177.034 60.344C177.346 60.236 177.646 60.074 177.934 59.858C178.222 59.642 178.492 59.378 178.744 59.066L179.77 60.326C179.386 60.866 178.834 61.31 178.114 61.658C177.406 62.006 176.668 62.18 175.9 62.18ZM181.825 62V52.55H183.679V62H181.825ZM182.725 50.462C182.329 50.462 182.023 50.36 181.807 50.156C181.591 49.952 181.483 49.664 181.483 49.292C181.483 48.944 181.591 48.662 181.807 48.446C182.035 48.23 182.341 48.122 182.725 48.122C183.121 48.122 183.427 48.224 183.643 48.428C183.859 48.632 183.967 48.92 183.967 49.292C183.967 49.64 183.853 49.922 183.625 50.138C183.409 50.354 183.109 50.462 182.725 50.462ZM190.164 62.18C189.384 62.18 188.67 61.964 188.022 61.532C187.386 61.1 186.876 60.512 186.492 59.768C186.108 59.024 185.916 58.184 185.916 57.248C185.916 56.3 186.108 55.46 186.492 54.728C186.888 53.984 187.416 53.402 188.076 52.982C188.748 52.562 189.498 52.352 190.326 52.352C190.818 52.352 191.268 52.424 191.676 52.568C192.084 52.712 192.438 52.916 192.738 53.18C193.05 53.432 193.302 53.726 193.494 54.062C193.698 54.398 193.824 54.758 193.872 55.142L193.458 54.998V52.55H195.33V62H193.458V59.75L193.89 59.624C193.818 59.948 193.668 60.266 193.44 60.578C193.224 60.878 192.942 61.148 192.594 61.388C192.258 61.628 191.88 61.82 191.46 61.964C191.052 62.108 190.62 62.18 190.164 62.18ZM190.65 60.47C191.214 60.47 191.712 60.332 192.144 60.056C192.576 59.78 192.912 59.402 193.152 58.922C193.404 58.43 193.53 57.872 193.53 57.248C193.53 56.636 193.404 56.09 193.152 55.61C192.912 55.13 192.576 54.752 192.144 54.476C191.712 54.2 191.214 54.062 190.65 54.062C190.098 54.062 189.606 54.2 189.174 54.476C188.754 54.752 188.418 55.13 188.166 55.61C187.926 56.09 187.806 56.636 187.806 57.248C187.806 57.872 187.926 58.43 188.166 58.922C188.418 59.402 188.754 59.78 189.174 60.056C189.606 60.332 190.098 60.47 190.65 60.47ZM197.955 62V48.68H199.809V62H197.955ZM202.743 62V52.55H204.597V62H202.743ZM203.643 50.462C203.247 50.462 202.941 50.36 202.725 50.156C202.509 49.952 202.401 49.664 202.401 49.292C202.401 48.944 202.509 48.662 202.725 48.446C202.953 48.23 203.259 48.122 203.643 48.122C204.039 48.122 204.345 48.224 204.561 48.428C204.777 48.632 204.885 48.92 204.885 49.292C204.885 49.64 204.771 49.922 204.543 50.138C204.327 50.354 204.027 50.462 203.643 50.462ZM210.596 62.18C209.804 62.18 209.09 62.042 208.454 61.766C207.818 61.49 207.29 61.082 206.87 60.542L208.13 59.462C208.49 59.882 208.88 60.188 209.3 60.38C209.732 60.56 210.218 60.65 210.758 60.65C210.974 60.65 211.172 60.626 211.352 60.578C211.544 60.518 211.706 60.434 211.838 60.326C211.982 60.218 212.09 60.092 212.162 59.948C212.234 59.792 212.27 59.624 212.27 59.444C212.27 59.132 212.156 58.88 211.928 58.688C211.808 58.604 211.616 58.514 211.352 58.418C211.1 58.31 210.77 58.202 210.362 58.094C209.666 57.914 209.096 57.71 208.652 57.482C208.208 57.254 207.866 56.996 207.626 56.708C207.446 56.48 207.314 56.234 207.23 55.97C207.146 55.694 207.104 55.394 207.104 55.07C207.104 54.674 207.188 54.314 207.356 53.99C207.536 53.654 207.776 53.366 208.076 53.126C208.388 52.874 208.748 52.682 209.156 52.55C209.576 52.418 210.02 52.352 210.488 52.352C210.932 52.352 211.37 52.412 211.802 52.532C212.246 52.652 212.654 52.826 213.026 53.054C213.398 53.282 213.71 53.552 213.962 53.864L212.9 55.034C212.672 54.806 212.42 54.608 212.144 54.44C211.88 54.26 211.61 54.122 211.334 54.026C211.058 53.93 210.806 53.882 210.578 53.882C210.326 53.882 210.098 53.906 209.894 53.954C209.69 54.002 209.516 54.074 209.372 54.17C209.24 54.266 209.138 54.386 209.066 54.53C208.994 54.674 208.958 54.836 208.958 55.016C208.97 55.172 209.006 55.322 209.066 55.466C209.138 55.598 209.234 55.712 209.354 55.808C209.486 55.904 209.684 56.006 209.948 56.114C210.212 56.222 210.548 56.324 210.956 56.42C211.556 56.576 212.048 56.75 212.432 56.942C212.828 57.122 213.14 57.332 213.368 57.572C213.608 57.8 213.776 58.064 213.872 58.364C213.968 58.664 214.016 59 214.016 59.372C214.016 59.912 213.86 60.398 213.548 60.83C213.248 61.25 212.84 61.58 212.324 61.82C211.808 62.06 211.232 62.18 210.596 62.18ZM217.23 62V50.138H219.084V62H217.23ZM215.268 54.35V52.55H221.28V54.35H215.268Z" fill="#3C3842"/>
<rect y="97" width="297.767" height="36.4814" rx="18.2407" fill="url(#paint2_linear_1094_91)"/>
<path d="M20.0814 121.741V109.141H25.1394C26.0514 109.141 26.8734 109.291 27.6054 109.591C28.3494 109.891 28.9854 110.323 29.5134 110.887C30.0534 111.451 30.4614 112.117 30.7374 112.885C31.0254 113.653 31.1694 114.505 31.1694 115.441C31.1694 116.377 31.0254 117.235 30.7374 118.015C30.4614 118.783 30.0594 119.449 29.5314 120.013C29.0034 120.565 28.3674 120.991 27.6234 121.291C26.8794 121.591 26.0514 121.741 25.1394 121.741H20.0814ZM22.4214 119.923L22.2414 119.581H25.0494C25.6374 119.581 26.1594 119.485 26.6154 119.293C27.0834 119.101 27.4794 118.825 27.8034 118.465C28.1274 118.105 28.3734 117.673 28.5414 117.169C28.7094 116.653 28.7934 116.077 28.7934 115.441C28.7934 114.805 28.7094 114.235 28.5414 113.731C28.3734 113.215 28.1214 112.777 27.7854 112.417C27.4614 112.057 27.0714 111.781 26.6154 111.589C26.1594 111.397 25.6374 111.301 25.0494 111.301H22.1874L22.4214 110.995V119.923ZM36.6745 121.921C35.6785 121.921 34.7965 121.711 34.0285 121.291C33.2725 120.871 32.6785 120.301 32.2465 119.581C31.8265 118.849 31.6165 118.015 31.6165 117.079C31.6165 116.335 31.7365 115.657 31.9765 115.045C32.2165 114.433 32.5465 113.905 32.9665 113.461C33.3985 113.005 33.9085 112.657 34.4965 112.417C35.0965 112.165 35.7505 112.039 36.4585 112.039C37.0825 112.039 37.6645 112.159 38.2045 112.399C38.7445 112.639 39.2125 112.969 39.6085 113.389C40.0045 113.797 40.3045 114.289 40.5085 114.865C40.7245 115.429 40.8265 116.047 40.8145 116.719L40.7965 117.493H33.1105L32.6965 115.981H38.9425L38.6545 116.287V115.891C38.6185 115.519 38.4985 115.195 38.2945 114.919C38.0905 114.631 37.8265 114.409 37.5025 114.253C37.1905 114.085 36.8425 114.001 36.4585 114.001C35.8705 114.001 35.3725 114.115 34.9645 114.343C34.5685 114.571 34.2685 114.901 34.0645 115.333C33.8605 115.753 33.7585 116.281 33.7585 116.917C33.7585 117.529 33.8845 118.063 34.1365 118.519C34.4005 118.975 34.7665 119.329 35.2345 119.581C35.7145 119.821 36.2725 119.941 36.9085 119.941C37.3525 119.941 37.7605 119.869 38.1325 119.725C38.5045 119.581 38.9065 119.323 39.3385 118.951L40.4365 120.481C40.1125 120.781 39.7405 121.039 39.3205 121.255C38.9125 121.459 38.4805 121.621 38.0245 121.741C37.5685 121.861 37.1185 121.921 36.6745 121.921ZM44.8633 121.921C44.0233 121.921 43.2673 121.783 42.5953 121.507C41.9353 121.219 41.3953 120.811 40.9753 120.283L42.4153 119.041C42.7753 119.449 43.1773 119.743 43.6213 119.923C44.0653 120.103 44.5333 120.193 45.0253 120.193C45.2293 120.193 45.4093 120.169 45.5653 120.121C45.7333 120.073 45.8773 120.001 45.9973 119.905C46.1173 119.809 46.2073 119.701 46.2673 119.581C46.3393 119.449 46.3753 119.305 46.3753 119.149C46.3753 118.861 46.2673 118.633 46.0513 118.465C45.9313 118.381 45.7393 118.291 45.4753 118.195C45.2233 118.099 44.8933 118.003 44.4853 117.907C43.8373 117.739 43.2973 117.547 42.8653 117.331C42.4333 117.103 42.0973 116.851 41.8573 116.575C41.6533 116.347 41.4973 116.089 41.3893 115.801C41.2933 115.513 41.2453 115.201 41.2453 114.865C41.2453 114.445 41.3353 114.067 41.5153 113.731C41.7073 113.383 41.9653 113.083 42.2893 112.831C42.6133 112.579 42.9913 112.387 43.4233 112.255C43.8553 112.123 44.3053 112.057 44.7733 112.057C45.2533 112.057 45.7153 112.117 46.1593 112.237C46.6153 112.357 47.0353 112.531 47.4193 112.759C47.8153 112.975 48.1513 113.239 48.4273 113.551L47.2033 114.901C46.9753 114.685 46.7233 114.493 46.4473 114.325C46.1833 114.157 45.9133 114.025 45.6373 113.929C45.3613 113.821 45.1033 113.767 44.8633 113.767C44.6353 113.767 44.4313 113.791 44.2513 113.839C44.0713 113.875 43.9213 113.935 43.8013 114.019C43.6813 114.103 43.5853 114.211 43.5133 114.343C43.4533 114.463 43.4233 114.607 43.4233 114.775C43.4353 114.919 43.4713 115.057 43.5313 115.189C43.6033 115.309 43.6993 115.411 43.8193 115.495C43.9513 115.579 44.1493 115.675 44.4133 115.783C44.6773 115.891 45.0193 115.993 45.4393 116.089C46.0273 116.245 46.5193 116.419 46.9153 116.611C47.3113 116.803 47.6233 117.025 47.8513 117.277C48.0793 117.493 48.2413 117.745 48.3373 118.033C48.4333 118.321 48.4813 118.639 48.4813 118.987C48.4813 119.551 48.3193 120.055 47.9953 120.499C47.6833 120.943 47.2513 121.291 46.6993 121.543C46.1593 121.795 45.5473 121.921 44.8633 121.921ZM49.6037 121.741V112.255H51.8177V121.741H49.6037ZM50.6837 110.239C50.2397 110.239 49.8917 110.131 49.6397 109.915C49.3997 109.687 49.2797 109.369 49.2797 108.961C49.2797 108.577 49.4057 108.265 49.6577 108.025C49.9097 107.785 50.2517 107.665 50.6837 107.665C51.1397 107.665 51.4877 107.779 51.7277 108.007C51.9797 108.223 52.1057 108.541 52.1057 108.961C52.1057 109.333 51.9797 109.639 51.7277 109.879C51.4757 110.119 51.1277 110.239 50.6837 110.239ZM57.8111 125.881C57.1031 125.881 56.3951 125.773 55.6871 125.557C54.9911 125.341 54.4271 125.059 53.9951 124.711L54.7871 123.073C55.0391 123.253 55.3211 123.409 55.6331 123.541C55.9451 123.673 56.2751 123.775 56.6231 123.847C56.9831 123.919 57.3371 123.955 57.6851 123.955C58.3211 123.955 58.8491 123.853 59.2691 123.649C59.7011 123.457 60.0251 123.157 60.2411 122.749C60.4571 122.353 60.5651 121.855 60.5651 121.255V119.509L60.8891 119.635C60.8171 120.007 60.6191 120.361 60.2951 120.697C59.9711 121.033 59.5631 121.309 59.0711 121.525C58.5791 121.729 58.0751 121.831 57.5591 121.831C56.6591 121.831 55.8611 121.621 55.1651 121.201C54.4811 120.781 53.9351 120.211 53.5271 119.491C53.1311 118.759 52.9331 117.919 52.9331 116.971C52.9331 116.023 53.1311 115.183 53.5271 114.451C53.9231 113.707 54.4631 113.125 55.1471 112.705C55.8431 112.273 56.6231 112.057 57.4871 112.057C57.8471 112.057 58.1951 112.099 58.5311 112.183C58.8671 112.267 59.1731 112.387 59.4491 112.543C59.7371 112.699 59.9951 112.873 60.2231 113.065C60.4511 113.257 60.6371 113.461 60.7811 113.677C60.9251 113.893 61.0151 114.103 61.0511 114.307L60.5831 114.451L60.6191 112.255H62.7971V121.093C62.7971 121.861 62.6831 122.539 62.4551 123.127C62.2271 123.715 61.8971 124.213 61.4651 124.621C61.0331 125.041 60.5111 125.353 59.8991 125.557C59.2871 125.773 58.5911 125.881 57.8111 125.881ZM57.9011 119.941C58.4411 119.941 58.9151 119.815 59.3231 119.563C59.7431 119.311 60.0671 118.963 60.2951 118.519C60.5231 118.075 60.6371 117.565 60.6371 116.989C60.6371 116.401 60.5171 115.885 60.2771 115.441C60.0491 114.985 59.7311 114.631 59.3231 114.379C58.9151 114.127 58.4411 114.001 57.9011 114.001C57.3611 114.001 56.8871 114.133 56.4791 114.397C56.0711 114.649 55.7471 115.003 55.5071 115.459C55.2791 115.903 55.1651 116.413 55.1651 116.989C55.1651 117.553 55.2791 118.063 55.5071 118.519C55.7471 118.963 56.0711 119.311 56.4791 119.563C56.8871 119.815 57.3611 119.941 57.9011 119.941ZM64.2776 121.741V112.255H66.4376L66.4736 114.199L66.0596 114.415C66.1796 113.983 66.4136 113.593 66.7616 113.245C67.1096 112.885 67.5236 112.597 68.0036 112.381C68.4836 112.165 68.9756 112.057 69.4796 112.057C70.1996 112.057 70.7996 112.201 71.2796 112.489C71.7716 112.777 72.1376 113.209 72.3776 113.785C72.6296 114.361 72.7556 115.081 72.7556 115.945V121.741H70.5416V116.107C70.5416 115.627 70.4756 115.231 70.3436 114.919C70.2116 114.595 70.0076 114.361 69.7316 114.217C69.4556 114.061 69.1196 113.989 68.7236 114.001C68.3996 114.001 68.0996 114.055 67.8236 114.163C67.5596 114.259 67.3256 114.403 67.1216 114.595C66.9296 114.775 66.7736 114.985 66.6536 115.225C66.5456 115.465 66.4916 115.729 66.4916 116.017V121.741H65.3936C65.1776 121.741 64.9736 121.741 64.7816 121.741C64.6016 121.741 64.4336 121.741 64.2776 121.741ZM81.2934 121.741V111.301H77.6934V109.141H87.3414V111.301H83.6334V121.741H81.2934ZM88.1607 121.741V108.421H90.3567V114.199L89.9427 114.415C90.0627 113.983 90.2967 113.593 90.6447 113.245C90.9927 112.885 91.4067 112.597 91.8867 112.381C92.3667 112.165 92.8587 112.057 93.3627 112.057C94.0827 112.057 94.6827 112.201 95.1627 112.489C95.6547 112.777 96.0207 113.209 96.2607 113.785C96.5127 114.361 96.6387 115.081 96.6387 115.945V121.741H94.4247V116.107C94.4247 115.627 94.3587 115.231 94.2267 114.919C94.0947 114.595 93.8907 114.361 93.6147 114.217C93.3387 114.061 93.0027 113.989 92.6067 114.001C92.2827 114.001 91.9827 114.055 91.7067 114.163C91.4427 114.259 91.2087 114.403 91.0047 114.595C90.8127 114.775 90.6567 114.985 90.5367 115.225C90.4287 115.465 90.3747 115.729 90.3747 116.017V121.741H89.2767C89.0607 121.741 88.8567 121.741 88.6647 121.741C88.4847 121.741 88.3167 121.741 88.1607 121.741ZM98.3014 121.741V112.255H100.515V121.741H98.3014ZM99.3814 110.239C98.9374 110.239 98.5894 110.131 98.3374 109.915C98.0974 109.687 97.9774 109.369 97.9774 108.961C97.9774 108.577 98.1034 108.265 98.3554 108.025C98.6074 107.785 98.9494 107.665 99.3814 107.665C99.8374 107.665 100.185 107.779 100.425 108.007C100.677 108.223 100.803 108.541 100.803 108.961C100.803 109.333 100.677 109.639 100.425 109.879C100.173 110.119 99.8254 110.239 99.3814 110.239ZM102.243 121.741V112.255H104.403L104.439 114.199L104.025 114.415C104.145 113.983 104.379 113.593 104.727 113.245C105.075 112.885 105.489 112.597 105.969 112.381C106.449 112.165 106.941 112.057 107.445 112.057C108.165 112.057 108.765 112.201 109.245 112.489C109.737 112.777 110.103 113.209 110.343 113.785C110.595 114.361 110.721 115.081 110.721 115.945V121.741H108.507V116.107C108.507 115.627 108.441 115.231 108.309 114.919C108.177 114.595 107.973 114.361 107.697 114.217C107.421 114.061 107.085 113.989 106.689 114.001C106.365 114.001 106.065 114.055 105.789 114.163C105.525 114.259 105.291 114.403 105.087 114.595C104.895 114.775 104.739 114.985 104.619 115.225C104.511 115.465 104.457 115.729 104.457 116.017V121.741H103.359C103.143 121.741 102.939 121.741 102.747 121.741C102.567 121.741 102.399 121.741 102.243 121.741ZM114.202 118.843L113.77 116.773L118.27 112.255H121.222L114.202 118.843ZM112.132 121.741V108.421H114.346V121.741H112.132ZM118.54 121.741L115.048 117.511L116.614 116.179L121.276 121.741H118.54ZM121.903 121.741V112.255H124.117V121.741H121.903ZM122.983 110.239C122.539 110.239 122.191 110.131 121.939 109.915C121.699 109.687 121.579 109.369 121.579 108.961C121.579 108.577 121.705 108.265 121.957 108.025C122.209 107.785 122.551 107.665 122.983 107.665C123.439 107.665 123.787 107.779 124.027 108.007C124.279 108.223 124.405 108.541 124.405 108.961C124.405 109.333 124.279 109.639 124.027 109.879C123.775 110.119 123.427 110.239 122.983 110.239ZM125.845 121.741V112.255H128.005L128.041 114.199L127.627 114.415C127.747 113.983 127.981 113.593 128.329 113.245C128.677 112.885 129.091 112.597 129.571 112.381C130.051 112.165 130.543 112.057 131.047 112.057C131.767 112.057 132.367 112.201 132.847 112.489C133.339 112.777 133.705 113.209 133.945 113.785C134.197 114.361 134.323 115.081 134.323 115.945V121.741H132.109V116.107C132.109 115.627 132.043 115.231 131.911 114.919C131.779 114.595 131.575 114.361 131.299 114.217C131.023 114.061 130.687 113.989 130.291 114.001C129.967 114.001 129.667 114.055 129.391 114.163C129.127 114.259 128.893 114.403 128.689 114.595C128.497 114.775 128.341 114.985 128.221 115.225C128.113 115.465 128.059 115.729 128.059 116.017V121.741H126.961C126.745 121.741 126.541 121.741 126.349 121.741C126.169 121.741 126.001 121.741 125.845 121.741ZM139.999 125.881C139.291 125.881 138.583 125.773 137.875 125.557C137.179 125.341 136.615 125.059 136.183 124.711L136.975 123.073C137.227 123.253 137.509 123.409 137.821 123.541C138.133 123.673 138.463 123.775 138.811 123.847C139.171 123.919 139.525 123.955 139.873 123.955C140.509 123.955 141.037 123.853 141.457 123.649C141.889 123.457 142.213 123.157 142.429 122.749C142.645 122.353 142.753 121.855 142.753 121.255V119.509L143.077 119.635C143.005 120.007 142.807 120.361 142.483 120.697C142.159 121.033 141.751 121.309 141.259 121.525C140.767 121.729 140.263 121.831 139.747 121.831C138.847 121.831 138.049 121.621 137.353 121.201C136.669 120.781 136.123 120.211 135.715 119.491C135.319 118.759 135.121 117.919 135.121 116.971C135.121 116.023 135.319 115.183 135.715 114.451C136.111 113.707 136.651 113.125 137.335 112.705C138.031 112.273 138.811 112.057 139.675 112.057C140.035 112.057 140.383 112.099 140.719 112.183C141.055 112.267 141.361 112.387 141.637 112.543C141.925 112.699 142.183 112.873 142.411 113.065C142.639 113.257 142.825 113.461 142.969 113.677C143.113 113.893 143.203 114.103 143.239 114.307L142.771 114.451L142.807 112.255H144.985V121.093C144.985 121.861 144.871 122.539 144.643 123.127C144.415 123.715 144.085 124.213 143.653 124.621C143.221 125.041 142.699 125.353 142.087 125.557C141.475 125.773 140.779 125.881 139.999 125.881ZM140.089 119.941C140.629 119.941 141.103 119.815 141.511 119.563C141.931 119.311 142.255 118.963 142.483 118.519C142.711 118.075 142.825 117.565 142.825 116.989C142.825 116.401 142.705 115.885 142.465 115.441C142.237 114.985 141.919 114.631 141.511 114.379C141.103 114.127 140.629 114.001 140.089 114.001C139.549 114.001 139.075 114.133 138.667 114.397C138.259 114.649 137.935 115.003 137.695 115.459C137.467 115.903 137.353 116.413 137.353 116.989C137.353 117.553 137.467 118.063 137.695 118.519C137.935 118.963 138.259 119.311 138.667 119.563C139.075 119.815 139.549 119.941 140.089 119.941ZM150.695 125.215V108.421H152.783V125.215H150.695ZM158.915 121.741V109.141H161.255V121.741H158.915ZM159.995 116.575V114.451H166.493V116.575H159.995ZM159.995 111.301V109.141H167.267V111.301H159.995ZM168.642 121.741V112.255H170.856V121.741H168.642ZM169.722 110.239C169.278 110.239 168.93 110.131 168.678 109.915C168.438 109.687 168.318 109.369 168.318 108.961C168.318 108.577 168.444 108.265 168.696 108.025C168.948 107.785 169.29 107.665 169.722 107.665C170.178 107.665 170.526 107.779 170.766 108.007C171.018 108.223 171.144 108.541 171.144 108.961C171.144 109.333 171.018 109.639 170.766 109.879C170.514 110.119 170.166 110.239 169.722 110.239ZM176.849 125.881C176.141 125.881 175.433 125.773 174.725 125.557C174.029 125.341 173.465 125.059 173.033 124.711L173.825 123.073C174.077 123.253 174.359 123.409 174.671 123.541C174.983 123.673 175.313 123.775 175.661 123.847C176.021 123.919 176.375 123.955 176.723 123.955C177.359 123.955 177.887 123.853 178.307 123.649C178.739 123.457 179.063 123.157 179.279 122.749C179.495 122.353 179.603 121.855 179.603 121.255V119.509L179.927 119.635C179.855 120.007 179.657 120.361 179.333 120.697C179.009 121.033 178.601 121.309 178.109 121.525C177.617 121.729 177.113 121.831 176.597 121.831C175.697 121.831 174.899 121.621 174.203 121.201C173.519 120.781 172.973 120.211 172.565 119.491C172.169 118.759 171.971 117.919 171.971 116.971C171.971 116.023 172.169 115.183 172.565 114.451C172.961 113.707 173.501 113.125 174.185 112.705C174.881 112.273 175.661 112.057 176.525 112.057C176.885 112.057 177.233 112.099 177.569 112.183C177.905 112.267 178.211 112.387 178.487 112.543C178.775 112.699 179.033 112.873 179.261 113.065C179.489 113.257 179.675 113.461 179.819 113.677C179.963 113.893 180.053 114.103 180.089 114.307L179.621 114.451L179.657 112.255H181.835V121.093C181.835 121.861 181.721 122.539 181.493 123.127C181.265 123.715 180.935 124.213 180.503 124.621C180.071 125.041 179.549 125.353 178.937 125.557C178.325 125.773 177.629 125.881 176.849 125.881ZM176.939 119.941C177.479 119.941 177.953 119.815 178.361 119.563C178.781 119.311 179.105 118.963 179.333 118.519C179.561 118.075 179.675 117.565 179.675 116.989C179.675 116.401 179.555 115.885 179.315 115.441C179.087 114.985 178.769 114.631 178.361 114.379C177.953 114.127 177.479 114.001 176.939 114.001C176.399 114.001 175.925 114.133 175.517 114.397C175.109 114.649 174.785 115.003 174.545 115.459C174.317 115.903 174.203 116.413 174.203 116.989C174.203 117.553 174.317 118.063 174.545 118.519C174.785 118.963 175.109 119.311 175.517 119.563C175.925 119.815 176.399 119.941 176.939 119.941ZM183.28 121.741V112.255H185.458L185.494 114.163L185.134 114.307C185.242 113.995 185.404 113.707 185.62 113.443C185.836 113.167 186.094 112.933 186.394 112.741C186.694 112.537 187.012 112.381 187.348 112.273C187.684 112.153 188.026 112.093 188.374 112.093C188.89 112.093 189.346 112.177 189.742 112.345C190.15 112.501 190.486 112.753 190.75 113.101C191.026 113.449 191.23 113.893 191.362 114.433L191.02 114.361L191.164 114.073C191.296 113.785 191.482 113.527 191.722 113.299C191.962 113.059 192.232 112.849 192.532 112.669C192.832 112.477 193.144 112.333 193.468 112.237C193.804 112.141 194.134 112.093 194.458 112.093C195.178 112.093 195.778 112.237 196.258 112.525C196.738 112.813 197.098 113.251 197.338 113.839C197.578 114.427 197.698 115.153 197.698 116.017V121.741H195.466V116.161C195.466 115.681 195.4 115.285 195.268 114.973C195.148 114.661 194.956 114.433 194.692 114.289C194.44 114.133 194.122 114.055 193.738 114.055C193.438 114.055 193.15 114.109 192.874 114.217C192.61 114.313 192.382 114.457 192.19 114.649C191.998 114.829 191.848 115.039 191.74 115.279C191.632 115.519 191.578 115.783 191.578 116.071V121.741H189.346V116.143C189.346 115.687 189.28 115.309 189.148 115.009C189.016 114.697 188.824 114.463 188.572 114.307C188.32 114.139 188.014 114.055 187.654 114.055C187.354 114.055 187.072 114.109 186.808 114.217C186.544 114.313 186.316 114.451 186.124 114.631C185.932 114.811 185.782 115.021 185.674 115.261C185.566 115.501 185.512 115.765 185.512 116.053V121.741H183.28ZM202.658 121.921C201.878 121.921 201.17 121.705 200.534 121.273C199.898 120.841 199.388 120.253 199.004 119.509C198.62 118.765 198.428 117.919 198.428 116.971C198.428 116.023 198.62 115.177 199.004 114.433C199.388 113.689 199.91 113.107 200.57 112.687C201.23 112.267 201.974 112.057 202.802 112.057C203.282 112.057 203.72 112.129 204.116 112.273C204.512 112.405 204.86 112.597 205.16 112.849C205.46 113.101 205.706 113.389 205.898 113.713C206.102 114.037 206.24 114.385 206.312 114.757L205.826 114.631V112.255H208.058V121.741H205.808V119.473L206.33 119.383C206.246 119.707 206.09 120.025 205.862 120.337C205.646 120.637 205.37 120.907 205.034 121.147C204.71 121.375 204.344 121.561 203.936 121.705C203.54 121.849 203.114 121.921 202.658 121.921ZM203.27 119.959C203.786 119.959 204.242 119.833 204.638 119.581C205.034 119.329 205.34 118.981 205.556 118.537C205.784 118.081 205.898 117.559 205.898 116.971C205.898 116.395 205.784 115.885 205.556 115.441C205.34 114.997 205.034 114.649 204.638 114.397C204.242 114.145 203.786 114.019 203.27 114.019C202.754 114.019 202.298 114.145 201.902 114.397C201.518 114.649 201.218 114.997 201.002 115.441C200.786 115.885 200.678 116.395 200.678 116.971C200.678 117.559 200.786 118.081 201.002 118.537C201.218 118.981 201.518 119.329 201.902 119.581C202.298 119.833 202.754 119.959 203.27 119.959ZM213.774 125.215V108.421H215.862V125.215H213.774ZM221.994 121.741V109.141H224.334V121.741H221.994ZM223.074 116.575V114.451H229.572V116.575H223.074ZM223.074 111.301V109.141H230.346V111.301H223.074ZM231.311 121.741V112.255H233.489L233.525 115.279L233.219 114.595C233.351 114.115 233.579 113.683 233.903 113.299C234.227 112.915 234.599 112.615 235.019 112.399C235.451 112.171 235.901 112.057 236.369 112.057C236.573 112.057 236.765 112.075 236.945 112.111C237.137 112.147 237.293 112.189 237.413 112.237L236.819 114.667C236.687 114.595 236.525 114.535 236.333 114.487C236.141 114.439 235.949 114.415 235.757 114.415C235.457 114.415 235.169 114.475 234.893 114.595C234.629 114.703 234.395 114.859 234.191 115.063C233.987 115.267 233.825 115.507 233.705 115.783C233.597 116.047 233.543 116.347 233.543 116.683V121.741H231.311ZM240.984 121.921C240.204 121.921 239.496 121.705 238.86 121.273C238.224 120.841 237.714 120.253 237.33 119.509C236.946 118.765 236.754 117.919 236.754 116.971C236.754 116.023 236.946 115.177 237.33 114.433C237.714 113.689 238.236 113.107 238.896 112.687C239.556 112.267 240.3 112.057 241.128 112.057C241.608 112.057 242.046 112.129 242.442 112.273C242.838 112.405 243.186 112.597 243.486 112.849C243.786 113.101 244.032 113.389 244.224 113.713C244.428 114.037 244.566 114.385 244.638 114.757L244.152 114.631V112.255H246.384V121.741H244.134V119.473L244.656 119.383C244.572 119.707 244.416 120.025 244.188 120.337C243.972 120.637 243.696 120.907 243.36 121.147C243.036 121.375 242.67 121.561 242.262 121.705C241.866 121.849 241.44 121.921 240.984 121.921ZM241.596 119.959C242.112 119.959 242.568 119.833 242.964 119.581C243.36 119.329 243.666 118.981 243.882 118.537C244.11 118.081 244.224 117.559 244.224 116.971C244.224 116.395 244.11 115.885 243.882 115.441C243.666 114.997 243.36 114.649 242.964 114.397C242.568 114.145 242.112 114.019 241.596 114.019C241.08 114.019 240.624 114.145 240.228 114.397C239.844 114.649 239.544 114.997 239.328 115.441C239.112 115.885 239.004 116.395 239.004 116.971C239.004 117.559 239.112 118.081 239.328 118.537C239.544 118.981 239.844 119.329 240.228 119.581C240.624 119.833 241.08 119.959 241.596 119.959ZM247.835 121.741V112.255H250.013L250.049 114.163L249.689 114.307C249.797 113.995 249.959 113.707 250.175 113.443C250.391 113.167 250.649 112.933 250.949 112.741C251.249 112.537 251.567 112.381 251.903 112.273C252.239 112.153 252.581 112.093 252.929 112.093C253.445 112.093 253.901 112.177 254.297 112.345C254.705 112.501 255.041 112.753 255.305 113.101C255.581 113.449 255.785 113.893 255.917 114.433L255.575 114.361L255.719 114.073C255.851 113.785 256.037 113.527 256.277 113.299C256.517 113.059 256.787 112.849 257.087 112.669C257.387 112.477 257.699 112.333 258.023 112.237C258.359 112.141 258.689 112.093 259.013 112.093C259.733 112.093 260.333 112.237 260.813 112.525C261.293 112.813 261.653 113.251 261.893 113.839C262.133 114.427 262.253 115.153 262.253 116.017V121.741H260.021V116.161C260.021 115.681 259.955 115.285 259.823 114.973C259.703 114.661 259.511 114.433 259.247 114.289C258.995 114.133 258.677 114.055 258.293 114.055C257.993 114.055 257.705 114.109 257.429 114.217C257.165 114.313 256.937 114.457 256.745 114.649C256.553 114.829 256.403 115.039 256.295 115.279C256.187 115.519 256.133 115.783 256.133 116.071V121.741H253.901V116.143C253.901 115.687 253.835 115.309 253.703 115.009C253.571 114.697 253.379 114.463 253.127 114.307C252.875 114.139 252.569 114.055 252.209 114.055C251.909 114.055 251.627 114.109 251.363 114.217C251.099 114.313 250.871 114.451 250.679 114.631C250.487 114.811 250.337 115.021 250.229 115.261C250.121 115.501 250.067 115.765 250.067 116.053V121.741H247.835ZM268.077 121.921C267.081 121.921 266.199 121.711 265.431 121.291C264.675 120.871 264.081 120.301 263.649 119.581C263.229 118.849 263.019 118.015 263.019 117.079C263.019 116.335 263.139 115.657 263.379 115.045C263.619 114.433 263.949 113.905 264.369 113.461C264.801 113.005 265.311 112.657 265.899 112.417C266.499 112.165 267.153 112.039 267.861 112.039C268.485 112.039 269.067 112.159 269.607 112.399C270.147 112.639 270.615 112.969 271.011 113.389C271.407 113.797 271.707 114.289 271.911 114.865C272.127 115.429 272.229 116.047 272.217 116.719L272.199 117.493H264.513L264.099 115.981H270.345L270.057 116.287V115.891C270.021 115.519 269.901 115.195 269.697 114.919C269.493 114.631 269.229 114.409 268.905 114.253C268.593 114.085 268.245 114.001 267.861 114.001C267.273 114.001 266.775 114.115 266.367 114.343C265.971 114.571 265.671 114.901 265.467 115.333C265.263 115.753 265.161 116.281 265.161 116.917C265.161 117.529 265.287 118.063 265.539 118.519C265.803 118.975 266.169 119.329 266.637 119.581C267.117 119.821 267.675 119.941 268.311 119.941C268.755 119.941 269.163 119.869 269.535 119.725C269.907 119.581 270.309 119.323 270.741 118.951L271.839 120.481C271.515 120.781 271.143 121.039 270.723 121.255C270.315 121.459 269.883 121.621 269.427 121.741C268.971 121.861 268.521 121.921 268.077 121.921ZM273.098 121.741V112.255H275.276L275.312 115.279L275.006 114.595C275.138 114.115 275.366 113.683 275.69 113.299C276.014 112.915 276.386 112.615 276.806 112.399C277.238 112.171 277.688 112.057 278.156 112.057C278.36 112.057 278.552 112.075 278.732 112.111C278.924 112.147 279.08 112.189 279.2 112.237L278.606 114.667C278.474 114.595 278.312 114.535 278.12 114.487C277.928 114.439 277.736 114.415 277.544 114.415C277.244 114.415 276.956 114.475 276.68 114.595C276.416 114.703 276.182 114.859 275.978 115.063C275.774 115.267 275.612 115.507 275.492 115.783C275.384 116.047 275.33 116.347 275.33 116.683V121.741H273.098Z" fill="white" fill-opacity="0.76"/>
<defs>
<radialGradient id="paint0_radial_1094_91" cx="0" cy="0" r="1" gradientUnits="userSpaceOnUse" gradientTransform="translate(206.516 55.5) rotate(37.0187) scale(357.555 123.464)">
<stop stop-color="white" stop-opacity="0.74"/>
<stop offset="0.585" stop-color="white" stop-opacity="0.91"/>
</radialGradient>
<linearGradient id="paint1_linear_1094_91" x1="119.592" y1="-18.5915" x2="194.433" y2="100.92" gradientUnits="userSpaceOnUse">
<stop stop-color="#C3A0F9" stop-opacity="0.4"/>
<stop offset="1" stop-color="white" stop-opacity="0"/>
</linearGradient>
<linearGradient id="paint2_linear_1094_91" x1="0" y1="115.241" x2="297.767" y2="115.241" gradientUnits="userSpaceOnUse">
<stop stop-color="#9D78F1"/>
<stop offset="0.283654" stop-color="#8886F2"/>
<stop offset="0.875" stop-color="#6C9AF5"/>
<stop offset="1" stop-color="#21ADFE"/>
</linearGradient>
</defs>
</svg>
